<?xml version="1.0" encoding="utf-8"?>
<!-- Generator: Adobe Illustrator 17.0.0, SVG Export Plug-In . SVG Version: 6.00 Build 0)  -->
<!DOCTYPE svg PUBLIC "-//W3C//DTD SVG 1.1//EN" "http://www.w3.org/Graphics/SVG/1.1/DTD/svg11.dtd">
<svg version="1.1" id="Livello_1" xmlns="http://www.w3.org/2000/svg" xmlns:xlink="http://www.w3.org/1999/xlink" x="0px" y="0px"
	 width="389.144px" height="314.809px" viewBox="0 0 389.144 314.809" enable-background="new 0 0 389.144 314.809"
	 xml:space="preserve">
<g>
	<path fill="#13283A" d="M252.999,120.385h-24.537v42.505h23.793c16.108,0,27.015-8.427,27.015-21.314v-0.248
		C279.269,127.572,268.611,120.385,252.999,120.385z"/>
	<path fill="#13283A" d="M317.195,201.18v-86.744h61.713v5.948h-55.27v34.078h49.693v5.949h-49.693v34.821h38.057
		c17.164-19.963,27.449-40.837,27.449-61.289c0-111.473-159.133-160.912-262.553-119.331C77.908,34.186,41.04,70.594,19.98,114.437
		h0.778v40.15h55.516v-40.15h6.443v86.744h-6.443v-40.646H20.758v40.646h-6.444v-73.825c-18.459,46.443-19.808,99.78,0.309,149.812
		c33.548,83.44,256.74,14.793,341.732-75.987H317.195z M155.591,166.731v34.45h-6.444v-34.326l-37.176-52.418h8.055l32.467,46.594
		l32.592-46.594h7.683L155.591,166.731z M285.712,141.204c0,18.216-15.738,27.634-33.829,27.634h-23.422v32.343h-6.444v-86.744
		h31.476c19.085,0,32.22,9.79,32.22,26.519V141.204z"/>
</g>
</svg>
