<?xml version="1.0" encoding="utf-8"?>
<!-- Generator: Adobe Illustrator 18.1.0, SVG Export Plug-In . SVG Version: 6.00 Build 0)  -->
<svg version="1.1" id="Layer_1" xmlns="http://www.w3.org/2000/svg" xmlns:xlink="http://www.w3.org/1999/xlink" x="0px" y="0px"
	 viewBox="18 -46 260 160" enable-background="new 18 -46 260 160" xml:space="preserve">
<g>
	<path fill="#FFFFFF" d="M131.6,27.6L131.6,27.6c0,5.2-4.3,8.5-10.7,8.5h-9.4V19.3h9.7C127.4,19.3,131.6,22.2,131.6,27.6z
		 M162.1,51.3c-33.7,35.9-122,63.1-135.3,30.1c-8-19.8-7.4-40.9-0.1-59.3v29.2h2.6V35.2h22v16.1h2.6V17h-2.6v15.9h-22V17h-0.3
		c8.3-17.4,22.9-31.8,42.2-39.5c41-16.5,104,3.1,104,47.3c0,8.1-4.1,16.4-10.9,24.3h-15.1V35.2h19.7v-2.4h-19.7V19.3H171V17h-24.4
		v34.4H162.1z M97.3,17h-3L81.4,35.4L68.5,17h-3.2l14.7,20.8v13.6h2.6V37.7L97.3,17z M134.1,27.5c0-6.6-5.2-10.5-12.8-10.5h-12.5
		v34.4h2.6V38.5h9.3C127.9,38.5,134.1,34.8,134.1,27.5L134.1,27.5z"/>
	<g>
		<path fill="#FFFFFF" d="M195.6,26.4c0-0.1,0.1-0.2,0.1-0.3c0-0.1,0.1-0.2,0.1-0.2l4.6-8.1c0-0.1,0.1-0.1,0.1-0.1c0,0,0.1,0,0.2,0
			h0.6v11.7h-0.7v-10c0-0.1,0-0.3,0-0.5l-4.6,8.2c-0.1,0.1-0.2,0.2-0.3,0.2h-0.1c-0.1,0-0.2-0.1-0.3-0.2l-4.7-8.2c0,0.2,0,0.3,0,0.5
			v10h-0.7V17.6h0.6c0.1,0,0.1,0,0.2,0s0.1,0.1,0.1,0.1l4.7,8.1C195.5,26.1,195.6,26.2,195.6,26.4z"/>
		<path fill="#FFFFFF" d="M207.5,21c0.6,0,1.1,0.1,1.6,0.3c0.5,0.2,0.9,0.5,1.2,0.9s0.6,0.8,0.7,1.3s0.3,1.1,0.3,1.7
			c0,0.6-0.1,1.2-0.3,1.7s-0.4,1-0.7,1.3s-0.7,0.7-1.2,0.9c-0.5,0.2-1,0.3-1.6,0.3c-0.6,0-1.1-0.1-1.6-0.3c-0.5-0.2-0.9-0.5-1.2-0.9
			s-0.6-0.8-0.7-1.3s-0.3-1.1-0.3-1.7c0-0.6,0.1-1.2,0.3-1.7s0.4-1,0.7-1.3s0.7-0.7,1.2-0.9C206.4,21.1,207,21,207.5,21z
			 M207.5,28.8c0.5,0,0.9-0.1,1.3-0.3s0.7-0.4,0.9-0.7c0.2-0.3,0.4-0.7,0.5-1.1s0.2-0.9,0.2-1.5c0-0.5-0.1-1-0.2-1.5
			c-0.1-0.4-0.3-0.8-0.5-1.1s-0.6-0.6-0.9-0.7c-0.4-0.2-0.8-0.3-1.3-0.3s-0.9,0.1-1.3,0.3c-0.4,0.2-0.7,0.4-0.9,0.7
			s-0.4,0.7-0.6,1.1c-0.1,0.4-0.2,0.9-0.2,1.5c0,0.6,0.1,1,0.2,1.5s0.3,0.8,0.6,1.1c0.2,0.3,0.6,0.6,0.9,0.7S207.1,28.8,207.5,28.8z
			"/>
		<path fill="#FFFFFF" d="M213.4,29.3v-8.2h0.4c0.1,0,0.2,0.1,0.2,0.2l0.1,1.2c0.4-0.5,0.8-0.9,1.3-1.1c0.5-0.3,1.1-0.4,1.7-0.4
			c0.5,0,0.8,0.1,1.2,0.2c0.3,0.1,0.6,0.3,0.9,0.6c0.2,0.3,0.4,0.6,0.5,1c0.1,0.4,0.2,0.8,0.2,1.3v5.3H219v-5.3
			c0-0.8-0.2-1.4-0.5-1.8c-0.4-0.4-0.9-0.7-1.6-0.7c-0.5,0-1,0.1-1.5,0.4s-0.9,0.7-1.2,1.1v6.2H213.4z"/>
		<path fill="#FFFFFF" d="M225.4,21c0.5,0,0.9,0.1,1.3,0.2c0.4,0.2,0.7,0.4,1,0.7s0.5,0.7,0.7,1.1c0.2,0.4,0.2,1,0.2,1.5
			c0,0.1,0,0.2-0.1,0.2c0,0-0.1,0.1-0.2,0.1h-5.9V25c0,0.6,0.1,1.2,0.2,1.6c0.1,0.5,0.3,0.9,0.6,1.2s0.6,0.6,1,0.7
			c0.4,0.2,0.8,0.2,1.3,0.2c0.4,0,0.8,0,1.1-0.1c0.3-0.1,0.6-0.2,0.8-0.3c0.2-0.1,0.4-0.2,0.5-0.3c0.1-0.1,0.2-0.1,0.3-0.1
			c0.1,0,0.1,0,0.2,0.1l0.2,0.3c-0.1,0.2-0.3,0.3-0.5,0.5s-0.5,0.3-0.7,0.4c-0.3,0.1-0.6,0.2-0.9,0.2s-0.6,0.1-0.9,0.1
			c-0.6,0-1.1-0.1-1.5-0.3c-0.5-0.2-0.9-0.5-1.2-0.9c-0.3-0.4-0.6-0.8-0.8-1.4c-0.2-0.5-0.3-1.2-0.3-1.9c0-0.6,0.1-1.1,0.3-1.6
			c0.2-0.5,0.4-0.9,0.7-1.3c0.3-0.4,0.7-0.6,1.2-0.8C224.3,21.1,224.8,21,225.4,21z M225.4,21.6c-0.4,0-0.8,0.1-1.1,0.2
			c-0.3,0.1-0.6,0.3-0.9,0.6c-0.2,0.2-0.4,0.5-0.6,0.9c-0.2,0.3-0.3,0.7-0.3,1.2h5.4c0-0.4-0.1-0.8-0.2-1.2
			c-0.1-0.4-0.3-0.6-0.5-0.9s-0.5-0.4-0.8-0.6C226.1,21.6,225.8,21.6,225.4,21.6z"/>
		<path fill="#FFFFFF" d="M232.4,32c0,0.1-0.1,0.1-0.1,0.2c-0.1,0-0.1,0.1-0.2,0.1h-0.6l1.4-3.2l-3.5-7.9h0.7c0.1,0,0.1,0,0.2,0.1
			c0,0,0.1,0.1,0.1,0.1l2.8,6.4c0,0.1,0.1,0.2,0.1,0.3c0,0.1,0,0.2,0.1,0.3c0-0.1,0.1-0.2,0.1-0.3c0-0.1,0.1-0.2,0.1-0.3l2.7-6.4
			c0-0.1,0.1-0.1,0.1-0.1s0.1-0.1,0.2-0.1h0.6L232.4,32z"/>
		<path fill="#FFFFFF" d="M191.6,37.7c0,0.2,0,0.3-0.1,0.5c-0.1,0.2-0.2,0.3-0.3,0.4c-0.1,0.1-0.3,0.2-0.4,0.3
			c-0.2,0.1-0.3,0.1-0.5,0.1c-0.2,0-0.3,0-0.5-0.1c-0.2-0.1-0.3-0.2-0.4-0.3c-0.1-0.1-0.2-0.3-0.3-0.4c-0.1-0.2-0.1-0.3-0.1-0.5
			c0-0.2,0-0.4,0.1-0.5c0.1-0.2,0.2-0.3,0.3-0.4c0.1-0.1,0.3-0.2,0.4-0.3c0.2-0.1,0.3-0.1,0.5-0.1c0.2,0,0.4,0,0.5,0.1
			c0.2,0.1,0.3,0.2,0.4,0.3c0.1,0.1,0.2,0.3,0.3,0.4C191.6,37.3,191.6,37.5,191.6,37.7z M191.3,40.1v8.5h-2v-8.5H191.3z"/>
		<path fill="#FFFFFF" d="M198.7,41.8c-0.1,0.1-0.1,0.1-0.2,0.2c-0.1,0-0.1,0.1-0.2,0.1c-0.1,0-0.2,0-0.3-0.1
			c-0.1-0.1-0.2-0.1-0.4-0.2c-0.1-0.1-0.3-0.1-0.5-0.2c-0.2-0.1-0.4-0.1-0.7-0.1c-0.4,0-0.7,0.1-1,0.3c-0.2,0.2-0.3,0.4-0.3,0.7
			c0,0.2,0.1,0.3,0.2,0.5c0.1,0.1,0.3,0.2,0.5,0.3c0.2,0.1,0.4,0.2,0.7,0.3c0.2,0.1,0.5,0.2,0.8,0.2s0.5,0.2,0.8,0.3
			c0.2,0.1,0.5,0.3,0.7,0.4c0.2,0.2,0.4,0.4,0.5,0.6s0.2,0.5,0.2,0.9c0,0.4-0.1,0.8-0.2,1.1c-0.1,0.3-0.4,0.6-0.7,0.9
			c-0.3,0.3-0.6,0.4-1.1,0.6c-0.4,0.1-0.9,0.2-1.4,0.2c-0.3,0-0.6,0-0.9-0.1s-0.5-0.1-0.8-0.2c-0.3-0.1-0.5-0.2-0.7-0.3
			c-0.2-0.1-0.4-0.3-0.6-0.4l0.5-0.8c0.1-0.1,0.1-0.2,0.2-0.2c0.1,0,0.2-0.1,0.3-0.1s0.2,0,0.4,0.1c0.1,0.1,0.2,0.1,0.4,0.2
			c0.1,0.1,0.3,0.2,0.5,0.2s0.5,0.1,0.8,0.1c0.2,0,0.5,0,0.6-0.1s0.3-0.1,0.4-0.2c0.1-0.1,0.2-0.2,0.2-0.3c0.1-0.1,0.1-0.3,0.1-0.4
			c0-0.2-0.1-0.4-0.2-0.5s-0.3-0.2-0.5-0.3c-0.2-0.1-0.4-0.2-0.7-0.3c-0.3-0.1-0.5-0.2-0.8-0.2s-0.5-0.2-0.8-0.3
			c-0.2-0.1-0.5-0.3-0.7-0.5s-0.4-0.4-0.5-0.7c-0.1-0.3-0.2-0.6-0.2-1c0-0.3,0.1-0.7,0.2-1c0.1-0.3,0.3-0.6,0.6-0.8
			c0.3-0.2,0.6-0.4,1-0.6s0.9-0.2,1.4-0.2c0.6,0,1.1,0.1,1.6,0.3c0.5,0.2,0.9,0.4,1.2,0.8L198.7,41.8z"/>
		<path fill="#FFFFFF" d="M206.2,40.1v8.8c0,0.4,0,0.7-0.1,1c-0.1,0.3-0.2,0.6-0.5,0.9c-0.2,0.2-0.5,0.4-0.8,0.6
			c-0.3,0.1-0.8,0.2-1.3,0.2c-0.2,0-0.4,0-0.5,0c-0.2,0-0.3-0.1-0.5-0.1l0.1-1.1c0-0.1,0.1-0.2,0.1-0.2c0.1,0,0.2,0,0.4,0
			c0.2,0,0.4,0,0.5-0.1s0.3-0.1,0.3-0.2c0.1-0.1,0.1-0.2,0.2-0.4s0.1-0.3,0.1-0.6v-8.8H206.2z M206.5,37.7c0,0.2,0,0.3-0.1,0.5
			c-0.1,0.2-0.2,0.3-0.3,0.4c-0.1,0.1-0.3,0.2-0.4,0.3c-0.2,0.1-0.3,0.1-0.5,0.1c-0.2,0-0.3,0-0.5-0.1c-0.2-0.1-0.3-0.2-0.4-0.3
			c-0.1-0.1-0.2-0.3-0.3-0.4c-0.1-0.2-0.1-0.3-0.1-0.5c0-0.2,0-0.4,0.1-0.5c0.1-0.2,0.2-0.3,0.3-0.4c0.1-0.1,0.3-0.2,0.4-0.3
			c0.2-0.1,0.3-0.1,0.5-0.1c0.2,0,0.4,0,0.5,0.1c0.2,0.1,0.3,0.2,0.4,0.3c0.1,0.1,0.2,0.3,0.3,0.4C206.5,37.3,206.5,37.5,206.5,37.7
			z"/>
		<path fill="#FFFFFF" d="M210.3,40.1v5.4c0,0.5,0.1,0.9,0.4,1.2c0.2,0.3,0.6,0.4,1.1,0.4c0.4,0,0.7-0.1,1-0.2
			c0.3-0.2,0.6-0.4,0.9-0.6v-6.1h2v8.5h-1.2c-0.3,0-0.4-0.1-0.5-0.4l-0.1-0.7c-0.2,0.2-0.4,0.3-0.5,0.5c-0.2,0.1-0.4,0.3-0.6,0.4
			c-0.2,0.1-0.4,0.2-0.7,0.2c-0.2,0.1-0.5,0.1-0.8,0.1c-0.5,0-0.9-0.1-1.2-0.2c-0.4-0.2-0.7-0.4-0.9-0.7c-0.2-0.3-0.4-0.6-0.5-1
			c-0.1-0.4-0.2-0.8-0.2-1.3v-5.4H210.3z"/>
		<path fill="#FFFFFF" d="M222.9,41.8c-0.1,0.1-0.1,0.1-0.2,0.2c-0.1,0-0.1,0.1-0.2,0.1c-0.1,0-0.2,0-0.3-0.1
			c-0.1-0.1-0.2-0.1-0.4-0.2c-0.1-0.1-0.3-0.1-0.5-0.2c-0.2-0.1-0.4-0.1-0.7-0.1c-0.4,0-0.7,0.1-1,0.3c-0.2,0.2-0.3,0.4-0.3,0.7
			c0,0.2,0.1,0.3,0.2,0.5c0.1,0.1,0.3,0.2,0.5,0.3c0.2,0.1,0.4,0.2,0.7,0.3c0.2,0.1,0.5,0.2,0.8,0.2s0.5,0.2,0.8,0.3
			c0.2,0.1,0.5,0.3,0.7,0.4c0.2,0.2,0.4,0.4,0.5,0.6s0.2,0.5,0.2,0.9c0,0.4-0.1,0.8-0.2,1.1c-0.1,0.3-0.4,0.6-0.7,0.9
			c-0.3,0.3-0.6,0.4-1.1,0.6c-0.4,0.1-0.9,0.2-1.4,0.2c-0.3,0-0.6,0-0.9-0.1s-0.5-0.1-0.8-0.2c-0.3-0.1-0.5-0.2-0.7-0.3
			c-0.2-0.1-0.4-0.3-0.6-0.4l0.5-0.8c0.1-0.1,0.1-0.2,0.2-0.2c0.1,0,0.2-0.1,0.3-0.1s0.2,0,0.4,0.1c0.1,0.1,0.2,0.1,0.4,0.2
			c0.1,0.1,0.3,0.2,0.5,0.2s0.5,0.1,0.8,0.1c0.2,0,0.5,0,0.6-0.1s0.3-0.1,0.4-0.2c0.1-0.1,0.2-0.2,0.2-0.3c0.1-0.1,0.1-0.3,0.1-0.4
			c0-0.2-0.1-0.4-0.2-0.5s-0.3-0.2-0.5-0.3c-0.2-0.1-0.4-0.2-0.7-0.3c-0.3-0.1-0.5-0.2-0.8-0.2s-0.5-0.2-0.8-0.3
			c-0.2-0.1-0.5-0.3-0.7-0.5s-0.4-0.4-0.5-0.7c-0.1-0.3-0.2-0.6-0.2-1c0-0.3,0.1-0.7,0.2-1c0.1-0.3,0.3-0.6,0.6-0.8
			c0.3-0.2,0.6-0.4,1-0.6s0.9-0.2,1.4-0.2c0.6,0,1.1,0.1,1.6,0.3c0.5,0.2,0.9,0.4,1.2,0.8L222.9,41.8z"/>
		<path fill="#FFFFFF" d="M227.9,48.7c-0.7,0-1.3-0.2-1.7-0.6s-0.6-1-0.6-1.7v-4.7h-0.9c-0.1,0-0.2,0-0.3-0.1
			c-0.1-0.1-0.1-0.2-0.1-0.3v-0.8l1.4-0.2l0.4-2.3c0-0.1,0.1-0.2,0.2-0.3s0.2-0.1,0.3-0.1h1.1v2.7h2.2v1.5h-2.2v4.6
			c0,0.3,0.1,0.5,0.2,0.6c0.1,0.1,0.3,0.2,0.5,0.2c0.1,0,0.2,0,0.3,0c0.1,0,0.2-0.1,0.2-0.1s0.1-0.1,0.2-0.1c0,0,0.1,0,0.1,0
			c0.1,0,0.1,0,0.1,0c0,0,0.1,0.1,0.1,0.1l0.6,1c-0.3,0.2-0.6,0.4-1,0.6C228.7,48.7,228.3,48.7,227.9,48.7z"/>
		<path fill="#FFFFFF" d="M241.3,48.6h-0.9c-0.2,0-0.3,0-0.5-0.1c-0.1-0.1-0.2-0.2-0.2-0.4l-0.2-0.6c-0.2,0.2-0.4,0.4-0.6,0.5
			c-0.2,0.1-0.4,0.3-0.6,0.4c-0.2,0.1-0.5,0.2-0.7,0.2s-0.5,0.1-0.8,0.1c-0.4,0-0.7,0-1-0.1s-0.6-0.2-0.8-0.4
			c-0.2-0.2-0.4-0.4-0.5-0.7s-0.2-0.6-0.2-1c0-0.3,0.1-0.6,0.3-0.9s0.4-0.6,0.8-0.8c0.4-0.3,0.9-0.5,1.6-0.6
			c0.6-0.2,1.5-0.2,2.4-0.2v-0.5c0-0.6-0.1-1-0.4-1.3c-0.2-0.3-0.6-0.4-1-0.4c-0.3,0-0.6,0-0.8,0.1c-0.2,0.1-0.4,0.2-0.6,0.3
			c-0.2,0.1-0.3,0.2-0.5,0.3s-0.3,0.1-0.5,0.1c-0.1,0-0.3,0-0.4-0.1c-0.1-0.1-0.2-0.2-0.2-0.3l-0.4-0.7c1-0.9,2.2-1.3,3.5-1.3
			c0.5,0,0.9,0.1,1.3,0.2c0.4,0.2,0.7,0.4,1,0.7s0.5,0.6,0.6,1s0.2,0.8,0.2,1.3V48.6z M237.3,47.3c0.2,0,0.4,0,0.6-0.1
			c0.2,0,0.3-0.1,0.5-0.2c0.2-0.1,0.3-0.2,0.5-0.3c0.1-0.1,0.3-0.2,0.4-0.4V45c-0.6,0-1.1,0-1.5,0.1c-0.4,0.1-0.7,0.2-1,0.3
			c-0.2,0.1-0.4,0.3-0.5,0.4s-0.2,0.3-0.2,0.5c0,0.4,0.1,0.6,0.3,0.8S237,47.3,237.3,47.3z"/>
		<path fill="#FFFFFF" d="M249.3,48.7c-0.7,0-1.3-0.2-1.7-0.6s-0.6-1-0.6-1.7v-4.7h-0.9c-0.1,0-0.2,0-0.3-0.1
			c-0.1-0.1-0.1-0.2-0.1-0.3v-0.8l1.4-0.2l0.4-2.3c0-0.1,0.1-0.2,0.2-0.3s0.2-0.1,0.3-0.1h1.1v2.7h2.2v1.5H249v4.6
			c0,0.3,0.1,0.5,0.2,0.6c0.1,0.1,0.3,0.2,0.5,0.2c0.1,0,0.2,0,0.3,0c0.1,0,0.2-0.1,0.2-0.1s0.1-0.1,0.2-0.1c0,0,0.1,0,0.1,0
			c0.1,0,0.1,0,0.1,0c0,0,0.1,0.1,0.1,0.1l0.6,1c-0.3,0.2-0.6,0.4-1,0.6C250.1,48.7,249.7,48.7,249.3,48.7z"/>
		<path fill="#FFFFFF" d="M256.5,40c0.6,0,1.2,0.1,1.7,0.3c0.5,0.2,1,0.5,1.3,0.9c0.4,0.4,0.6,0.8,0.8,1.4s0.3,1.1,0.3,1.8
			c0,0.7-0.1,1.3-0.3,1.8c-0.2,0.5-0.5,1-0.8,1.4s-0.8,0.7-1.3,0.9c-0.5,0.2-1.1,0.3-1.7,0.3c-0.6,0-1.2-0.1-1.7-0.3
			c-0.5-0.2-1-0.5-1.3-0.9s-0.6-0.8-0.9-1.4c-0.2-0.5-0.3-1.1-0.3-1.8c0-0.7,0.1-1.3,0.3-1.8s0.5-1,0.9-1.4c0.4-0.4,0.8-0.7,1.3-0.9
			C255.3,40.1,255.9,40,256.5,40z M256.5,47.2c0.7,0,1.2-0.2,1.6-0.7s0.5-1.2,0.5-2.1c0-0.9-0.2-1.6-0.5-2.1
			c-0.3-0.5-0.9-0.7-1.6-0.7c-0.7,0-1.2,0.2-1.6,0.7c-0.3,0.5-0.5,1.2-0.5,2.1c0,0.9,0.2,1.6,0.5,2.1
			C255.3,46.9,255.8,47.2,256.5,47.2z"/>
		<path fill="#FFFFFF" d="M265.9,40c0.6,0,1.2,0.1,1.7,0.3c0.5,0.2,1,0.5,1.3,0.9c0.4,0.4,0.6,0.8,0.8,1.4s0.3,1.1,0.3,1.8
			c0,0.7-0.1,1.3-0.3,1.8c-0.2,0.5-0.5,1-0.8,1.4s-0.8,0.7-1.3,0.9c-0.5,0.2-1.1,0.3-1.7,0.3c-0.6,0-1.2-0.1-1.7-0.3
			c-0.5-0.2-1-0.5-1.3-0.9s-0.6-0.8-0.9-1.4c-0.2-0.5-0.3-1.1-0.3-1.8c0-0.7,0.1-1.3,0.3-1.8s0.5-1,0.9-1.4c0.4-0.4,0.8-0.7,1.3-0.9
			C264.7,40.1,265.3,40,265.9,40z M265.9,47.2c0.7,0,1.2-0.2,1.6-0.7s0.5-1.2,0.5-2.1c0-0.9-0.2-1.6-0.5-2.1
			c-0.3-0.5-0.9-0.7-1.6-0.7c-0.7,0-1.2,0.2-1.6,0.7c-0.3,0.5-0.5,1.2-0.5,2.1c0,0.9,0.2,1.6,0.5,2.1
			C264.7,46.9,265.2,47.2,265.9,47.2z"/>
		<path fill="#FFFFFF" d="M273.9,36.3v12.3h-2V36.3H273.9z"/>
	</g>
</g>
</svg>
