<?xml version="1.0" encoding="utf-8"?>
<!-- Generator: Adobe Illustrator 18.1.0, SVG Export Plug-In . SVG Version: 6.00 Build 0)  -->
<svg version="1.1" xmlns="http://www.w3.org/2000/svg" xmlns:xlink="http://www.w3.org/1999/xlink" x="0px" y="0px"
	 viewBox="0 0 557.4 347.3" enable-background="new 0 0 557.4 347.3" xml:space="preserve">
<g id="Livello_2">
</g>
<g id="Livello_3">
	<g>
		<g>
			<path fill="#FFFFFF" d="M216.6,164v0.1c0,7.7-6.5,12.8-16.2,12.8h-14.3v-25.5h14.7C210.2,151.5,216.6,155.8,216.6,164z
				 M262.8,199.9c-51,54.5-184.8,95.6-205,45.6c-12.1-30-11.3-62-0.2-89.9v44.3h3.9v-24.4h33.3v24.4h3.9v-52h-3.9V172H61.5v-24.1H61
				C73.7,121.6,95.8,99.8,125,88c62-24.9,157.5,4.7,157.5,71.6c0,12.3-6.2,24.8-16.5,36.8h-22.8v-20.9H273v-3.6h-29.8v-20.4h33.2
				v-3.6h-37v52H262.8z M164.7,147.9h-4.6l-19.5,27.9l-19.5-27.9h-4.8l22.3,31.4v20.6h3.9v-20.7L164.7,147.9z M220.4,163.8
				c0-10-7.9-15.9-19.3-15.9h-18.9v52h3.9v-19.4h14c10.9,0,20.3-5.6,20.3-16.6V163.8z"/>
		</g>
		<g>
			<path fill="#FFFFFF" d="M302,152.3h1.9v14.5c2.6-8.9,10.4-15.6,21-15.6c13.2,0,22.7,10.9,22.7,24.4v0.2
				c0,13.6-9.5,24.4-22.7,24.4c-10.5,0-18.3-6.7-21-15.6V214H302V152.3z M345.5,175.9v-0.2c0-12.4-8.3-22.6-20.8-22.6
				c-12.3,0-21,10.4-21,22.5v0.2c0,12.1,8.7,22.5,21,22.5C337.2,198.3,345.5,188.4,345.5,175.9z"/>
			<path fill="#FFFFFF" d="M370.9,130.8h1.9v68.3h-1.9V130.8z"/>
			<path fill="#FFFFFF" d="M398.3,178.8v-26.5h1.9v26.3c0,11.7,5.9,19.7,17.3,19.7c10.1,0,18.1-8.9,18.1-20.1v-25.9h1.9v46.8h-1.9
				v-12.8c-1.5,5.7-7.4,13.9-18.2,13.9C405.1,200.2,398.3,191.7,398.3,178.8z"/>
			<path fill="#FFFFFF" d="M458.9,193l1.2-1.6c5,4.3,11.3,6.6,17.2,6.6c8.2,0,14.3-4.3,14.3-10.4v-0.2c0-7.2-7.5-9.3-14.9-11.4
				c-9.3-2.7-15.9-5.1-15.9-12.5v-0.2c0-6.5,6.3-11.9,15.8-11.9c5.1,0,11,1.8,15.8,5.2l-1.1,1.7c-4.4-3.3-9.9-5.1-14.7-5.1
				c-8.3,0-13.8,4.4-13.8,9.9v0.2c0,6.2,6.5,8.5,14.4,10.8c9,2.5,16.3,5.1,16.3,13.2v0.2c0,7.3-7,12.3-16.4,12.3
				C470.9,199.9,464,197.4,458.9,193z"/>
		</g>
	</g>
</g>
</svg>
