<?xml version="1.0" encoding="UTF-8" standalone="no"?>
<svg width="60px" height="60px" viewBox="0 0 60 60" version="1.1" xmlns="http://www.w3.org/2000/svg" xmlns:xlink="http://www.w3.org/1999/xlink" xmlns:sketch="http://www.bohemiancoding.com/sketch/ns">
    <!-- Generator: Sketch 3.1.1 (8761) - http://www.bohemiancoding.com/sketch -->
    <title>add-small</title>
    <desc>Created with Sketch.</desc>
    <defs></defs>
    <g id="Page-1" stroke="none" stroke-width="1" fill="none" fill-rule="evenodd" sketch:type="MSPage">
        <g id="add-small" sketch:type="MSArtboardGroup" fill="#090C1F">
            <path d="M30,49.9555 C18.997,49.9555 10.045,41.0035 10.045,30.0005 C10.045,18.9965 18.997,10.0445 30,10.0445 C41.003,10.0445 49.955,18.9965 49.955,30.0005 C49.955,41.0035 41.003,49.9555 30,49.9555 L30,49.9555 Z M30,13.0445 C20.651,13.0445 13.045,20.6505 13.045,30.0005 C13.045,39.3495 20.651,46.9555 30,46.9555 C39.348,46.9555 46.955,39.3495 46.955,30.0005 C46.955,20.6505 39.348,13.0445 30,13.0445 L30,13.0445 Z" id="Fill-1" sketch:type="MSShapeGroup"></path>
            <path d="M28.5,23.8935 L31.5,23.8935 L31.5,36.2415 L28.5,36.2415 L28.5,23.8935 Z" id="Fill-2" sketch:type="MSShapeGroup"></path>
            <path d="M23.827,28.5005 L36.174,28.5005 L36.174,31.5005 L23.827,31.5005 L23.827,28.5005 Z" id="Fill-3" sketch:type="MSShapeGroup"></path>
        </g>
    </g>
</svg>