<?xml version="1.0" encoding="UTF-8" standalone="no"?>
<svg width="60px" height="60px" viewBox="0 0 60 60" version="1.1" xmlns="http://www.w3.org/2000/svg" xmlns:xlink="http://www.w3.org/1999/xlink" xmlns:sketch="http://www.bohemiancoding.com/sketch/ns">
    <!-- Generator: Sketch 3.1.1 (8761) - http://www.bohemiancoding.com/sketch -->
    <title>add</title>
    <desc>Created with Sketch.</desc>
    <defs></defs>
    <g id="Page-1" stroke="none" stroke-width="1" fill="none" fill-rule="evenodd" sketch:type="MSPage">
        <g id="add" sketch:type="MSArtboardGroup" fill="#090C1F">
            <path d="M30.65375,52.5913846 C18.1123791,52.5913846 7.952375,42.5494014 7.952375,30.1720769 C7.952375,17.7950384 18.1120909,7.75412821 30.65375,7.75412821 C43.1954091,7.75412821 53.355125,17.7950384 53.355125,30.1720769 C53.355125,42.5494014 43.1951209,52.5913846 30.65375,52.5913846 Z M30.65375,4.75412821 C16.4630844,4.75412821 4.952375,16.1302336 4.952375,30.1720769 C4.952375,44.2141527 16.4633206,55.5913846 30.65375,55.5913846 C44.8441794,55.5913846 56.355125,44.2141527 56.355125,30.1720769 C56.355125,16.1302336 44.8444156,4.75412821 30.65375,4.75412821 Z" id="Stroke-3" sketch:type="MSShapeGroup"></path>
            <path d="M29,39.6304348 L29,41.1304348 L32,41.1304348 L32,39.6304348 L32,20.5 L32,19 L29,19 L29,20.5 L29,39.6304348 Z" id="Line-2" sketch:type="MSShapeGroup"></path>
            <path d="M20.9347826,28.5 L19.4347826,28.5 L19.4347826,31.5 L20.9347826,31.5 L40.0652174,31.5 L41.5652174,31.5 L41.5652174,28.5 L40.0652174,28.5 L20.9347826,28.5 Z" id="Line-3" sketch:type="MSShapeGroup"></path>
        </g>
    </g>
</svg>