<?xml version="1.0" encoding="UTF-8" standalone="no"?>
<svg width="60px" height="60px" viewBox="0 0 60 60" version="1.1" xmlns="http://www.w3.org/2000/svg" xmlns:xlink="http://www.w3.org/1999/xlink" xmlns:sketch="http://www.bohemiancoding.com/sketch/ns">
    <!-- Generator: Sketch 3.1.1 (8761) - http://www.bohemiancoding.com/sketch -->
    <title>address_book</title>
    <desc>Created with Sketch.</desc>
    <defs></defs>
    <g id="Page-1" stroke="none" stroke-width="1" fill="none" fill-rule="evenodd" sketch:type="MSPage">
        <g id="address_book" sketch:type="MSArtboardGroup">
            <path d="M22.719,33.811 C30.3948659,33.811 36.596,39.7862281 36.596,47.128 L39.596,47.128 C39.596,38.1039528 32.0273218,30.811 22.719,30.811 C13.4100091,30.811 5.842,38.1036357 5.842,47.128 L8.842,47.128 C8.842,39.7858796 15.0424939,33.811 22.719,33.811 Z M22.719,30.811 C18.5653515,30.811 15.209,27.5153736 15.209,23.464 C15.209,19.4117543 18.5652197,16.116 22.719,16.116 C26.8727803,16.116 30.229,19.4117543 30.229,23.464 C30.229,27.5153736 26.8726485,30.811 22.719,30.811 Z M22.719,13.116 C16.9204506,13.116 12.209,17.7425694 12.209,23.464 C12.209,29.184612 16.9206338,33.811 22.719,33.811 C28.5173662,33.811 33.229,29.184612 33.229,23.464 C33.229,17.7425694 28.5175494,13.116 22.719,13.116 Z" id="Imported-Layers-2" fill="#101220" sketch:type="MSShapeGroup"></path>
            <path d="M54.158,15.872 L54.158,12.872 L35.158,12.872 L35.158,15.872 L54.158,15.872 Z" id="Stroke-1" fill="#090C1F" sketch:type="MSShapeGroup"></path>
            <path d="M53.922,23.871 L53.922,20.871 L39.719,20.871 L39.719,23.871 L53.922,23.871 Z" id="Stroke-1" fill="#090C1F" sketch:type="MSShapeGroup"></path>
            <path d="M53.922,31.87 L53.922,28.87 L39.719,28.87 L39.719,31.87 L53.922,31.87 Z" id="Stroke-1" fill="#090C1F" sketch:type="MSShapeGroup"></path>
        </g>
    </g>
</svg>