<?xml version="1.0" encoding="UTF-8" standalone="no"?>
<svg width="60px" height="60px" viewBox="0 0 60 60" version="1.1" xmlns="http://www.w3.org/2000/svg" xmlns:xlink="http://www.w3.org/1999/xlink" xmlns:sketch="http://www.bohemiancoding.com/sketch/ns">
    <!-- Generator: Sketch 3.1.1 (8761) - http://www.bohemiancoding.com/sketch -->
    <title>atm</title>
    <desc>Created with Sketch.</desc>
    <defs></defs>
    <g id="Page-1" stroke="none" stroke-width="1" fill="none" fill-rule="evenodd" sketch:type="MSPage">
        <g id="atm" sketch:type="MSArtboardGroup" fill="#090630">
            <g id="Imported-Layers-3" sketch:type="MSLayerGroup" transform="translate(9.000000, 14.000000)">
                <path d="M0.0360854271,0.107843137 L42.9641307,0.107843137 L42.9641307,3.27131373 L0.0360854271,3.27131373 L0.0360854271,0.107843137 Z" id="Fill-1" sketch:type="MSShapeGroup"></path>
                <path d="M33.4505628,5.72992157 L33.4505628,29.7718235 L8.86039698,29.7718235 L8.86039698,5.72992157 L5.69136181,5.72992157 L5.69136181,32.9352941 L36.6338593,32.9352941 L36.6338593,5.72992157 L33.4505628,5.72992157" id="Fill-2" sketch:type="MSShapeGroup"></path>
                <path d="M29.1574774,5.72992157 C29.1574774,5.7875098 29.1719548,5.84509804 29.1719548,5.91713725 C29.1719548,10.3169216 25.5850201,13.9117647 21.1625025,13.9117647 C16.740201,13.8975294 13.1532663,10.3169216 13.1532663,5.90268627 C13.1532663,5.84509804 13.1677437,5.77327451 13.1677437,5.71568627 L11.5687487,5.71568627 C11.5687487,5.77327451 11.5542714,5.83064706 11.5542714,5.90268627 C11.5542714,11.1798824 15.861402,15.4791569 21.1482412,15.4791569 C26.4350804,15.4791569 30.7422111,11.1798824 30.7422111,5.90268627 C30.7422111,5.84509804 30.7279497,5.77327451 30.7279497,5.71568627 L29.1574774,5.71568627 L29.1574774,5.72992157" id="Fill-3" sketch:type="MSShapeGroup"></path>
                <path d="M11.4678392,24.4661569 L11.4678392,22.8843137 C13.859201,22.8843137 15.8039246,24.8254902 15.8039246,27.2122745 L14.219191,27.2122745 C14.2049296,25.6882353 12.980402,24.4661569 11.4678392,24.4661569" id="Fill-4" sketch:type="MSShapeGroup"></path>
                <path d="M26.8959799,26.8242549 C26.8959799,24.4372549 28.8407035,22.4960784 31.2318492,22.4960784 L31.2318492,24.0777059 C29.7192864,24.0777059 28.4807136,25.3 28.4807136,26.8242549 L26.8959799,26.8242549" id="Fill-5" sketch:type="MSShapeGroup"></path>
            </g>
        </g>
    </g>
</svg>