<?xml version="1.0" encoding="UTF-8" standalone="no"?>
<svg width="60px" height="60px" viewBox="0 0 60 60" version="1.1" xmlns="http://www.w3.org/2000/svg" xmlns:xlink="http://www.w3.org/1999/xlink" xmlns:sketch="http://www.bohemiancoding.com/sketch/ns">
    <!-- Generator: Sketch 3.1.1 (8761) - http://www.bohemiancoding.com/sketch -->
    <title>cards</title>
    <desc>Created with Sketch.</desc>
    <defs></defs>
    <g id="Page-1" stroke="none" stroke-width="1" fill="none" fill-rule="evenodd" sketch:type="MSPage">
        <g id="cards" sketch:type="MSArtboardGroup" fill="#0B0B0A">
            <path d="M53.6265,14.4575 L12.9945,14.4575 L12.9945,21.0655 L6.3735,21.0655 L6.3735,45.5425 L47.0065,45.5425 L47.0065,38.9345 L53.6265,38.9345 L53.6265,14.4575 L53.6265,14.4575 Z M9.3735,23.608 L12.9945,23.608 L12.9945,27.24 L9.3735,27.24 L9.3735,23.608 Z M44.0065,42.085 L9.3735,42.085 L9.3735,31.801 L12.9945,31.801 L12.9945,38.477 L44.0065,38.477 L44.0065,42.085 L44.0065,42.085 Z M15.9945,25.193 L50.6265,25.193 L50.6265,35.477 L15.9945,35.477 L15.9945,25.193 Z M50.6265,20.631 L47.0065,20.631 L47.0065,20.608 L15.9945,20.608 L15.9945,17 L50.6265,17 L50.6265,20.631 L50.6265,20.631 Z" id="Imported-Layers" sketch:type="MSShapeGroup"></path>
        </g>
    </g>
</svg>