<?xml version="1.0" encoding="UTF-8" standalone="no"?>
<svg width="95px" height="95px" viewBox="0 0 95 95" version="1.1" xmlns="http://www.w3.org/2000/svg" xmlns:xlink="http://www.w3.org/1999/xlink" xmlns:sketch="http://www.bohemiancoding.com/sketch/ns">
    <!-- Generator: Sketch 3.2 (9961) - http://www.bohemiancoding.com/sketch -->
    <title>close</title>
    <desc>Created with Sketch.</desc>
    <defs></defs>
    <g id="Page-1" stroke="none" stroke-width="1" fill="none" fill-rule="evenodd" sketch:type="MSPage">
        <g id="close" sketch:type="MSArtboardGroup" fill="#090C1F">
            <path d="M47.5,86 C37.2,86 27.6,82 20.3,74.7 C13,67.4 9,57.8 9,47.5 C9,37.2 13,27.6 20.3,20.3 C27.6,13 37.2,9 47.5,9 C57.8,9 67.4,13 74.7,20.3 C82,27.6 86,37.2 86,47.5 C86,57.8 82,67.4 74.7,74.7 C67.4,82 57.8,86 47.5,86 L47.5,86 L47.5,86 Z M47.5,12 C38,12 29.1,15.7 22.4,22.4 C15.7,29.1 12,38 12,47.5 C12,57 15.7,65.9 22.4,72.6 C29.1,79.3 38,83 47.5,83 C57,83 65.9,79.3 72.6,72.6 C79.3,65.9 83,57 83,47.5 C83,38 79.3,29.1 72.6,22.4 C65.9,15.7 57,12 47.5,12 L47.5,12 L47.5,12 Z" id="Shape" sketch:type="MSShapeGroup"></path>
            <path d="M49.695,47.58198 L57.30333,39.97365 L55.18203,37.85235 L47.5737,45.46068 L39.86847,37.75545 L37.74717,39.87675 L45.4524,47.58198 L37.71666,55.31772 L39.83796,57.43902 L47.5737,49.70328 L55.21254,57.34212 L57.33384,55.22082 L49.695,47.58198 L49.695,47.58198 Z" id="Rectangle-path" sketch:type="MSShapeGroup"></path>
        </g>
    </g>
</svg>