<?xml version="1.0" encoding="UTF-8" standalone="no"?>
<svg width="60px" height="60px" viewBox="0 0 60 60" version="1.1" xmlns="http://www.w3.org/2000/svg" xmlns:xlink="http://www.w3.org/1999/xlink" xmlns:sketch="http://www.bohemiancoding.com/sketch/ns">
    <!-- Generator: Sketch 3.1.1 (8761) - http://www.bohemiancoding.com/sketch -->
    <title>close-small</title>
    <desc>Created with Sketch.</desc>
    <defs></defs>
    <g id="Page-1" stroke="none" stroke-width="1" fill="none" fill-rule="evenodd" sketch:type="MSPage">
        <g id="close-small" sketch:type="MSArtboardGroup" fill="#090C1F">
            <path d="M30,49.9555 C18.996,49.9555 10.045,41.0035 10.045,30.0005 C10.045,18.9965 18.996,10.0445 30,10.0445 C41.003,10.0445 49.955,18.9965 49.955,30.0005 C49.955,41.0035 41.003,49.9555 30,49.9555 L30,49.9555 Z M30,13.0445 C20.651,13.0445 13.045,20.6515 13.045,30.0005 C13.045,39.3495 20.651,46.9555 30,46.9555 C39.349,46.9555 46.955,39.3495 46.955,30.0005 C46.955,20.6515 39.349,13.0445 30,13.0445 L30,13.0445 Z" id="Fill-1" sketch:type="MSShapeGroup"></path>
            <path d="M26.031,36.0435 L23.91,33.9225 L33.876,23.9575 L35.997,26.0785 L26.031,36.0435" id="Fill-2" sketch:type="MSShapeGroup"></path>
            <path d="M33.932,35.9895 L23.965,26.0245 L26.086,23.9035 L36.054,33.8675 L33.932,35.9895" id="Fill-3" sketch:type="MSShapeGroup"></path>
        </g>
    </g>
</svg>