<?xml version="1.0" encoding="UTF-8" standalone="no"?>
<svg width="60px" height="60px" viewBox="0 0 60 60" version="1.1" xmlns="http://www.w3.org/2000/svg" xmlns:xlink="http://www.w3.org/1999/xlink" xmlns:sketch="http://www.bohemiancoding.com/sketch/ns">
    <!-- Generator: Sketch 3.1.1 (8761) - http://www.bohemiancoding.com/sketch -->
    <title>dashboard</title>
    <desc>Created with Sketch.</desc>
    <defs></defs>
    <g id="Page-1" stroke="none" stroke-width="1" fill="none" fill-rule="evenodd" sketch:type="MSPage">
        <g id="dashboard" sketch:type="MSArtboardGroup" fill="#0A0B09">
            <path d="M45.3458481,30.0433918 L44.9235,29 L44.9235,48.143 L46.4235,46.643 L33.9715,46.643 L35.4714871,48.1367792 L35.4234871,36.5627792 L35.4172921,35.069 L33.9235,35.069 L26.0275,35.069 L24.5275,35.069 L24.5275,36.569 L24.5275,48.143 L26.0275,46.643 L13.5765,46.643 L15.0765,48.143 L15.0765,27.932 L14.6314354,28.9983543 L30.8804354,12.9233543 L28.7478481,12.9003918 L45.3458481,30.0433918 Z M29.8484638,9.72428913 L28.7705646,10.7906457 L12.5215646,26.8656457 L12.0765,27.3059445 L12.0765,27.932 L12.0765,48.143 L12.0765,49.643 L13.5765,49.643 L26.0275,49.643 L27.5275,49.643 L27.5275,48.143 L27.5275,36.569 L26.0275,38.069 L33.9235,38.069 L32.4235129,36.5752208 L32.4715129,48.1492208 L32.4777079,49.643 L33.9715,49.643 L46.4235,49.643 L47.9235,49.643 L47.9235,48.143 L47.9235,29 L47.9235,28.3928243 L47.5011519,27.9566082 L30.9031519,10.8136082 L29.8484638,9.72428913 Z" id="Imported-Layers" sketch:type="MSShapeGroup"></path>
        </g>
    </g>
</svg>