<?xml version="1.0" encoding="utf-8"?>
<!-- Generator: Adobe Illustrator 19.1.0, SVG Export Plug-In . SVG Version: 6.00 Build 0)  -->
<svg version="1.1" id="Livello_1" xmlns="http://www.w3.org/2000/svg" xmlns:xlink="http://www.w3.org/1999/xlink" x="0px" y="0px"
	 viewBox="0 0 300 300" enable-background="new 0 0 300 300" xml:space="preserve">
<path id="Facebook_4_" d="M110.3,58.1c0,7.6,0,41.3,0,41.3H80v50.5h30.3V300h62.2V149.9h41.7c0,0,3.9-24.2,5.8-50.7
	c-5.4,0-47.3,0-47.3,0s0-29.4,0-34.5c0-5.2,6.8-12.1,13.5-12.1c6.7,0,20.8,0,33.9,0c0-6.9,0-30.6,0-52.6c-17.4,0-37.3,0-46,0
	C108.7,0,110.3,50.6,110.3,58.1z"/>
</svg>
