<?xml version="1.0" encoding="utf-8"?>
<!-- Generator: Adobe Illustrator 19.1.0, SVG Export Plug-In . SVG Version: 6.00 Build 0)  -->
<svg version="1.1" id="Livello_1" xmlns="http://www.w3.org/2000/svg" xmlns:xlink="http://www.w3.org/1999/xlink" x="0px" y="0px"
	 viewBox="0 0 300 300" enable-background="new 0 0 300 300" xml:space="preserve">
<g>
	<path d="M61.2,150.5c0.9,7,1.9,13.9,2.8,20.9c2.4,16.9,2.9,33.9-0.5,50.7c-1.9,9.6-5.1,18.8-9.4,27.7c-1.1,2.3-2.5,4.1-5.3,4.3
		c-4.1,0.4-7.2-2.7-6.5-6.8c0.2-1.4,0.9-2.7,1.5-4c8.7-18.6,11.5-38.3,9.5-58.6c-1-9.9-2.8-19.7-3.4-29.6
		c-2.8-49.8,31.8-94,80.8-103.5c13.6-2.6,27.1-2.4,40.6,0.3c1.4,0.3,2.8,0.6,4.2,1.1c3,1.2,4.4,3.9,3.7,7c-0.6,2.8-2.8,4.6-6,4.4
		c-2.9-0.2-5.7-0.9-8.5-1.4C117.9,54.9,73,85.7,63.6,132.2C62.4,138.2,62,144.3,61.2,150.5z"/>
	<path d="M184.4,188.1c0,3,0.1,6.1,0,9.1c-0.1,4.6-2.4,7-6.2,6.9c-3.6-0.1-5.5-2.5-5.8-6.8c-0.9-12.6-1.8-25.3-2.9-37.9
		c-0.5-4.9-1.5-9.9-2.8-14.6c-2.1-7.4-8.6-12.1-16.1-12.2c-7.8-0.1-14.8,4.3-16.9,11.7c-1,3.3-0.9,7-0.6,10.4
		c0.8,8.5,2.3,16.9,3,25.3c3.2,37.4-3.8,72.8-20.5,106.4c-0.5,1-1,2-1.7,2.9c-1.9,2.4-4.7,2.9-7.3,1.6c-2.8-1.5-3.9-4.3-2.9-7.3
		c0.4-1.2,1-2.4,1.6-3.5c14.6-29.6,21.2-60.8,19.1-93.7c-0.7-10.2-1.6-20.5-3.5-30.6c-2.9-15.5,7.2-34.5,28.4-35.3
		c14.7-0.6,26.8,9.4,29.8,23.7C182,158.7,183.7,173.3,184.4,188.1z"/>
	<path d="M277,167.9c-0.1,4-2.5,6.8-5.7,7c-3.3,0.2-6-2.4-6.4-6.4c-1-9.1-1.9-18.2-2.9-27.3c-2.6-22.5-10.1-43-24.4-60.7
		c-18.2-22.5-41.6-36.3-70.2-41c-19.5-3.2-38.7-1.1-57.2,6c-1.5,0.6-3,1.2-4.5,1.7c-3.1,0.9-6-0.4-7.3-3c-1.3-2.9-0.3-6.1,2.7-7.8
		c1.4-0.8,2.9-1.3,4.4-1.9c72.1-27.7,151.5,16.4,166.3,92.3c1.6,8,2.6,16.1,3.6,24.2C276.1,156.7,276.5,162.5,277,167.9z"/>
	<path d="M77.7,195.4c0.1-11.9-2-23.6-3.7-35.4c-5.3-38.5,19.2-75,57.3-84.2c29.7-7.2,55.1,1.2,76,23.2c1.4,1.5,2.8,3.2,3.8,4.9
		c1.4,2.4,0.8,5.2-1.2,7c-2,1.9-5.3,2.1-7.5,0.4c-1-0.8-1.8-1.8-2.7-2.8c-14.8-17.1-33.6-25-56-23c-29.5,2.7-51.4,24.5-57,50.9
		c-1.8,8.6-1.9,17.2-0.2,25.8c3.1,16,4,32.1,2.3,48.4c-0.1,0.6-0.1,1.3-0.2,1.9c-0.6,3.4-3.2,5.6-6.4,5.3c-3.2-0.3-5.5-2.7-5.4-6.2
		C77,206.3,77.4,200.8,77.7,195.4z"/>
	<path d="M208,197c0.1,30.6-5.2,60.3-14.7,89.3c-0.4,1.2-0.8,2.5-1.5,3.5c-1.5,2.5-4.4,3.5-7.1,2.6c-2.4-0.8-4.1-3.2-3.9-6
		c0.1-1.3,0.5-2.5,0.9-3.7c6.9-21.1,11.6-42.7,13.3-64.8c1.3-17.3,1-34.6-1.1-51.9c-0.9-7.6-2-15.3-3.5-22.8
		c-3.4-17.1-13.6-28.3-30.5-33c-6.8-1.9-13.6-1.8-20.4,0.1c-1.5,0.4-3.1,1-4.6,1.2c-3.3,0.5-6-1-6.9-3.8c-1-3.1,0.3-6.4,3.6-7.4
		c4.6-1.4,9.3-2.7,14-3.1c26.5-2.3,52.3,15.4,57.3,46.2C205.7,159.2,207.9,180.2,208,197z"/>
	<path d="M254.7,199.7c0,18.5-1.3,36.9-4.4,55.1c-0.2,0.9-0.3,1.9-0.7,2.8c-1.2,3-4,4.6-6.8,4c-2.9-0.6-5-3.3-4.8-6.4
		c0.2-2.5,0.7-5.1,1.1-7.6c3.3-21,4.2-42.1,3.2-63.3c-0.8-16.3-2.4-32.6-5.3-48.7c-4.8-26.4-18.6-46.7-41.3-61
		c-1.2-0.8-2.5-1.4-3.7-2.3c-2.8-2-3.5-5.4-1.9-8c1.7-2.8,4.7-3.6,8-2.2c1.2,0.5,2.3,1.2,3.3,1.9c26.8,16.6,42.6,40.5,47.9,71.6
		C252.9,156.8,254.6,178.2,254.7,199.7z"/>
	<path d="M297.5,143.4c0,0.9,0.1,2.4-0.2,3.8c-0.6,2.9-3,4.7-5.9,4.7c-2.7,0-4.9-1.6-5.7-4.3c-0.4-1.5-0.5-3.2-0.6-4.8
		c-2.7-60-46.6-112-105.4-124.9c-3-0.7-6-1.1-8.9-1.8c-3.4-0.8-5.4-3.6-4.9-6.6c0.5-3.2,3-5.5,6.6-4.9c6.9,1.2,14,2.3,20.6,4.5
		c56.2,18.9,90.2,57.6,102.3,115.7c0.5,2.4,0.8,4.7,1.1,7.1C296.9,135.5,297.1,139.2,297.5,143.4z"/>
	<path d="M25.7,227c0.2-0.7,0.5-2.1,1-3.4c4.1-10.9,4.8-22.2,3.5-33.7c-1-9.4-2.7-18.7-3.6-28.2c-3.1-34.5,6.6-65,28.6-91.6
		c6.5-7.8,13.9-14.6,22.2-20.6c1-0.7,2.1-1.5,3.2-2.1c2.7-1.2,5.6-0.4,7.3,1.8c1.7,2.3,1.6,5.3-0.4,7.5c-0.7,0.8-1.7,1.4-2.6,2.1
		C58.2,78.6,42.8,105,38.8,138c-1.6,12.8-0.1,25.6,2.1,38.3c2.2,13.2,3.2,26.5,0.5,39.7c-0.9,4.7-2.5,9.3-4.2,13.8
		c-1.1,2.9-4,4.3-6.6,3.7C27.8,232.9,25.8,230.6,25.7,227z"/>
	<path d="M113.9,113.1c5.3,0,8.1,4.8,5.7,8.9c-0.7,1.2-1.7,2.3-2.6,3.5c-6.7,9.4-9.5,19.8-7.6,31.4c3.5,20.8,4.5,41.8,2.2,62.8
		c-2.3,21-8.9,40.6-18.6,59.3c-2,3.8-5.2,4.9-8.3,3.4c-3.3-1.7-4.2-5-2.3-9c0.4-0.9,0.9-1.7,1.3-2.6c5.5-11.1,10-22.6,12.8-34.6
		c3.8-16,5.1-32.3,4-48.7c-0.6-9.6-2-19.1-3.1-28.7c-1.9-15.5,1.4-29.6,11.2-42C110.2,114.7,111.8,113,113.9,113.1z"/>
	<path d="M143.9,2.7c1.8,0,3.5-0.2,5.3,0c2.9,0.3,4.9,2.6,5.1,5.5c0.2,3.2-1.7,5.6-4.9,6.1c-2.9,0.4-5.8,0.5-8.6,0.7
		c-30,2-56.3,13-79.1,32.4c-13.5,11.5-24.2,25.2-32.3,41c-0.6,1.1-1.1,2.3-1.9,3.4c-1.8,2.4-4.8,3.1-7.3,1.9c-2.8-1.3-4-4.2-3.1-7.2
		c0.4-1.4,1.1-2.7,1.8-3.9C41.3,41,75.4,15.1,121.5,5.4c3.1-0.7,6.3-1.3,9.5-1.7c4.3-0.5,8.6-0.8,12.9-1.2
		C143.9,2.6,143.9,2.6,143.9,2.7z"/>
	<path d="M231.6,197.7c0,26.3-3.9,52.1-10.2,77.5c-0.3,1.1-0.6,2.2-1.1,3.2c-1.3,2.6-4.3,3.8-6.9,3c-2.8-0.9-4.6-3.2-4.4-6.1
		c0.1-1.7,0.7-3.5,1.1-5.2c8.4-33.3,11.2-66.9,7.7-101.1c-1.4-13.2-2.8-26.4-6.4-39.3c-1-3.7,0.5-6.6,3.7-7.7
		c3.4-1.2,6.7,0.3,7.8,4.3c1.7,6.3,3.1,12.8,4.2,19.2c1.3,7.7,2.3,15.6,2.9,23.4C230.8,178.5,231.1,188.1,231.6,197.7z"/>
	<path d="M161.2,196.9c-0.1,16.9-2.2,33.6-6.1,50c-0.2,0.9-0.4,1.9-0.7,2.8c-1.3,3.5-4.2,5.1-7.5,4.2c-3-0.8-4.8-3.8-4.1-7.2
		c0.9-4.9,2.2-9.7,3.1-14.6c3.5-19.1,3.9-38.2,1.9-57.5c-0.8-7.6-2.3-15.2-3.4-22.8c-0.7-5.1,2.5-8.6,7-7.6c2.8,0.6,4.3,2.6,4.8,5.4
		c1.3,7.7,2.8,15.5,3.6,23.3C160.5,180.9,160.7,188.9,161.2,196.9z"/>
	<path d="M20.2,110.9c-0.2,0.6-0.4,1.7-0.7,2.8c-6.9,25.9-6.6,51.6,1.4,77.3c0.3,0.9,0.6,1.8,0.7,2.8c0.5,3.2-1.1,5.7-4.1,6.7
		c-2.6,0.9-5.4-0.1-7-2.8c-0.5-0.8-0.8-1.8-1.1-2.7c-8.9-28.1-9.2-56.4-1.6-84.8c0.3-1.1,0.7-2.2,1.2-3.1c1.4-2.4,4.1-3.4,6.6-2.7
		C18.5,105.2,20.2,107.5,20.2,110.9z"/>
	<path d="M183.3,223c-1.8,9.1-3.3,18.3-5.3,27.4c-3.1,13.8-7.2,27.3-12.3,40.5c-0.5,1.3-1,2.7-1.8,3.9c-1.6,2.5-4.6,3.4-7.2,2.3
		c-2.6-1-4.2-3.7-3.6-6.6c0.3-1.4,0.9-2.7,1.4-4.1c7.6-20.4,13.2-41.2,16.1-62.8c0.1-0.8,0.3-1.6,0.4-2.4c0.9-3.7,3.6-5.9,6.8-5.4
		C181.2,216.4,183.1,219,183.3,223z"/>
	<path d="M67.6,270.4c-4.7,0-7.5-3.3-6.8-7.1c0.2-1.1,0.8-2.1,1.2-3.1c3.4-8.4,6.7-16.9,10.1-25.3c0.4-0.9,0.6-1.9,1-2.7
		c1.4-2.4,4.1-3.5,6.5-2.9c2.8,0.7,4.6,3.1,4.6,6c0,0.9-0.2,1.9-0.5,2.8c-3.7,9.3-7.4,18.7-11.2,28
		C71.4,268.7,69.5,270.3,67.6,270.4z"/>
	<path d="M266,207.5c0-4.8-0.1-9.6,0-14.4c0.1-4.4,2.7-6.8,6.6-6.5c3.3,0.3,5.5,2.6,5.5,6.6c0.1,7.7-0.1,15.4-0.3,23.1
		c0,2.2-0.1,4.5-0.4,6.7c-0.4,3.4-3,5.6-6.2,5.4c-3.3-0.2-5.5-2.4-5.6-6c-0.1-5,0-9.9,0-14.9C265.7,207.5,265.8,207.5,266,207.5z"/>
	<path d="M147.5,271.3c-0.1,0.4,0,0.9-0.2,1.3c-2.8,7-5.5,14-8.6,20.8c-1.4,3.1-4.9,3.9-7.8,2.5c-2.7-1.4-4.1-4.2-3-7.3
		c2.6-6.9,5.4-13.7,8.4-20.4c1.2-2.8,4.2-3.9,6.8-3.1C146,265.9,147.6,268.2,147.5,271.3z"/>
</g>
</svg>
