<?xml version="1.0" encoding="UTF-8" standalone="no"?>
<svg width="61px" height="60px" viewBox="0 0 61 60" version="1.1" xmlns="http://www.w3.org/2000/svg" xmlns:xlink="http://www.w3.org/1999/xlink" xmlns:sketch="http://www.bohemiancoding.com/sketch/ns">
    <!-- Generator: Sketch 3.1.1 (8761) - http://www.bohemiancoding.com/sketch -->
    <title>gas</title>
    <desc>Created with Sketch.</desc>
    <defs></defs>
    <g id="Page-1" stroke="none" stroke-width="1" fill="none" fill-rule="evenodd" sketch:type="MSPage">
        <g id="gas" sketch:type="MSArtboardGroup" transform="translate(1.000000, 0.000000)" fill="#090630">
            <g id="Imported-Layers-3" sketch:type="MSLayerGroup" transform="translate(14.000000, 11.000000)">
                <path d="M30.906375,36.0573433 L30.906375,0.0970149254 L5.53125,0.0970149254 L5.53125,5.01237313 L-0.09375,5.01237313 L-0.09375,24.1049104 L5.53125,26.7245075 L5.53125,36.0573433 L3.65625,36.0573433 L3.65625,38.9029851 L32.781375,38.9029851 L32.781375,36.0573433 L30.906375,36.0573433 L30.906375,36.0573433 Z M2.7811875,22.2292239 L2.7811875,7.85820896 L5.53125,7.85820896 L5.53125,23.5220448 L2.7811875,22.2292239 L2.7811875,22.2292239 Z M8.4061875,3.07207463 L28.03125,3.07207463 L28.03125,36.0573433 L8.4061875,36.0573433 L8.4061875,3.07207463 Z" id="Fill-1" sketch:type="MSShapeGroup"></path>
                <path d="M10.1311875,19.7588358 L26.031375,19.7588358 L26.031375,5.42643284 L10.1311875,5.42643284 L10.1311875,19.7588358 Z M12.9436875,8.3368806 L23.218875,8.3368806 L23.218875,16.8483881 L12.9436875,16.8483881 L12.9436875,8.3368806 Z" id="Fill-2" sketch:type="MSShapeGroup"></path>
            </g>
        </g>
    </g>
</svg>