<?xml version="1.0" encoding="utf-8"?>
<!-- Generator: Adobe Illustrator 18.1.1, SVG Export Plug-In . SVG Version: 6.00 Build 0)  -->
<svg version="1.1" id="Livello_1" xmlns="http://www.w3.org/2000/svg" xmlns:xlink="http://www.w3.org/1999/xlink" x="0px" y="0px"
	 viewBox="0 0 300 300" enable-background="new 0 0 300 300" xml:space="preserve">
<g>
	<path fill="#3DB8DE" d="M255.2,44.6C227.1,16.5,189.7,1,149.8,1C110,1,72.6,16.5,44.5,44.6C16.3,72.8,0.8,110.2,0.8,150
		c0,39.8,15.5,77.2,43.6,105.4C72.6,283.5,110,299,149.9,299c82.2,0,149-66.8,149-149C298.9,110.2,283.4,72.8,255.2,44.6z
		 M149.9,281L149.9,281c-35.5,0-69-12.8-94.1-38c-25.1-25.1-39-58-39-93.6c0-35.5,13.8-68.7,39-93.8c25.1-25.1,58.5-38.8,94.1-38.8
		c35.5,0,68.9,13.9,94.1,39s39,57.6,39,93.1C282.9,222.3,223.2,281,149.9,281z"/>
	<polygon fill="#3DB8DE" points="149.6,116 92,173.6 101.9,183.5 149.6,135.9 197.8,184 207.7,174.1 159.5,125.9 	"/>
</g>
</svg>
