<?xml version="1.0" encoding="UTF-8" standalone="no"?>
<svg width="60px" height="60px" viewBox="0 0 60 60" version="1.1" xmlns="http://www.w3.org/2000/svg" xmlns:xlink="http://www.w3.org/1999/xlink" xmlns:sketch="http://www.bohemiancoding.com/sketch/ns">
    <!-- Generator: Sketch 3.1 (8751) - http://www.bohemiancoding.com/sketch -->
    <title>hearth</title>
    <desc>Created with Sketch.</desc>
    <defs></defs>
    <g id="Page-1" stroke="none" stroke-width="1" fill="none" fill-rule="evenodd" sketch:type="MSPage">
        <g id="hearth" sketch:type="MSArtboardGroup" fill="#090C1F">
            <path d="M37.0895,13.5095 C33.825088,13.5095 30.8061866,15.0119111 28.8212708,17.5311812 L31.1780023,17.5315278 C29.193836,15.0116847 26.1766408,13.5095 22.9115,13.5095 C17.0973925,13.5095 12.3845,18.2227532 12.3845,24.0365 C12.3845,26.0875098 12.7538233,27.7598127 13.696058,29.1078441 C14.8602242,30.7748582 17.0974368,33.3976695 20.155738,36.7515106 C20.4185375,37.0397058 20.6863977,37.3321649 20.9590219,37.6286046 C22.7033169,39.5252751 24.5707476,41.507728 26.4379897,43.4579105 C27.0913903,44.1403342 27.6981859,44.7700744 28.2429021,45.3323037 C28.5701517,45.6700745 28.8043056,45.9106076 28.929876,46.0390599 L29.9994529,47.1331832 L31.0721373,46.0421064 C31.1976879,45.9144031 31.4315816,45.6752262 31.7585258,45.338866 C32.3025308,44.7791938 32.9089511,44.1509684 33.5625102,43.4684615 C35.4302074,41.5180388 37.3024893,39.5223816 39.0576715,37.5949962 C42.7486231,33.5419203 45.4160337,30.3510867 46.6761161,28.3482959 C47.4071436,27.1880096 47.6155,25.9299891 47.6155,24.0365 C47.6155,18.2229335 42.9027878,13.5095 37.0895,13.5095 Z M44.1373858,26.7499069 C43.0043021,28.5508437 40.4086117,31.6558837 36.8395783,35.5750797 C35.1030694,37.4819598 33.247335,39.4599791 31.3957367,41.3935897 C30.7475423,42.0704945 30.1462817,42.6933745 29.6073089,43.2478696 C29.2844666,43.5800098 29.0545384,43.8151316 28.9328627,43.9388936 L31.075124,43.9419401 C30.9525883,43.8165923 30.7215433,43.5792528 30.3975143,43.244806 C29.8567663,42.6866727 29.2540447,42.0611604 28.6048882,41.3831692 C26.7505387,39.446452 24.8963777,37.4780863 23.1671873,35.5978397 C22.897383,35.3044663 22.6323782,35.0151249 22.3724781,34.7301093 C19.4006697,31.4711193 17.2213242,28.9161488 16.155298,27.3896653 C15.6291438,26.6369095 15.3845,25.5291579 15.3845,24.0365 C15.3845,19.879556 18.7542982,16.5095 22.9115,16.5095 C25.2458157,16.5095 27.3989303,17.5814809 28.8209977,19.3874722 L29.9991435,20.8836887 L31.1777292,19.3878188 C32.6005155,17.5820078 34.7555817,16.5095 37.0895,16.5095 C41.2458308,16.5095 44.6155,19.879685 44.6155,24.0365 C44.6155,25.4028331 44.4833365,26.2008139 44.1373858,26.7499069 Z" id="Imported-Layers-2" sketch:type="MSShapeGroup"></path>
        </g>
    </g>
</svg>