<?xml version="1.0" encoding="utf-8"?>
<!-- Generator: Adobe Illustrator 18.0.0, SVG Export Plug-In . SVG Version: 6.00 Build 0)  -->
<!DOCTYPE svg PUBLIC "-//W3C//DTD SVG 1.1//EN" "http://www.w3.org/Graphics/SVG/1.1/DTD/svg11.dtd">
<svg version="1.1" id="Livello_1" xmlns="http://www.w3.org/2000/svg" xmlns:xlink="http://www.w3.org/1999/xlink" x="0px" y="0px"
	 viewBox="0 0 300 300" enable-background="new 0 0 300 300" xml:space="preserve">
<g>
	<path fill="#231F20" d="M195.6,127.5h-13.7v24h13.7c9,0,14.6-5.1,14.6-12l0,0C210.2,131.7,204.2,127.5,195.6,127.5z"/>
	<path fill="#231F20" d="M243.5,183.9v-67.2h49.6v10.7h-37.7V145h33.4v10.7h-33.4v18h28.2C294,160,300,145.9,300,132.2
		c0-86-122.8-124.1-202.4-92c-37.7,15-65.9,42.8-82.2,76.6h6.8v27.8H54v-27.8h11.6v66.8H54v-28.2H22.3v28.2h-12v-54.8
		c-13.7,35.5-14.1,75.7,0.9,113.4c25.7,64.2,197.7,11.6,263.2-58.6h-30.8V183.9z M123.7,157v26.5h-12V157l-26.1-40.2h14.1l18.4,29.5
		l18.8-29.5h13.3L123.7,157z M221.7,139.4c0,15-12,22.7-26.5,22.7h-13.3v21.4h-11.6v-66.8h26.5C212.3,116.8,221.7,125.7,221.7,139.4
		L221.7,139.4z"/>
</g>
</svg>
