<?xml version="1.0" encoding="UTF-8" standalone="no"?>
<svg width="60px" height="60px" viewBox="0 0 60 60" version="1.1" xmlns="http://www.w3.org/2000/svg" xmlns:xlink="http://www.w3.org/1999/xlink" xmlns:sketch="http://www.bohemiancoding.com/sketch/ns">
    <!-- Generator: Sketch 3.1.1 (8761) - http://www.bohemiancoding.com/sketch -->
    <title>iban</title>
    <desc>Created with Sketch.</desc>
    <defs></defs>
    <g id="Page-1" stroke="none" stroke-width="1" fill="none" fill-rule="evenodd" sketch:type="MSPage">
        <g id="iban" sketch:type="MSArtboardGroup" fill="#1B2130">
            <g id="Imported-Layers" sketch:type="MSLayerGroup" transform="translate(12.000000, 19.000000)">
                <path d="M0.201531915,20.088 L36.6607021,20.088 L36.6607021,23.0709677 L0.201531915,23.0709677 L0.201531915,20.088 Z" id="Fill-1" sketch:type="MSShapeGroup"></path>
                <path d="M10.8858723,-0.15483871 L36.6614894,-0.15483871 L36.6614894,2.82812903 L10.8858723,2.82812903 L10.8858723,-0.15483871 Z" id="Fill-2" sketch:type="MSShapeGroup"></path>
                <path d="M14.924383,7.86812903 L13.1436596,8.35354839 L12.7768085,6.96541935 L15.4471064,6.13006452 L16.6476383,6.13006452 L16.6476383,15.9282581 L14.924383,15.9282581 L14.924383,7.86812903" id="Fill-3" sketch:type="MSShapeGroup"></path>
                <path d="M19.7540638,14.5796129 L23.1596383,11.7305806 C24.5168298,10.5917419 25.0104255,9.98090323 25.0104255,9.10529032 C25.0104255,8.14606452 24.319234,7.59019355 23.4139149,7.59019355 C22.5101702,7.59019355 21.8882553,8.0756129 21.1395957,9.04877419 L19.8949787,8.08954839 C20.8428085,6.79819355 21.7748936,6.06116129 23.5414468,6.06116129 C25.4772553,6.06116129 26.8061064,7.22941935 26.8061064,8.96516129 L26.8061064,8.99380645 C26.8061064,10.5228387 25.9858085,11.355871 24.2334255,12.7594839 L22.1992128,14.427871 L26.9045106,14.427871 L26.9045106,15.9282581 L19.7540638,15.9282581 L19.7540638,14.5796129" id="Fill-4" sketch:type="MSShapeGroup"></path>
                <path d="M29.388234,14.3852903 L30.6037234,13.2743226 C31.3098723,14.0941935 32.1010426,14.5525161 33.2039574,14.5525161 C34.1785532,14.5525161 34.9130426,13.9687742 34.9130426,13.0792258 L34.9130426,13.0513548 C34.9130426,12.092129 34.0234681,11.5501935 32.6379362,11.5501935 L31.8325957,11.5501935 L31.5499787,10.4802581 L34.2210638,7.68774194 L29.9385106,7.68774194 L29.9385106,6.19974194 L36.482,6.19974194 L36.482,7.47870968 L33.7266809,10.2588387 C35.224,10.4392258 36.6370851,11.1886452 36.6370851,12.9816774 L36.6370851,13.0103226 C36.6370851,14.8033548 35.2381702,16.0947097 33.1748298,16.0947097 C31.4507872,16.0947097 30.2219149,15.3870968 29.388234,14.3852903" id="Fill-5" sketch:type="MSShapeGroup"></path>
                <path d="M0.201531915,-0.15483871 L6.79068085,-0.15483871 L6.79068085,2.82812903 L0.201531915,2.82812903 L0.201531915,-0.15483871 Z" id="Fill-6" sketch:type="MSShapeGroup"></path>
                <path d="M3.32134043,5.81109677 L6.90955319,5.81109677 L6.90955319,8.79406452 L3.32134043,8.79406452 L3.32134043,5.81109677 Z" id="Fill-7" sketch:type="MSShapeGroup"></path>
            </g>
        </g>
    </g>
</svg>