<?xml version="1.0" encoding="UTF-8" standalone="no"?>
<svg width="61px" height="60px" viewBox="0 0 61 60" version="1.1" xmlns="http://www.w3.org/2000/svg" xmlns:xlink="http://www.w3.org/1999/xlink" xmlns:sketch="http://www.bohemiancoding.com/sketch/ns">
    <!-- Generator: Sketch 3.1.1 (8761) - http://www.bohemiancoding.com/sketch -->
    <title>info</title>
    <desc>Created with Sketch.</desc>
    <defs></defs>
    <g id="Page-1" stroke="none" stroke-width="1" fill="none" fill-rule="evenodd" sketch:type="MSPage">
        <g id="info" sketch:type="MSArtboardGroup" transform="translate(1.000000, 0.000000)" fill="#090C1F">
            <g id="Imported-Layers" sketch:type="MSLayerGroup" transform="translate(11.000000, 11.000000)">
                <path d="M19.455,38.414 C8.923,38.414 0.355,29.846 0.355,19.313 C0.355,8.781 8.923,0.213 19.455,0.213 C29.987,0.213 38.556,8.781 38.556,19.313 C38.556,29.846 29.987,38.414 19.455,38.414 L19.455,38.414 Z M19.455,3.213 C10.577,3.213 3.355,10.435 3.355,19.313 C3.355,28.191 10.577,35.414 19.455,35.414 C28.333,35.414 35.556,28.191 35.556,19.313 C35.556,10.435 28.333,3.213 19.455,3.213 L19.455,3.213 Z" id="Fill-1" sketch:type="MSShapeGroup"></path>
                <path d="M17.955,14.227 L20.955,14.227 L20.955,30 L17.955,30 L17.955,14.227 Z" id="Fill-2" sketch:type="MSShapeGroup"></path>
                <path d="M20.955,10.063 C20.955,10.892 20.283,11.563 19.455,11.563 C18.627,11.563 17.955,10.892 17.955,10.063 C17.955,9.235 18.627,8.563 19.455,8.563 C20.283,8.563 20.955,9.235 20.955,10.063" id="Fill-3" sketch:type="MSShapeGroup"></path>
            </g>
        </g>
    </g>
</svg>