<?xml version="1.0" encoding="UTF-8" standalone="no"?>
<svg width="61px" height="60px" viewBox="0 0 61 60" version="1.1" xmlns="http://www.w3.org/2000/svg" xmlns:xlink="http://www.w3.org/1999/xlink" xmlns:sketch="http://www.bohemiancoding.com/sketch/ns">
    <!-- Generator: Sketch 3.1.1 (8761) - http://www.bohemiancoding.com/sketch -->
    <title>lens</title>
    <desc>Created with Sketch.</desc>
    <defs></defs>
    <g id="Page-1" stroke="none" stroke-width="1" fill="none" fill-rule="evenodd" sketch:type="MSPage">
        <g id="lens" sketch:type="MSArtboardGroup" transform="translate(0.000000, 0.000000)" fill="#090C1F">
            <path d="M25.5,36.5 C19.4244271,36.5 14.5,31.5755729 14.5,25.5 C14.5,19.4250632 19.424791,14.5 25.5,14.5 C31.575209,14.5 36.5,19.4250632 36.5,25.5 C36.5,31.5755729 31.5755729,36.5 25.5,36.5 Z M25.5,11.5 C17.7678997,11.5 11.5,17.768246 11.5,25.5 C11.5,33.2324271 17.7675729,39.5 25.5,39.5 C33.2324271,39.5 39.5,33.2324271 39.5,25.5 C39.5,17.768246 33.2321003,11.5 25.5,11.5 Z M42.729286,45.1066063 L44.850714,42.9853937 L35.000714,33.1343937 L32.879286,35.2556063 L42.729286,45.1066063 Z M32.879286,35.2556063 L42.729286,45.1066063 L44.850714,42.9853937 L35.000714,33.1343937 L32.879286,35.2556063 Z" id="Imported-Layers-2" sketch:type="MSShapeGroup"></path>
        </g>
    </g>
</svg>