<?xml version="1.0" encoding="UTF-8" standalone="no"?>
<svg width="60px" height="60px" viewBox="0 0 60 60" version="1.1" xmlns="http://www.w3.org/2000/svg" xmlns:xlink="http://www.w3.org/1999/xlink" xmlns:sketch="http://www.bohemiancoding.com/sketch/ns">
    <!-- Generator: Sketch 3.1.1 (8761) - http://www.bohemiancoding.com/sketch -->
    <title>logout</title>
    <desc>Created with Sketch.</desc>
    <defs></defs>
    <g id="Page-1" stroke="none" stroke-width="1" fill="none" fill-rule="evenodd" sketch:type="MSPage">
        <g id="logout" sketch:type="MSArtboardGroup" fill="#181731">
            <g id="logout-3" sketch:type="MSLayerGroup" transform="translate(8.000000, 11.000000)">
                <g id="Group" sketch:type="MSShapeGroup">
                    <path d="M18.66,37.9243028 C8.37,37.9243028 0,29.4007968 0,18.9243028 C0,8.44780876 8.37,-0.0756972112 18.66,-0.0756972112 C23.325,-0.0756972112 27.795,1.69561753 31.245,4.89003984 L29.22,7.10039841 C26.325,4.40557769 22.575,2.92191235 18.66,2.92191235 C10.02,2.93705179 2.985,10.098008 2.985,18.9243028 C2.985,27.7354582 10.02,34.9115538 18.66,34.9115538 C22.305,34.9115538 25.845,33.6095618 28.635,31.2478088 L30.555,33.5641434 C27.225,36.3800797 22.995,37.9243028 18.66,37.9243028 L18.66,37.9243028 Z" id="Shape"></path>
                    <path d="M44.985,18.9243028 L45,18.9091633 L43.995,17.8796813 L36.105,9.6438247 L33.96,11.7330677 L39.285,17.3043825 L19.005,17.3043825 L19.005,20.3171315 L39.33,20.3171315 L33.795,25.8278884 L35.895,27.9776892 L43.95,19.9537849 L45,18.9243028 L44.985,18.9243028 Z" id="Shape"></path>
                </g>
            </g>
        </g>
    </g>
</svg>