<?xml version="1.0" encoding="UTF-8" standalone="no"?>
<svg width="60px" height="60px" viewBox="0 0 60 60" version="1.1" xmlns="http://www.w3.org/2000/svg" xmlns:xlink="http://www.w3.org/1999/xlink" xmlns:sketch="http://www.bohemiancoding.com/sketch/ns">
    <!-- Generator: Sketch 3.1.1 (8761) - http://www.bohemiancoding.com/sketch -->
    <title>marker</title>
    <desc>Created with Sketch.</desc>
    <defs></defs>
    <g id="Page-1" stroke="none" stroke-width="1" fill="none" fill-rule="evenodd" sketch:type="MSPage">
        <g id="marker" sketch:type="MSArtboardGroup" fill="#090C1F">
            <path d="M30.0005,29.115 C28.4509271,29.115 27.1955,27.8595729 27.1955,26.31 C27.1955,24.7604271 28.4509271,23.505 30.0005,23.505 C31.5494721,23.505 32.8055,24.7608263 32.8055,26.31 C32.8055,27.8591737 31.5494721,29.115 30.0005,29.115 Z M30.0005,20.505 C26.7940729,20.505 24.1955,23.1035729 24.1955,26.31 C24.1955,29.5164271 26.7940729,32.115 30.0005,32.115 C33.2062186,32.115 35.8055,29.5161357 35.8055,26.31 C35.8055,23.1038643 33.2062186,20.505 30.0005,20.505 Z M40.23061,29.5684145 C39.7247163,32.5644675 37.812075,35.8995763 34.9275641,39.293309 C33.7018686,40.7353846 32.3848176,42.0886136 31.0681073,43.3106399 C30.6079186,43.7377367 30.1814404,44.1172459 29.8000872,44.444106 C29.5748246,44.6371799 29.417234,44.7677771 29.3387031,44.8309056 L31.2215177,44.833502 C31.1365656,44.7648252 30.9687522,44.6257022 30.7300076,44.4221498 C30.3272716,44.078779 29.8772607,43.6828679 29.3919382,43.2404973 C28.0044504,41.9758046 26.6169662,40.5966972 25.3258674,39.1536887 C23.2429126,36.8256553 21.6222614,34.5645134 20.6457916,32.4898682 C19.9794718,31.0741795 19.6375,29.7917512 19.6375,28.676 L19.6375,25.862 C19.6375,20.1399271 24.2774271,15.5 30.0005,15.5 C35.722708,15.5 40.3625,20.1400622 40.3625,25.862 L40.3625,28.054 C40.3625,28.5443774 40.3182566,29.0493452 40.23061,29.5684145 Z M43.3625,25.862 C43.3625,18.4832471 37.3796013,12.5 30.0005,12.5 C22.6205729,12.5 16.6375,18.4830729 16.6375,25.862 L16.6375,28.676 C16.6375,30.2815062 17.0907992,31.9814238 17.9314193,33.7674374 C19.0507317,36.1455713 20.8299515,38.6279491 23.0901326,41.1540613 C24.4548775,42.6793809 25.9129402,44.1286407 27.3709993,45.457659 C27.8816182,45.9230872 28.35641,46.3408001 28.7836252,46.7050416 C29.0428513,46.9260566 29.2307313,47.0818154 29.3354823,47.166498 L30.2758431,47.9267024 L31.2182969,47.1690944 C31.320766,47.0867229 31.5025504,46.9360759 31.7524128,46.7219174 C32.1629346,46.3700568 32.6188314,45.9643688 33.1088927,45.5095476 C34.5071824,44.2118082 35.9051314,42.7754591 37.2134359,41.236191 C40.4163311,37.4678675 42.5747311,33.7042245 43.1887361,30.0679041 C43.3036517,29.3873396 43.3625,28.7156806 43.3625,28.054 L43.3625,25.862 Z" id="Imported-Layers-2" sketch:type="MSShapeGroup"></path>
        </g>
    </g>
</svg>