<?xml version="1.0" encoding="UTF-8" standalone="no"?>
<svg width="30px" height="30px" viewBox="0 0 30 30" version="1.1" xmlns="http://www.w3.org/2000/svg" xmlns:xlink="http://www.w3.org/1999/xlink" xmlns:sketch="http://www.bohemiancoding.com/sketch/ns">
    <!-- Generator: Sketch 3.1.1 (8761) - http://www.bohemiancoding.com/sketch -->
    <title>marker-full</title>
    <desc>Created with Sketch.</desc>
    <defs></defs>
    <g id="Page-1" stroke="none" stroke-width="1" fill="none" fill-rule="evenodd" sketch:type="MSPage">
        <g id="marker-full" sketch:type="MSArtboardGroup" fill="#696872">
            <path d="M14.9995,2.5 C9.8815,2.5 5.7325,6.65 5.7325,11.768 L5.7325,13.966 C5.7325,19.832 15.2185,27.5 15.2185,27.5 C15.2185,27.5 24.2675,20.225 24.2675,13.48 L24.2675,11.768 C24.2675,6.65 20.1185,2.5 14.9995,2.5 L14.9995,2.5 Z M15.0005,15.48 C13.1425,15.48 11.6375,13.975 11.6375,12.117 C11.6375,10.26 13.1425,8.754 15.0005,8.754 C16.8575,8.754 18.3635,10.26 18.3635,12.117 C18.3635,13.975 16.8575,15.48 15.0005,15.48 L15.0005,15.48 Z" id="Imported-Layers" sketch:type="MSShapeGroup"></path>
        </g>
    </g>
</svg>