<?xml version="1.0" encoding="UTF-8" standalone="no"?>
<svg width="60px" height="60px" viewBox="0 0 60 60" version="1.1" xmlns="http://www.w3.org/2000/svg" xmlns:xlink="http://www.w3.org/1999/xlink" xmlns:sketch="http://www.bohemiancoding.com/sketch/ns">
    <!-- Generator: Sketch 3.1.1 (8761) - http://www.bohemiancoding.com/sketch -->
    <title>notify</title>
    <desc>Created with Sketch.</desc>
    <defs></defs>
    <g id="Page-1" stroke="none" stroke-width="1" fill="none" fill-rule="evenodd" sketch:type="MSPage">
        <g id="notify" sketch:type="MSArtboardGroup" fill="#090C1F">
            <g id="Imported-Layers" sketch:type="MSLayerGroup" transform="translate(13.000000, 8.000000)">
                <path d="M19.837,39.168 C19.837,40.507 18.751,41.592 17.413,41.592 C16.074,41.592 14.988,40.507 14.988,39.168 C14.988,37.829 16.074,36.744 17.413,36.744 C18.751,36.744 19.837,37.829 19.837,39.168" id="Fill-2" sketch:type="MSShapeGroup"></path>
                <path d="M33.1712153,30.2454772 C33.0222082,29.9782539 32.901376,29.6798635 32.8105593,29.380306 C32.7572904,29.2045993 32.7280256,29.0776212 32.7193073,29.0280709 L32.742,29.288 L32.742,14.623 C32.742,6.78957288 26.3914271,0.439 18.558,0.439 L16.267,0.439 C8.43372704,0.439 2.084,6.78941869 2.084,14.623 L2.084,29.288 L2.10676743,29.0276465 C2.098029,29.0772279 2.06872169,29.2042388 2.0153985,29.3799815 C1.92449045,29.6795964 1.80357257,29.9780456 1.65449228,30.2453292 C1.30643977,30.8693469 0.917263769,31.164 0.413,31.164 L0.413,34.164 L34.413,34.164 L34.413,31.164 C33.9082765,31.164 33.5191191,30.869394 33.1712153,30.2454772 Z M34.413,31.164 L0.413,31.164 L0.413,34.164 C2.16273623,34.164 3.44568523,33.1926531 4.27450772,31.7066708 C4.72334493,30.9019579 4.96031639,30.1209468 5.06123257,29.5483535 L5.084,29.4191722 L5.084,29.288 L5.084,14.623 C5.084,8.4461998 10.0906544,3.439 16.267,3.439 L18.558,3.439 C24.7345729,3.439 29.742,8.44642712 29.742,14.623 L29.742,29.288 L29.742,29.4189551 L29.7646927,29.5479291 C29.8654544,30.1206085 30.1022599,30.9017079 30.5510347,31.7065228 C31.3796934,33.192606 32.6628485,34.164 34.413,34.164 L34.413,31.164 Z" id="Stroke-1" sketch:type="MSShapeGroup"></path>
            </g>
        </g>
    </g>
</svg>