<?xml version="1.0" encoding="UTF-8" standalone="no"?>
<svg width="60px" height="60px" viewBox="0 0 60 60" version="1.1" xmlns="http://www.w3.org/2000/svg" xmlns:xlink="http://www.w3.org/1999/xlink" xmlns:sketch="http://www.bohemiancoding.com/sketch/ns">
    <!-- Generator: Sketch 3.1.1 (8761) - http://www.bohemiancoding.com/sketch -->
    <title>pause</title>
    <desc>Created with Sketch.</desc>
    <defs></defs>
    <g id="Page-1" stroke="none" stroke-width="1" fill="none" fill-rule="evenodd" sketch:type="MSPage">
        <g id="pause" sketch:type="MSArtboardGroup" fill="#090C1F">
            <path d="M30.65375,52.5913846 C18.1123791,52.5913846 7.952375,42.5494014 7.952375,30.1720769 C7.952375,17.7950384 18.1120909,7.75412821 30.65375,7.75412821 C43.1954091,7.75412821 53.355125,17.7950384 53.355125,30.1720769 C53.355125,42.5494014 43.1951209,52.5913846 30.65375,52.5913846 Z M30.65375,4.75412821 C16.4630844,4.75412821 4.952375,16.1302336 4.952375,30.1720769 C4.952375,44.2141527 16.4633206,55.5913846 30.65375,55.5913846 C44.8441794,55.5913846 56.355125,44.2141527 56.355125,30.1720769 C56.355125,16.1302336 44.8444156,4.75412821 30.65375,4.75412821 Z" id="Stroke-2" sketch:type="MSShapeGroup"></path>
            <path d="M24,37.4475735 L24,38.9475735 L27,38.9475735 L27,37.4475735 L27,22.6046732 L27,21.1046732 L24,21.1046732 L24,22.6046732 L24,37.4475735 Z" id="Line" sketch:type="MSShapeGroup"></path>
            <path d="M34,37.3953268 L34,38.8953268 L37,38.8953268 L37,37.3953268 L37,22.5524265 L37,21.0524265 L34,21.0524265 L34,22.5524265 L34,37.3953268 Z" id="Line" sketch:type="MSShapeGroup"></path>
        </g>
    </g>
</svg>