<?xml version="1.0" encoding="UTF-8" standalone="no"?>
<svg width="61px" height="60px" viewBox="0 0 61 60" version="1.1" xmlns="http://www.w3.org/2000/svg" xmlns:xlink="http://www.w3.org/1999/xlink" xmlns:sketch="http://www.bohemiancoding.com/sketch/ns">
    <!-- Generator: Sketch 3.1.1 (8761) - http://www.bohemiancoding.com/sketch -->
    <title>phone</title>
    <desc>Created with Sketch.</desc>
    <defs></defs>
    <g id="Page-1" stroke="none" stroke-width="1" fill="none" fill-rule="evenodd" sketch:type="MSPage">
        <g id="phone" sketch:type="MSArtboardGroup" transform="translate(1.000000, 0.000000)" fill="#090C1F">
            <path d="M28.2168058,42.3758651 C26.1039713,40.4062059 23.838581,37.0843954 21.5232177,32.5170918 C18.2789958,26.1170472 17.0432978,21.4531555 17.6475955,18.3462523 C18.0144679,16.4640835 18.7959306,15.5105165 20.8336342,14.3661399 C21.6971266,13.8812015 21.9392803,13.7648183 24.9448404,12.3586561 L22.9714396,11.678549 L28.8295646,23.227749 L29.4994693,21.2060751 L25.5864693,23.1517418 L25.044869,23.4210425 L24.8415748,23.9907136 C24.4263356,25.1542974 24.972482,27.5813065 26.2429897,30.1193213 C27.5361521,32.7021226 29.1900163,34.6354217 30.3853489,35.0117627 L30.9557837,35.1913596 L31.4933096,34.9292205 C31.5945168,34.8798641 32.3059179,34.5287924 33.4491777,33.9641874 C34.1852623,33.6006428 34.1852623,33.6006428 34.7975148,33.2982032 C35.2872868,33.0562512 35.2872868,33.0562512 35.4097361,32.9957539 L33.4106613,32.3355533 L39.3309113,43.8769533 L39.9999675,41.8480929 C34.127806,44.7556717 34.7694295,44.457112 33.8545138,44.6178798 C33.5981703,44.6629242 33.3328211,44.6840667 33.0163132,44.6840667 C31.4988875,44.6840667 29.8886246,43.9341352 28.2168058,42.3758651 Z M34.3737152,47.5726099 C35.7426311,47.3320657 34.7920416,47.7743933 41.3311588,44.5365738 L42.6946282,43.861457 L42.000215,42.5077134 L36.079965,30.9663134 L35.4055888,29.6516314 L34.0808903,30.3061128 C33.9585009,30.3665806 33.9585009,30.3665806 33.4688168,30.6084891 C32.8566727,30.9108752 32.8566727,30.9108752 32.1219963,31.2737244 C30.9948828,31.8303555 30.2721464,32.1870209 30.1783168,32.2327795 L30.8358132,33.581 L31.2862775,32.1502373 C31.0907111,31.9467936 30.8824744,31.7373326 30.656691,31.4734011 C30.0807925,30.8001995 29.4801851,29.8839979 28.9255878,28.7763145 C28.3839218,27.6942617 28.0192602,26.691205 27.8304845,25.8523086 C27.7567047,25.5244401 27.71521,25.2426962 27.7039633,25.030469 C27.6989671,24.9361897 26.2543132,24.4948667 26.2543132,24.4948667 L26.9221571,25.8379916 L30.8351571,23.8923249 L32.1890516,23.219126 L31.5050618,21.870651 L25.6469368,10.321451 L24.9896396,9.02560009 L23.673536,9.64134393 C20.5633509,11.0964554 20.325707,11.2106711 19.3646369,11.7504092 C16.6085923,13.2982069 15.2525752,14.9528645 14.7028964,17.7728876 C13.9403357,21.693475 15.3278458,26.9303508 18.8473887,33.8735355 C21.3082477,38.7278448 23.759175,42.321714 26.1712298,44.5703169 C28.3595471,46.6100055 30.665786,47.6840667 33.0163132,47.6840667 C33.5000849,47.6840667 33.9379871,47.6491755 34.3737152,47.5726099 Z" id="Imported-Layers" sketch:type="MSShapeGroup"></path>
        </g>
    </g>
</svg>