<?xml version="1.0" encoding="UTF-8" standalone="no"?>
<svg width="30px" height="30px" viewBox="0 0 30 30" version="1.1" xmlns="http://www.w3.org/2000/svg" xmlns:xlink="http://www.w3.org/1999/xlink" xmlns:sketch="http://www.bohemiancoding.com/sketch/ns">
    <!-- Generator: Sketch 3.1.1 (8761) - http://www.bohemiancoding.com/sketch -->
    <title>phone-full</title>
    <desc>Created with Sketch.</desc>
    <defs></defs>
    <g id="Page-1" stroke="none" stroke-width="1" fill="none" fill-rule="evenodd" sketch:type="MSPage">
        <g id="phone-full" sketch:type="MSArtboardGroup" fill="#696872">
            <path d="M18.2966626,27.5 C16.9346626,27.5 15.5566626,26.852 14.1986626,25.575 C12.6066626,24.076 10.9476626,21.619 9.26566259,18.271 C6.88566259,13.531 5.96266259,10.013 6.44366259,7.517 C6.95866259,4.853 8.61566259,4.179 12.1686626,2.5 L16.2916626,10.706 L13.5376626,12.089 C13.4146626,12.436 13.5586626,13.766 14.4736626,15.609 C15.4076626,17.492 16.4036626,18.432 16.7616626,18.545 C16.9236626,18.465 19.5126626,17.174 19.5126626,17.174 L23.6796626,25.375 C20.3586626,27.035 19.6596626,27.5 18.2966626,27.5 L11.7876226,18.4077148" id="Imported-Layers" sketch:type="MSShapeGroup"></path>
        </g>
    </g>
</svg>