<?xml version="1.0" encoding="UTF-8" standalone="no"?>
<svg width="30px" height="30px" viewBox="0 0 30 30" version="1.1" xmlns="http://www.w3.org/2000/svg" xmlns:xlink="http://www.w3.org/1999/xlink" xmlns:sketch="http://www.bohemiancoding.com/sketch/ns">
    <!-- Generator: Sketch 3.1.1 (8761) - http://www.bohemiancoding.com/sketch -->
    <title>pin-full</title>
    <desc>Created with Sketch.</desc>
    <defs></defs>
    <g id="Page-1" stroke="none" stroke-width="1" fill="none" fill-rule="evenodd" sketch:type="MSPage">
        <g id="pin-full" sketch:type="MSArtboardGroup" fill="#696872">
            <path d="M16.5785,24.2581523 L16.5785,17.6405 C14.7305,18.4601032 13.4215,17.6405 13.4215,17.6405 L13.4215,24.2581523 C12.1963595,24.5304722 11.351,25.1099309 11.351,25.7805 C11.351,26.7125 12.984,27.4675 15,27.4675 C17.016,27.4675 18.649,26.7125 18.649,25.7805 C18.649,25.1099309 17.8036405,24.5304722 16.5785,24.2581523 Z M22.149,9.6815 C22.149,13.6305 18.948,16.8315 15.001,16.8315 C11.052,16.8315 7.851,13.6305 7.851,9.6815 C7.851,5.7345 11.052,2.5325 15.001,2.5325 C18.948,2.5325 22.149,5.7345 22.149,9.6815 Z" id="Fill-1" sketch:type="MSShapeGroup"></path>
        </g>
    </g>
</svg>