<?xml version="1.0" encoding="UTF-8" standalone="no"?>
<svg width="60px" height="60px" viewBox="0 0 60 60" version="1.1" xmlns="http://www.w3.org/2000/svg" xmlns:xlink="http://www.w3.org/1999/xlink" xmlns:sketch="http://www.bohemiancoding.com/sketch/ns">
    <!-- Generator: Sketch 3.1.1 (8761) - http://www.bohemiancoding.com/sketch -->
    <title>play</title>
    <desc>Created with Sketch.</desc>
    <defs></defs>
    <g id="Page-1" stroke="none" stroke-width="1" fill="none" fill-rule="evenodd" sketch:type="MSPage">
        <g id="play" sketch:type="MSArtboardGroup">
            <path d="M26.13825,24.5962051 L35.30675,30.1720769 L26.13825,35.7479487 L26.13825,24.5962051 M23.260375,19.5068462 L23.260375,40.8386667 L40.797125,30.1720769 L23.260375,19.5068462" id="Fill-1" fill="#141422" sketch:type="MSShapeGroup"></path>
            <path d="M30.65375,52.5913846 C18.1123791,52.5913846 7.952375,42.5494014 7.952375,30.1720769 C7.952375,17.7950384 18.1120909,7.75412821 30.65375,7.75412821 C43.1954091,7.75412821 53.355125,17.7950384 53.355125,30.1720769 C53.355125,42.5494014 43.1951209,52.5913846 30.65375,52.5913846 Z M30.65375,4.75412821 C16.4630844,4.75412821 4.952375,16.1302336 4.952375,30.1720769 C4.952375,44.2141527 16.4633206,55.5913846 30.65375,55.5913846 C44.8441794,55.5913846 56.355125,44.2141527 56.355125,30.1720769 C56.355125,16.1302336 44.8444156,4.75412821 30.65375,4.75412821 Z" id="Stroke-2" fill="#090C1F" sketch:type="MSShapeGroup"></path>
        </g>
    </g>
</svg>