<?xml version="1.0" encoding="UTF-8" standalone="no"?>
<svg width="60px" height="61px" viewBox="0 0 60 61" version="1.1" xmlns="http://www.w3.org/2000/svg" xmlns:xlink="http://www.w3.org/1999/xlink" xmlns:sketch="http://www.bohemiancoding.com/sketch/ns">
    <!-- Generator: Sketch 3.1.1 (8761) - http://www.bohemiancoding.com/sketch -->
    <title>recharge</title>
    <desc>Created with Sketch.</desc>
    <defs></defs>
    <g id="Page-1" stroke="none" stroke-width="1" fill="none" fill-rule="evenodd" sketch:type="MSPage">
        <g id="recharge" sketch:type="MSArtboardGroup" fill="#090C1F">
            <path d="M41.6329787,10.344 L41.6329787,51.8 L18.3191489,51.8 L18.3191489,10.344 L41.6329787,10.344 L41.6329787,10.344 Z M44.0265957,7 L15.9414894,7 L15,7 L15,55 C15,55 15.4308511,54.984 15.9414894,54.984 L44.0265957,54.984 C44.5531915,54.984 44.9680851,55 44.9680851,55 L44.9680851,7 L44.0265957,7 L44.0265957,7 L44.0265957,7 Z" id="Shape" sketch:type="MSShapeGroup"></path>
            <path d="M39.1276596,42.264 L20.8244681,42.264 L20.8244681,13.288 L39.1117021,13.288 L39.1117021,42.264 L39.1276596,42.264 Z M24.1595745,38.92 L35.7925532,38.92 L35.7925532,16.632 L24.1595745,16.632 L24.1595745,38.92 L24.1595745,38.92 Z" id="Shape" sketch:type="MSShapeGroup"></path>
            <path d="M29.9680851,44.872 C28.6595745,44.872 27.5904255,45.944 27.5904255,47.256 C27.5904255,48.568 28.6595745,49.64 29.9680851,49.64 C31.2765957,49.64 32.3457447,48.568 32.3457447,47.256 C32.3457447,45.928 31.2765957,44.872 29.9680851,44.872 L29.9680851,44.872 Z" id="Shape" sketch:type="MSShapeGroup"></path>
        </g>
    </g>
</svg>