<?xml version="1.0" encoding="UTF-8" standalone="no"?>
<svg width="61px" height="60px" viewBox="0 0 61 60" version="1.1" xmlns="http://www.w3.org/2000/svg" xmlns:xlink="http://www.w3.org/1999/xlink" xmlns:sketch="http://www.bohemiancoding.com/sketch/ns">
    <!-- Generator: Sketch 3.1.1 (8761) - http://www.bohemiancoding.com/sketch -->
    <title>refresh</title>
    <desc>Created with Sketch.</desc>
    <defs></defs>
    <g id="Page-1" stroke="none" stroke-width="1" fill="none" fill-rule="evenodd" sketch:type="MSPage">
        <g id="refresh" sketch:type="MSArtboardGroup" transform="translate(1.000000, 0.000000)" fill="#090C1F">
            <path d="M29.3321123,22.6799466 L30.4780589,23.6478342 L32.4138342,21.3559411 L31.2678877,20.3880534 L23.3518877,13.7020534 L22.2059411,12.7341658 L20.2701658,15.0260589 L21.4161123,15.9939466 L29.3321123,22.6799466 Z M21.2381851,13.8799565 L20.2701416,15.0257714 L22.5617714,16.9618584 L23.5298149,15.8160435 L30.2168149,7.90104349 L31.1848584,6.75522859 L28.8932286,4.8191416 L27.9251851,5.96495651 L21.2381851,13.8799565 Z" id="Stroke-1" sketch:type="MSShapeGroup"></path>
            <path d="M43.8449538,25.6511335 C47.0815218,33.9328323 42.991975,43.2706683 34.7099188,46.5079333 C26.4273887,49.7444687 17.0904091,45.6551732 13.8530667,37.3729188 L11.0589333,38.4650812 C14.8994323,48.2904209 25.9762055,53.1416899 35.8019473,49.302119 C45.6272541,45.461633 50.4787795,34.3839386 46.6390986,24.5590004 C42.7984082,14.7342562 31.7204718,9.88243622 21.8950527,13.721881 L22.9869473,16.516119 C31.2693021,13.2796521 40.6075034,17.3695178 43.8449538,25.6511335 Z" id="Stroke-2" sketch:type="MSShapeGroup"></path>
        </g>
    </g>
</svg>