<?xml version="1.0" encoding="UTF-8" standalone="no"?>
<svg width="60px" height="60px" viewBox="0 0 60 60" version="1.1" xmlns="http://www.w3.org/2000/svg" xmlns:xlink="http://www.w3.org/1999/xlink" xmlns:sketch="http://www.bohemiancoding.com/sketch/ns">
    <!-- Generator: Sketch 3.1.1 (8761) - http://www.bohemiancoding.com/sketch -->
    <title>request-money</title>
    <desc>Created with Sketch.</desc>
    <defs></defs>
    <g id="Page-1" stroke="none" stroke-width="1" fill="none" fill-rule="evenodd" sketch:type="MSPage">
        <g id="request-money" sketch:type="MSArtboardGroup" fill="#0B0B0A">
            <g id="Imported-Layers-2" sketch:type="MSLayerGroup" transform="translate(15.000000, 10.000000)">
                <path d="M31.032,10.632 L27.823,10.632 L27.823,37.753 L3.008,37.753 L3.008,10.632 L-0.2,10.632 L-0.2,40.741 L31.032,40.741 L31.032,10.632" id="Fill-1" sketch:type="MSShapeGroup"></path>
                <path d="M14.055,3.95 L16.778,3.95 L16.778,6.324 L14.055,6.324 L14.055,3.95 Z" id="Fill-2" sketch:type="MSShapeGroup"></path>
                <path d="M14.055,0.234 L16.778,0.234 L16.778,2.607 L14.055,2.607 L14.055,0.234 Z" id="Fill-3" sketch:type="MSShapeGroup"></path>
                <path d="M15.617,32 L17.266,30.214 L17.46,30 L17.458,30 L23.849,22.826 L21.963,20.84 L17,26.181 L17,9 L14,9 L14,26.299 L8.536,21.211 L6.699,23.409 L13.605,30 L15.617,32" id="Fill-4" sketch:type="MSShapeGroup"></path>
            </g>
        </g>
    </g>
</svg>