<?xml version="1.0" encoding="UTF-8" standalone="no"?>
<svg width="60px" height="60px" viewBox="0 0 60 60" version="1.1" xmlns="http://www.w3.org/2000/svg" xmlns:xlink="http://www.w3.org/1999/xlink" xmlns:sketch="http://www.bohemiancoding.com/sketch/ns">
    <!-- Generator: Sketch 3.1.1 (8761) - http://www.bohemiancoding.com/sketch -->
    <title>save-small</title>
    <desc>Created with Sketch.</desc>
    <defs></defs>
    <g id="Page-1" stroke="none" stroke-width="1" fill="none" fill-rule="evenodd" sketch:type="MSPage">
        <g id="save-small" sketch:type="MSArtboardGroup" fill="#090C1F">
            <path d="M30,49.9555 C18.997,49.9555 10.045,41.0035 10.045,30.0005 C10.045,18.9965 18.997,10.0445 30,10.0445 C41.003,10.0445 49.955,18.9965 49.955,30.0005 C49.955,41.0035 41.003,49.9555 30,49.9555 L30,49.9555 Z M30,13.0445 C20.651,13.0445 13.045,20.6505 13.045,30.0005 C13.045,39.3495 20.651,46.9555 30,46.9555 C39.348,46.9555 46.955,39.3495 46.955,30.0005 C46.955,20.6505 39.348,13.0445 30,13.0445 L30,13.0445 Z" id="Fill-2" sketch:type="MSShapeGroup"></path>
            <path d="M26.9356763,35.4426109 L27.9963365,36.5032711 L29.0569966,35.4426109 L37.8208981,26.6787094 L35.6995778,24.5573891 L26.9356763,33.3212906 L29.0569966,33.3212906 L24.3004222,28.5647162 L22.1791019,30.6860365 L26.9356763,35.4426109 Z" id="Path-165" sketch:type="MSShapeGroup"></path>
        </g>
    </g>
</svg>