<?xml version="1.0" encoding="UTF-8" standalone="no"?>
<svg width="60px" height="60px" viewBox="0 0 60 60" version="1.1" xmlns="http://www.w3.org/2000/svg" xmlns:xlink="http://www.w3.org/1999/xlink" xmlns:sketch="http://www.bohemiancoding.com/sketch/ns">
    <!-- Generator: Sketch 3.1.1 (8761) - http://www.bohemiancoding.com/sketch -->
    <title>save</title>
    <desc>Created with Sketch.</desc>
    <defs></defs>
    <g id="Page-1" stroke="none" stroke-width="1" fill="none" fill-rule="evenodd" sketch:type="MSPage">
        <g id="save" sketch:type="MSArtboardGroup" fill="#090C1F">
            <path d="M28.6865,11.1605 L31.6865,11.1605 L31.6865,37.6065 L28.6865,37.6065 L28.6865,11.1605 Z" id="Fill-2" sketch:type="MSShapeGroup"></path>
            <path d="M34.7755,11.2405 C43.2095,13.4125 49.1005,21.0195 49.1005,29.7385 C49.1005,40.2715 40.5315,48.8395 29.9995,48.8395 C19.4675,48.8395 10.8995,40.2715 10.8995,29.7385 C10.8995,20.8605 16.9235,13.2205 25.5475,11.1605 L25.4815,14.2805 C18.6225,16.2725 13.8995,22.5195 13.8995,29.7385 C13.8995,38.6165 21.1215,45.8395 29.9995,45.8395 C38.8775,45.8395 46.1005,38.6165 46.1005,29.7385 C46.1005,22.6485 41.4815,16.4315 34.7745,14.3575 L34.7755,11.2405" id="Fill-3" sketch:type="MSShapeGroup"></path>
            <path d="M38.646785,31.9373926 L39.7196776,30.8891076 L37.6231076,28.7433224 L36.550215,29.7916074 L29.138215,37.0336074 L28.0653224,38.0818924 L30.1618924,40.2276776 L31.234785,39.1793926 L38.646785,31.9373926 Z M29.1134643,39.1546386 L30.1616029,40.2276742 L32.3076742,38.1313971 L31.2595357,37.0583614 L24.0185357,29.6453614 L22.9703971,28.5723258 L20.8243258,30.6686029 L21.8724643,31.7416386 L29.1134643,39.1546386 Z" id="Stroke-1" sketch:type="MSShapeGroup"></path>
        </g>
    </g>
</svg>