<?xml version="1.0" encoding="utf-8"?>
<!-- Generator: Adobe Illustrator 18.1.1, SVG Export Plug-In . SVG Version: 6.00 Build 0)  -->
<svg version="1.1" id="Livello_1" xmlns="http://www.w3.org/2000/svg" xmlns:xlink="http://www.w3.org/1999/xlink" x="0px" y="0px"
	 viewBox="0 0 300 300" enable-background="new 0 0 300 300" xml:space="preserve">
<g>
	<g id="shopping-cart-5-icon_1_">
		<path d="M211.8,259.5c-15.1,0-27.3-12.2-27.3-27.3c0-15.1,12.2-27.3,27.3-27.3c15.1,0,27.3,12.2,27.3,27.3
			C239.1,247.2,226.9,259.5,211.8,259.5z M211.8,219c-7.2,0-13.1,5.9-13.1,13.1c0,7.2,5.9,13.1,13.1,13.1c7.2,0,13.1-5.9,13.1-13.1
			C224.9,224.9,219,219,211.8,219z M145,259.5c-15.1,0-27.3-12.2-27.3-27.3c0-15.1,12.2-27.3,27.3-27.3s27.3,12.2,27.3,27.3
			C172.3,247.2,160,259.5,145,259.5z M145,219c-7.2,0-13.1,5.9-13.1,13.1c0,7.2,5.9,13.1,13.1,13.1s13.1-5.9,13.1-13.1
			C158.1,224.9,152.2,219,145,219z M260.5,196.2H93.4L48.9,54.7H0V40.5h59.3L103.8,182h156.7V196.2z M266.9,169.5h-154L79.4,69.9
			l13.4-4.5l30.2,89.9h133.6l29.9-89.9l13.5,4.5L266.9,169.5z"/>
	</g>
	<g>
		<rect x="118.9" y="92.9" width="141.7" height="14.2"/>
	</g>
	<g>
		<rect x="135.2" y="122.4" width="109" height="14.2"/>
	</g>
</g>
</svg>
