<?xml version="1.0" encoding="UTF-8" standalone="no"?>
<svg width="60px" height="60px" viewBox="0 0 60 60" version="1.1" xmlns="http://www.w3.org/2000/svg" xmlns:xlink="http://www.w3.org/1999/xlink" xmlns:sketch="http://www.bohemiancoding.com/sketch/ns">
    <!-- Generator: Sketch 3.1.1 (8761) - http://www.bohemiancoding.com/sketch -->
    <title>star</title>
    <desc>Created with Sketch.</desc>
    <defs></defs>
    <g id="Page-1" stroke="none" stroke-width="1" fill="none" fill-rule="evenodd" sketch:type="MSPage">
        <g id="star" sketch:type="MSArtboardGroup" fill="#090C1F">
            <path d="M45.7842408,27.8924016 L44.9529875,25.3338656 L36.9529875,33.1318656 L36.3883107,33.6822843 L36.5215756,34.4594979 L38.4095756,45.4704979 L40.5860717,43.8893344 L30.6980717,38.6903344 L30.0000353,38.3233147 L29.3019836,38.6903054 L19.4129836,43.8893054 L21.5894021,45.4706283 L23.4784021,34.4596283 L23.6117498,33.6823432 L23.0470125,33.1318656 L15.0470125,25.3338656 L14.2157783,27.8923988 L25.2707783,26.2853988 L26.0510589,26.171974 L26.4000603,25.4649373 L31.3450603,15.4469373 L28.6548864,15.4468293 L33.5988864,25.4648293 L33.9478705,26.171974 L34.7282408,26.2854016 L45.7842408,27.8924016 Z M36.2891136,24.1371707 L31.3451136,14.1191707 L30.000136,11.39385 L28.6549397,14.1190627 L23.7099397,24.1370627 L24.8392217,23.3166012 L13.7842217,24.9236012 L10.7766899,25.3607883 L12.9529875,27.4821344 L20.9529875,35.2801344 L20.5215979,33.9523717 L18.6325979,44.9633717 L18.1186619,47.95911 L20.8090164,46.5446946 L30.6980164,41.3456946 L29.3019283,41.3456656 L39.1899283,46.5446656 L41.880066,47.95911 L41.3664244,44.9635021 L39.4784244,33.9525021 L39.0470125,35.2801344 L47.0470125,27.4821344 L49.2233454,25.3607539 L46.2157592,24.9235984 L35.1597592,23.3165984 L36.2891136,24.1371707 Z" id="Imported-Layers" sketch:type="MSShapeGroup"></path>
        </g>
    </g>
</svg>