<?xml version="1.0" encoding="UTF-8" standalone="no"?>
<svg width="61px" height="60px" viewBox="0 0 61 60" version="1.1" xmlns="http://www.w3.org/2000/svg" xmlns:xlink="http://www.w3.org/1999/xlink" xmlns:sketch="http://www.bohemiancoding.com/sketch/ns">
    <!-- Generator: Sketch 3.1.1 (8761) - http://www.bohemiancoding.com/sketch -->
    <title>time</title>
    <desc>Created with Sketch.</desc>
    <defs></defs>
    <g id="Page-1" stroke="none" stroke-width="1" fill="none" fill-rule="evenodd" sketch:type="MSPage">
        <g id="time" sketch:type="MSArtboardGroup" transform="translate(1.000000, 0.000000)" fill="#090C1F">
            <path d="M29.9995,46.1005 C21.1071442,46.1005 13.8995,38.89229 13.8995,29.9995 C13.8995,21.10821 21.1076442,13.8995 29.9995,13.8995 C38.8915729,13.8995 46.1005,21.1084271 46.1005,29.9995 C46.1005,38.8920729 38.8920729,46.1005 29.9995,46.1005 Z M29.9995,10.8995 C19.4507372,10.8995 10.8995,19.4514085 10.8995,29.9995 C10.8995,40.5490915 19.4502373,49.1005 29.9995,49.1005 C40.5489271,49.1005 49.1005,40.5489271 49.1005,29.9995 C49.1005,19.4515729 40.5484271,10.8995 29.9995,10.8995 Z" id="Stroke-1" sketch:type="MSShapeGroup"></path>
            <path d="M39.9995,33.3225 L41.4995,33.3225 L41.4995,30.3225 L39.9995,30.3225 L29.9995,30.3225 L28.4995,30.3225 L28.4995,33.3225 L29.9995,33.3225 L39.9995,33.3225 Z M31.4995,18.4745 L31.4995,16.9745 L28.4995,16.9745 L28.4995,18.4745 L28.4995,31.8225 L28.4995,33.3225 L31.4995,33.3225 L31.4995,31.8225 L31.4995,18.4745 Z" id="Stroke-2" sketch:type="MSShapeGroup"></path>
        </g>
    </g>
</svg>