<?xml version="1.0" encoding="UTF-8" standalone="no"?>
<svg width="60px" height="60px" viewBox="0 0 60 60" version="1.1" xmlns="http://www.w3.org/2000/svg" xmlns:xlink="http://www.w3.org/1999/xlink" xmlns:sketch="http://www.bohemiancoding.com/sketch/ns">
    <!-- Generator: Sketch 3.1.1 (8761) - http://www.bohemiancoding.com/sketch -->
    <title>transfer</title>
    <desc>Created with Sketch.</desc>
    <defs></defs>
    <g id="Page-1" stroke="none" stroke-width="1" fill="none" fill-rule="evenodd" sketch:type="MSPage">
        <g id="transfer" sketch:type="MSArtboardGroup" fill="#090C1F">
            <path d="M15,26.8315 C15,23.1833378 17.9100839,20.2335 21.489,20.2335 L44.246,20.2335 L44.246,17.2335 L21.489,17.2335 C16.2440498,17.2335 12,21.5355266 12,26.8315 L12,34.3895 L15,34.3895 L15,26.8315 Z" id="Stroke-1" sketch:type="MSShapeGroup"></path>
            <path d="M39.7118884,10.7452107 L38.6635991,9.67232229 L36.5178223,11.7689009 L37.5661116,12.8417893 L44.4271116,19.8637893 L45.4754009,20.9366777 L47.6211777,18.8400991 L46.5728884,17.7672107 L39.7118884,10.7452107 Z M46.5480565,19.8886158 L47.6211723,18.8405592 L45.5250592,16.6943277 L44.4519435,17.7423842 L37.4289435,24.6013842 L36.3558277,25.6494408 L38.4519408,27.7956723 L39.5250565,26.7476158 L46.5480565,19.8886158 Z" id="Stroke-2" sketch:type="MSShapeGroup"></path>
            <path d="M41.4779481,40.0776383 C40.9696208,40.4774412 40.4044186,40.7993917 39.8029104,41.0295689 C39.0768081,41.308457 38.3051781,41.4525 37.51,41.4525 L14.754,41.4525 L14.754,44.4525 L37.51,44.4525 C38.6741449,44.4525 39.8102931,44.240411 40.8768288,43.8307643 C41.7599721,43.4928161 42.5886487,43.0207851 43.3353173,42.4335177 C43.8014545,42.0651433 44.2309231,41.656762 44.619865,41.2122569 L42.362135,39.2367431 C42.0939956,39.543188 41.7976435,39.824989 41.4779481,40.0776383 Z" id="Stroke-3" sketch:type="MSShapeGroup"></path>
            <path d="M43.0579337,38.3668709 L45.7780663,39.6321291 C46.2950283,38.5207313 46.834918,36.9024103 46.9430657,35.9159723 L43.9609343,35.5890277 C43.8951821,36.1887679 43.4490809,37.5259577 43.0579337,38.3668709 Z" id="Stroke-4" sketch:type="MSShapeGroup"></path>
            <path d="M44,34.3895 L47,34.3895 L47,31.4305 L44,31.4305 L44,34.3895 Z" id="Stroke-5" sketch:type="MSShapeGroup"></path>
            <path d="M44,29.8905 L47,29.8905 L47,28.2455 L44,28.2455 L44,29.8905 Z" id="Stroke-6" sketch:type="MSShapeGroup"></path>
            <path d="M17.6390433,49.2547194 L18.6872627,50.3276761 L20.8331761,48.2312373 L19.7849567,47.1582806 L14.5729567,41.8232806 L13.5247373,40.7503239 L11.3788239,42.8467627 L12.4270433,43.9197194 L17.6390433,49.2547194 Z M12.4518687,41.7984573 L11.3788259,42.8465886 L13.4750886,44.9926741 L14.5481313,43.9445427 L19.7601313,38.8535427 L20.8331741,37.8054114 L18.7369114,35.6593259 L17.6638687,36.7074573 L12.4518687,41.7984573 Z" id="Stroke-7" sketch:type="MSShapeGroup"></path>
        </g>
    </g>
</svg>