<?xml version="1.0" encoding="UTF-8" standalone="no"?>
<svg width="61px" height="60px" viewBox="0 0 61 60" version="1.1" xmlns="http://www.w3.org/2000/svg" xmlns:xlink="http://www.w3.org/1999/xlink" xmlns:sketch="http://www.bohemiancoding.com/sketch/ns">
    <!-- Generator: Sketch 3.1.1 (8761) - http://www.bohemiancoding.com/sketch -->
    <title>trash</title>
    <desc>Created with Sketch.</desc>
    <defs></defs>
    <g id="Page-1" stroke="none" stroke-width="1" fill="none" fill-rule="evenodd" sketch:type="MSPage">
        <g id="trash" sketch:type="MSArtboardGroup" transform="translate(1.000000, 0.000000)" fill="#090C1F">
            <g id="Imported-Layers" sketch:type="MSLayerGroup" transform="translate(16.000000, 13.000000)">
                <path d="M10.351,0.01 L18.05,0.01 L18.05,3.204 L10.351,3.204 L10.351,0.01 Z" id="Fill-1" sketch:type="MSShapeGroup"></path>
                <path d="M7.775,12.327 L10.322,12.327 L10.322,27.796 L7.775,27.796 L7.775,12.327 Z" id="Fill-2" sketch:type="MSShapeGroup"></path>
                <path d="M23.996,31.904 L4.406,31.904 L4.406,8.22 L1.435,8.22 L1.435,34.878 L26.967,34.878 L26.967,8.22 L23.996,8.22 L23.996,31.904" id="Fill-3" sketch:type="MSShapeGroup"></path>
                <path d="M12.928,12.327 L15.475,12.327 L15.475,27.796 L12.928,27.796 L12.928,12.327 Z" id="Fill-4" sketch:type="MSShapeGroup"></path>
                <path d="M7.949,2.27 L-0.113,2.27 L-0.113,5.67 L28.516,5.67 L28.516,2.27 L7.949,2.27" id="Fill-5" sketch:type="MSShapeGroup"></path>
                <path d="M18.079,12.327 L20.627,12.327 L20.627,27.796 L18.079,27.796 L18.079,12.327 Z" id="Fill-6" sketch:type="MSShapeGroup"></path>
            </g>
        </g>
    </g>
</svg>