<?xml version="1.0" encoding="UTF-8" standalone="no"?>
<svg width="60px" height="60px" viewBox="0 0 60 60" version="1.1" xmlns="http://www.w3.org/2000/svg" xmlns:xlink="http://www.w3.org/1999/xlink" xmlns:sketch="http://www.bohemiancoding.com/sketch/ns">
    <!-- Generator: Sketch 3.1.1 (8761) - http://www.bohemiancoding.com/sketch -->
    <title>user</title>
    <desc>Created with Sketch.</desc>
    <defs></defs>
    <g id="Page-1" stroke="none" stroke-width="1" fill="none" fill-rule="evenodd" sketch:type="MSPage">
        <g id="user" sketch:type="MSArtboardGroup" fill="#101220">
            <path d="M30,32.939 C37.6758659,32.939 43.877,38.9142281 43.877,46.256 L46.877,46.256 C46.877,37.2319528 39.3083218,29.939 30,29.939 C20.6910091,29.939 13.123,37.2316357 13.123,46.256 L16.123,46.256 C16.123,38.9138796 22.3234939,32.939 30,32.939 Z M30,29.939 C25.8463515,29.939 22.49,26.6433736 22.49,22.592 C22.49,18.5397543 25.8462197,15.244 30,15.244 C34.1537803,15.244 37.51,18.5397543 37.51,22.592 C37.51,26.6433736 34.1536485,29.939 30,29.939 Z M30,12.244 C24.2014506,12.244 19.49,16.8705694 19.49,22.592 C19.49,28.312612 24.2016338,32.939 30,32.939 C35.7983662,32.939 40.51,28.312612 40.51,22.592 C40.51,16.8705694 35.7985494,12.244 30,12.244 Z" id="Imported-Layers" sketch:type="MSShapeGroup"></path>
        </g>
    </g>
</svg>