<?xml version="1.0" encoding="UTF-8" standalone="no"?>
<svg width="60px" height="60px" viewBox="0 0 60 60" version="1.1" xmlns="http://www.w3.org/2000/svg" xmlns:xlink="http://www.w3.org/1999/xlink" xmlns:sketch="http://www.bohemiancoding.com/sketch/ns">
    <!-- Generator: Sketch 3.1.1 (8761) - http://www.bohemiancoding.com/sketch -->
    <title>write</title>
    <desc>Created with Sketch.</desc>
    <defs></defs>
    <g id="Page-1" stroke="none" stroke-width="1" fill="none" fill-rule="evenodd" sketch:type="MSPage">
        <g id="write" sketch:type="MSArtboardGroup" fill="#141422">
            <path d="M55.755,20.924 L48.544,13.713 L43.59,18.665 L43.591,18.666 L25.85,36.406 L24.504,44.963 L33.062,43.617 L55.755,20.924 L55.755,20.924 Z M52.406,20.924 L49.879,23.451 L46.017,19.589 L48.544,17.062 L52.406,20.924 L52.406,20.924 Z M31.932,41.398 L27.349,42.119 L28.069,37.535 L44.342,21.263 L48.205,25.125 L31.932,41.398 L31.932,41.398 Z" id="Fill-1" sketch:type="MSShapeGroup"></path>
            <path d="M13.219,45.878 L9.044,42.537 L6.111,45.467 L3.99,43.345 L8.96,38.378 L13.219,41.904 L18.88,37.929 L22.449,41.7 L21.855,45.437 L18.613,42.01 L13.219,45.878" id="Fill-2" sketch:type="MSShapeGroup"></path>
        </g>
    </g>
</svg>