<?xml version="1.0" standalone="no"?> 
<!DOCTYPE svg PUBLIC "-//W3C//DTD SVG 1.1//EN" "http://www.w3.org/Graphics/SVG/1.1/DTD/svg11.dtd" >
<svg xmlns="http://www.w3.org/2000/svg">
<defs>
  <font id="Hype-icon" horiz-adv-x="300">
    <font-face font-family="Hype-icon"
      units-per-em="512" ascent="448"
      descent="64" />
    <missing-glyph horiz-adv-x="0" />
    <glyph glyph-name="accept-small"
      unicode="&#xF101;"
      horiz-adv-x="512" d=" M219.78453333333334 101.18826666666666L128 192.9984L146.10773333333333 211.0976L219.78453333333334 137.3952L359.71413333333334 277.33333333333337L377.82186666666666 259.2341333333334L219.78453333333334 101.18826666666666" />
    <glyph glyph-name="accept"
      unicode="&#xF102;"
      horiz-adv-x="512" d=" M180.84852224 70.10554453333333L189.8996386133333 61.05180501333331L198.95191637333335 70.10438314666669L456.8548497066667 328.0158498133333L438.75261695999995 346.11748352L180.84968362666666 88.20601685333332L198.95307775999999 88.20485546666669L51.71894459733333 235.48165546666667L33.614388736 217.38234453333334L180.84852224 70.10554453333333z" />
    <glyph glyph-name="add-small"
      unicode="&#xF103;"
      horiz-adv-x="512" d=" M256 21.71306666666669C162.10773333333333 21.71306666666669 85.71733333333333 98.10346666666663 85.71733333333333 191.99573333333336C85.71733333333333 285.8965333333333 162.10773333333333 362.2869333333333 256 362.2869333333333C349.89226666666667 362.2869333333333 426.28266666666667 285.8965333333333 426.28266666666667 191.99573333333336C426.28266666666667 98.10346666666663 349.89226666666667 21.71306666666669 256 21.71306666666669L256 21.71306666666669zM256 336.68693333333334C176.22186666666667 336.68693333333334 111.31733333333334 271.7824 111.31733333333334 191.99573333333336C111.31733333333334 112.2176 176.22186666666667 47.31306666666666 256 47.31306666666666C335.76959999999997 47.31306666666666 400.68266666666665 112.2176 400.68266666666665 191.99573333333336C400.68266666666665 271.7824 335.76959999999997 336.68693333333334 256 336.68693333333334L256 336.68693333333334z M243.2 244.1088L268.8 244.1088L268.8 138.73919999999998L243.2 138.73919999999998L243.2 244.1088z M203.32373333333334 204.79573333333335L308.6848 204.79573333333335L308.6848 179.19573333333335L203.32373333333334 179.19573333333335L203.32373333333334 204.79573333333335z" />
    <glyph glyph-name="add"
      unicode="&#xF104;"
      horiz-adv-x="512" d=" M261.57866666666666 -0.7798152533333109C154.55896832 -0.7798152533333109 67.86026666666666 84.91177471999998 67.86026666666666 190.53161045333331C67.86026666666666 296.14900565333335 154.5565090133333 381.83143927466665 261.57866666666666 381.83143927466665C368.60082432 381.83143927466665 455.2970666666667 296.14900565333335 455.2970666666667 190.53161045333331C455.2970666666667 84.91177471999998 368.5983650133333 -0.7798152533333109 261.57866666666666 -0.7798152533333109zM261.57866666666666 407.4314392746667C140.48498688 407.4314392746667 42.260266666666666 310.3553399466667 42.260266666666666 190.53161045333331C42.260266666666666 70.70589696000002 140.48700245333333 -26.379815253333334 261.57866666666666 -26.379815253333334C382.67033088 -26.379815253333334 480.89706666666666 70.70589696000002 480.89706666666666 190.53161045333331C480.89706666666666 310.3553399466667 382.6723464533333 407.4314392746667 261.57866666666666 407.4314392746667z M247.46666666666667 109.82028970666664L247.46666666666667 97.02028970666663L273.06666666666666 97.02028970666663L273.06666666666666 109.82028970666664L273.06666666666666 273.06666666666666L273.06666666666666 285.8666666666667L247.46666666666667 285.8666666666667L247.46666666666667 273.06666666666666L247.46666666666667 109.82028970666664z M178.64347818666664 204.8L165.84347818666666 204.8L165.84347818666666 179.2L178.64347818666664 179.2L341.88985514666666 179.2L354.6898551466667 179.2L354.6898551466667 204.8L341.88985514666666 204.8L178.64347818666664 204.8z" />
    <glyph glyph-name="addBuddy"
      unicode="&#xF105;"
      horiz-adv-x="512" d=" M302.2506666666667 168.94293333333337C298.1632 170.92266666666666 293.90506666666664 172.67200000000003 289.5872 174.28480000000002C312.51626666666664 190.29333333333335 327.55199999999996 216.576 327.55199999999996 246.2976C327.55199999999996 294.98879999999997 287.31733333333335 334.6005333333333 237.86666666666667 334.6005333333333C188.416 334.6005333333333 148.18133333333333 294.98879999999997 148.18133333333333 246.2976C148.18133333333333 216.5248 163.26826666666665 190.20799999999997 186.2656 174.20799999999997C132.30079999999998 154.08640000000003 93.8496 103.54346666666669 93.8496 44.3648L119.44959999999999 44.3648C119.44959999999999 107.0250666666667 172.56959999999998 158.0032 237.86666666666667 158.0032C251.62239999999997 158.0032 265.1050666666667 155.75893333333335 277.92213333333336 151.33866666666665C282.43626666666665 149.77706666666666 286.8736 147.95093333333335 291.0976 145.90293333333335L302.2506666666667 168.94293333333337L302.2506666666667 168.94293333333337zM173.78133333333332 246.2976C173.78133333333332 280.87466666666666 202.53013333333334 309.00053333333335 237.86666666666667 309.00053333333335C273.2032 309.00053333333335 301.952 280.87466666666666 301.952 246.2976C301.952 211.72906666666668 273.2032 183.60320000000002 237.86666666666667 183.60320000000002C202.53013333333334 183.60320000000002 173.78133333333332 211.72906666666668 173.78133333333332 246.2976L173.78133333333332 246.2976zM407.5690666666667 119.22773333333333L358.4938666666667 119.22773333333333L358.4938666666667 168.30293333333333L332.89386666666667 168.30293333333333L332.89386666666667 119.22773333333333L283.8186666666667 119.22773333333333L283.8186666666667 93.62773333333337L332.89386666666667 93.62773333333337L332.89386666666667 44.552533333333315L358.4938666666667 44.552533333333315L358.4938666666667 93.62773333333337L407.5690666666667 93.62773333333337L407.5690666666667 119.22773333333333" />
    <glyph glyph-name="address_book"
      unicode="&#xF106;"
      horiz-adv-x="512" d=" M193.86880000000002 159.47946666666667C259.36952234666666 159.47946666666667 312.2858666666666 108.49085354666664 312.2858666666666 45.84106666666668L337.88586666666663 45.84106666666668C337.88586666666663 122.84626944000001 273.29981269333337 185.0794666666667 193.86880000000002 185.0794666666667C114.43207765333334 185.0794666666667 49.85173333333333 122.84897536 49.85173333333333 45.84106666666668L75.45173333333334 45.84106666666668C75.45173333333334 108.49382741333335 128.36261461333334 159.47946666666667 193.86880000000002 159.47946666666667zM193.86880000000002 185.0794666666667C158.42433279999997 185.0794666666667 129.78346666666667 213.20214528 129.78346666666667 247.7738666666667C129.78346666666667 282.3530299733334 158.42320810666666 310.4768 193.86880000000002 310.4768C229.31439189333332 310.4768 257.95413333333335 282.3530299733334 257.95413333333335 247.7738666666667C257.95413333333335 213.20214528 229.3132672 185.0794666666667 193.86880000000002 185.0794666666667zM193.86880000000002 336.0768C144.38784511999998 336.0768 104.18346666666666 296.59674112 104.18346666666666 247.7738666666667C104.18346666666666 198.9579776 144.38940842666668 159.47946666666667 193.86880000000002 159.47946666666667C243.34819157333334 159.47946666666667 283.5541333333333 198.9579776 283.5541333333333 247.7738666666667C283.5541333333333 296.59674112 243.34975488 336.0768 193.86880000000002 336.0768z M462.14826666666664 312.55893333333336L462.14826666666664 338.1589333333333L300.0149333333333 338.1589333333333L300.0149333333333 312.55893333333336L462.14826666666664 312.55893333333336z M460.13439999999997 244.3008L460.13439999999997 269.9008L338.9354666666667 269.9008L338.9354666666667 244.3008L460.13439999999997 244.3008z M460.13439999999997 176.04266666666666L460.13439999999997 201.64266666666666L338.9354666666667 201.64266666666666L338.9354666666667 176.04266666666666L460.13439999999997 176.04266666666666z" />
    <glyph glyph-name="arrow-dx"
      unicode="&#xF107;"
      horiz-adv-x="512" d=" M102.4 179.8058666666667L363.392 179.8058666666667L256.40959999999995 72.832L273.664 55.577600000000075L392.90026666666665 174.77973333333335L410.14613333333335 192.05973333333333L273.664 328.5333333333333L256.40959999999995 311.2704L363.4602666666667 204.21973333333335L102.4 204.21973333333335L102.4 179.8058666666667" />
    <glyph glyph-name="arrow"
      unicode="&#xF108;"
      horiz-adv-x="512" d=" M416.63146666666665 206.77120000000002L142.89919999999998 206.77120000000002L255.10399999999998 318.96746666666667L237.00480000000002 337.06666666666666L93.86666666666666 193.92853333333332L237.00480000000002 50.79039999999998L255.10399999999998 68.88960000000003L142.83093333333332 181.1712L416.63146666666665 181.1712L416.63146666666665 206.77120000000002" />
    <glyph glyph-name="atm"
      unicode="&#xF109;"
      horiz-adv-x="512" d=" M77.10792897792 327.6130718976L443.42724863999996 327.6130718976L443.42724863999996 300.6181228373333L77.10792897792 300.6181228373333L77.10792897792 327.6130718976z M362.24480256 279.6380026026667L362.24480256 74.48043946666672L152.408720896 74.48043946666672L152.408720896 279.6380026026667L125.36628744533333 279.6380026026667L125.36628744533333 47.485490346666666L389.4089326933333 47.485490346666666L389.4089326933333 279.6380026026667L362.24480256 279.6380026026667 M325.6104738133334 279.6380026026667C325.6104738133334 279.14658304 325.73401429333336 278.65516339199996 325.73401429333336 278.0404288C325.73401429333336 240.49560234666666 295.1255048533333 209.81960789333334 257.386688 209.81960789333334C219.64971519999997 209.94108245333334 189.04120576 240.49560234666666 189.04120576 278.1637438293333C189.04120576 278.65516339199996 189.16474624000003 279.2680575146667 189.16474624000003 279.7594771626667L175.51998890666667 279.7594771626667C175.51998890666667 279.2680575146667 175.39644927999998 278.7784784213333 175.39644927999998 278.1637438293333C175.39644927999998 233.13167018666667 212.15063039999998 196.44452778666667 257.26499157333336 196.44452778666667C302.3793527466667 196.44452778666667 339.13353472 233.13167018666667 339.13353472 278.1637438293333C339.13353472 278.65516339199996 339.01183743999997 279.2680575146667 339.01183743999997 279.7594771626667L325.6104738133334 279.7594771626667L325.6104738133334 279.6380026026667 M174.65889450666666 119.75546112L174.65889450666666 133.2538564266667C195.06518186666665 133.2538564266667 211.6601565866667 116.68915029333328 211.6601565866667 96.32192426666666L198.13709653333336 96.32192426666666C198.01539925333333 109.3270587733333 187.56609706666666 119.75546112 174.65889450666666 119.75546112 M306.3123618133333 99.63302485333332C306.3123618133333 120.00209152000002 322.90733653333336 136.5667976533333 343.31177984 136.5667976533333L343.31177984 123.0702429866667C330.40457728 123.0702429866667 319.83542272 112.64000000000004 319.83542272 99.63302485333332L306.3123618133333 99.63302485333332" />
    <glyph glyph-name="cards"
      unicode="&#xF10A;"
      horiz-adv-x="512" d=" M457.6128 324.6293333333333L110.8864 324.6293333333333L110.8864 268.24106666666665L54.3872 268.24106666666665L54.3872 59.37066666666669L401.12213333333335 59.37066666666669L401.12213333333335 115.75893333333335L457.6128 115.75893333333335L457.6128 324.6293333333333L457.6128 324.6293333333333zM79.9872 246.54506666666666L110.8864 246.54506666666666L110.8864 215.55200000000002L79.9872 215.55200000000002L79.9872 246.54506666666666zM375.52213333333333 88.87466666666666L79.9872 88.87466666666666L79.9872 176.6314666666667L110.8864 176.6314666666667L110.8864 119.66293333333334L375.52213333333333 119.66293333333334L375.52213333333333 88.87466666666666L375.52213333333333 88.87466666666666zM136.4864 233.01973333333333L432.01279999999997 233.01973333333333L432.01279999999997 145.26293333333336L136.4864 145.26293333333336L136.4864 233.01973333333333zM432.01279999999997 271.9488L401.12213333333335 271.9488L401.12213333333335 272.14506666666665L136.4864 272.14506666666665L136.4864 302.93333333333334L432.01279999999997 302.93333333333334L432.01279999999997 271.9488L432.01279999999997 271.9488z" />
    <glyph glyph-name="close-small"
      unicode="&#xF10B;"
      horiz-adv-x="512" d=" M256 21.71306666666669C162.0992 21.71306666666669 85.71733333333333 98.10346666666663 85.71733333333333 191.99573333333336C85.71733333333333 285.8965333333333 162.0992 362.2869333333333 256 362.2869333333333C349.89226666666667 362.2869333333333 426.28266666666667 285.8965333333333 426.28266666666667 191.99573333333336C426.28266666666667 98.10346666666663 349.89226666666667 21.71306666666669 256 21.71306666666669L256 21.71306666666669zM256 336.68693333333334C176.22186666666667 336.68693333333334 111.31733333333334 271.77386666666666 111.31733333333334 191.99573333333336C111.31733333333334 112.2176 176.22186666666667 47.31306666666666 256 47.31306666666666C335.7781333333333 47.31306666666666 400.68266666666665 112.2176 400.68266666666665 191.99573333333336C400.68266666666665 271.77386666666666 335.7781333333333 336.68693333333334 256 336.68693333333334L256 336.68693333333334z M222.13119999999998 140.42879999999997L204.032 158.52800000000002L289.0752 243.56266666666667L307.1744 225.46346666666668L222.13119999999998 140.42879999999997 M289.55306666666667 140.88960000000003L204.50133333333332 225.92426666666668L222.60053333333332 244.02346666666665L307.6608 158.99733333333336L289.55306666666667 140.88960000000003" />
    <glyph glyph-name="close"
      unicode="&#xF10C;"
      horiz-adv-x="512" d=" M256 -15.494736842105226C200.4884210526316 -15.494736842105226 148.74947368421053 6.0631578947368325 109.40631578947368 45.406315789473695C70.06315789473685 84.7494736842105 48.50526315789474 136.48842105263162 48.50526315789474 192C48.50526315789474 247.5115789473684 70.06315789473685 299.25052631578944 109.40631578947368 338.5936842105263C148.74947368421053 377.93684210526317 200.4884210526316 399.4947368421053 256 399.4947368421053C311.5115789473684 399.4947368421053 363.2505263157895 377.93684210526317 402.5936842105263 338.5936842105263C441.93684210526317 299.25052631578944 463.4947368421052 247.5115789473684 463.4947368421052 192C463.4947368421052 136.48842105263162 441.93684210526317 84.7494736842105 402.5936842105263 45.406315789473695C363.2505263157895 6.0631578947368325 311.5115789473684 -15.494736842105226 256 -15.494736842105226L256 -15.494736842105226L256 -15.494736842105226zM256 383.3263157894737C204.79999999999998 383.3263157894737 156.83368421052631 363.38526315789477 120.72421052631577 327.2757894736842C84.61473684210526 291.1663157894737 64.67368421052632 243.20000000000002 64.67368421052632 192C64.67368421052632 140.8 84.61473684210526 92.83368421052631 120.72421052631577 56.7242105263158C156.83368421052631 20.614736842105287 204.79999999999998 0.6736842105263463 256 0.6736842105263463C307.2 0.6736842105263463 355.1663157894737 20.614736842105287 391.2757894736842 56.7242105263158C427.3852631578947 92.83368421052631 447.32631578947365 140.8 447.32631578947365 192C447.32631578947365 243.20000000000002 427.3852631578947 291.1663157894737 391.2757894736842 327.2757894736842C355.1663157894737 363.38526315789477 307.2 383.3263157894737 256 383.3263157894737L256 383.3263157894737L256 383.3263157894737z M267.8298947368421 191.5581709473684L308.8347890526316 232.5630652631579L297.4020985263158 243.9957557894737L256.3972042105263 202.9908614736842L214.87006989473684 244.51799578947367L203.43737936842103 233.0853052631579L244.96451368421052 191.5581709473684L203.27294652631576 149.8666037894737L214.7056370526316 138.43391326315793L256.3972042105263 180.12548042105266L297.566531368421 138.9561532631579L308.9992218947368 150.3888437894737L267.8298947368421 191.5581709473684L267.8298947368421 191.5581709473684z" />
    <glyph glyph-name="dashboard"
      unicode="&#xF10D;"
      horiz-adv-x="512" d=" M386.95123712 191.62972330666668L383.3472 200.53333333333333L383.3472 37.17973333333333L396.1472 49.97973333333334L289.8901333333333 49.97973333333334L302.6900232533333 37.23281749333336L302.28042325333337 135.99761749333334L302.2275592533333 148.74453333333332L289.4805333333333 148.74453333333332L222.10133333333332 148.74453333333332L209.30133333333333 148.74453333333332L209.30133333333333 135.9445333333333L209.30133333333333 37.17973333333333L222.10133333333332 49.97973333333334L115.85279999999999 49.97973333333334L128.65279999999998 37.17973333333333L128.65279999999998 209.64693333333335L124.85491541333334 200.54737664L263.51304874666664 337.7207099733333L245.31497045333333 337.91665664L386.95123712 191.62972330666668zM254.70689109333333 365.01939942399997L245.50881791999998 355.91982336L106.85068458666666 218.74649002666666L103.05279999999999 214.98927360000002L103.05279999999999 209.64693333333335L103.05279999999999 37.17973333333333L103.05279999999999 24.37973333333332L115.85279999999999 24.37973333333332L222.10133333333332 24.37973333333332L234.90133333333333 24.37973333333332L234.90133333333333 37.17973333333333L234.90133333333333 135.9445333333333L222.10133333333332 123.1445333333333L289.4805333333333 123.1445333333333L276.6806434133333 135.89144917333334L277.0902434133333 37.126649173333305L277.1431074133333 24.37973333333332L289.8901333333333 24.37973333333332L396.1472 24.37973333333332L408.94719999999995 24.37973333333332L408.94719999999995 37.17973333333333L408.94719999999995 200.53333333333333L408.94719999999995 205.71456597333332L405.34316288 209.43694336L263.7068962133333 355.72387669333335L254.70689109333333 365.01939942399997z" />
    <glyph glyph-name="delete"
      unicode="&#xF10E;"
      horiz-adv-x="512" d=" M174.32287146666667 311.4666666666667L174.32287146666667 311.4666666666667L59.733333333333334 197.85386666666668L174.32287146666667 84.20124415999999L442.91632128 84.20124415999999L442.91632128 311.4666666666667L174.32287146666667 311.4666666666667L174.32287146666667 311.4666666666667zM371.88791807999996 147.94666666666666L346.04110762666664 122.35093333333333L295.58547712 172.26808917333335L245.10971648 122.35093333333333L219.25284096 147.94666666666666L269.73866666666663 197.85386666666668L219.25284096 247.75111082666666L245.10971648 273.31697749333335L295.58547712 223.42968917333334L346.04110762666664 273.31697749333335L371.88791807999996 247.75111082666666L321.4222225066667 197.85386666666668L371.88791807999996 147.94666666666666L371.88791807999996 147.94666666666666z" />
    <glyph glyph-name="edit"
      unicode="&#xF10F;"
      horiz-adv-x="512" d=" M435.2057344 290.46882730666664L354.47456170666663 371.2L299.01176405333337 315.75959381333337L299.02295978666666 315.74839808L100.40255488 117.13918890666662L85.33333333333333 21.338794666666672L181.14492330666664 36.408016213333326L435.2057344 290.46882730666664L435.2057344 290.46882730666664zM397.71180885333337 290.46882730666664L369.42063189333334 262.17765034666667L326.18338474666666 305.41489749333334L354.47456170666663 333.7060744533333L397.71180885333337 290.46882730666664L397.71180885333337 290.46882730666664zM168.49394261333333 61.25096106666666L117.18469717333333 53.17896277333335L125.24549973333332 104.49940394666663L307.43082410666665 286.6735325866666L350.6792669866666 243.43628544L168.49394261333333 61.25096106666666L168.49394261333333 61.25096106666666z" />
    <glyph glyph-name="facebook"
      unicode="&#xF110;"
      horiz-adv-x="512" d=" M208.83911168 257.2115626666667L170.66666666666666 257.2115626666667L170.66666666666666 192.6275328L208.96249344 192.6275328L208.96249344 4.517981866666673L283.3369582933333 4.517981866666673L283.3369582933333 193.75619072L334.6847214933333 193.75619072L340.1024648533333 257.2115626666667L283.2135765333333 257.2115626666667L283.2135765333333 292.82672008533336C283.2135765333333 307.24870331733337 286.53825023999997 314.02064708266664 300.69915136 314.02064708266664L341.0873070933333 314.02064708266664L341.0873070933333 379.73333333333335L289.73954389333335 379.73333333333335C233.95887957333335 379.73333333333335 208.83911168 355.27909154133334 208.83911168 307.37436040533333L208.83911168 257.2115626666667" />
    <glyph glyph-name="fbshare"
      unicode="&#xF111;"
      horiz-adv-x="512" d=" M188.24533333333335 348.8426666666667C188.24533333333335 335.87199999999996 188.24533333333335 278.3573333333333 188.24533333333335 278.3573333333333H136.53333333333333V192.17066666666665H188.24533333333335V-64H294.40000000000003V192.17066666666665H365.568C365.568 192.17066666666665 372.224 233.47199999999998 375.4666666666667 278.69866666666667C366.2506666666667 278.69866666666667 294.74133333333333 278.69866666666667 294.74133333333333 278.69866666666667S294.74133333333333 328.87466666666666 294.74133333333333 337.57866666666666C294.74133333333333 346.4533333333333 306.3466666666667 358.22933333333333 317.78133333333335 358.22933333333333C329.216 358.22933333333333 353.28000000000003 358.22933333333333 375.63733333333334 358.22933333333333C375.63733333333334 370.00533333333334 375.63733333333334 410.4533333333333 375.63733333333334 448C345.9413333333333 448 311.9786666666667 448 297.1306666666667 448C185.51466666666667 448 188.24533333333335 361.6426666666666 188.24533333333335 348.8426666666667z" />
    <glyph glyph-name="fingerprint"
      unicode="&#xF112;"
      horiz-adv-x="512" d=" M104.44800000000001 191.14666666666665C105.98400000000001 179.2 107.69066666666667 167.42399999999998 109.22666666666667 155.47733333333332C113.32266666666668 126.63466666666665 114.17600000000002 97.62133333333327 108.37333333333333 68.94933333333324C105.13066666666667 52.565333333333285 99.66933333333334 36.86399999999992 92.33066666666667 21.67466666666661C90.45333333333333 17.749333333333254 88.06400000000001 14.677333333333308 83.28533333333334 14.335999999999956C76.28800000000001 13.65333333333325 70.99733333333334 18.943999999999903 72.19200000000001 25.94133333333326C72.53333333333335 28.330666666666616 73.72800000000001 30.549333333333266 74.75200000000001 32.76799999999997C89.60000000000001 64.51199999999994 94.37866666666667 98.13333333333333 90.96533333333335 132.7786666666666C89.25866666666668 149.6746666666666 86.18666666666668 166.39999999999992 85.16266666666668 183.29599999999994C80.38400000000001 268.28799999999995 139.4346666666667 343.7226666666666 223.06133333333332 359.9359999999999C246.272 364.3733333333333 269.312 364.0319999999999 292.352 359.424C294.74133333333333 358.912 297.1306666666667 358.4 299.52 357.5466666666666C304.64 355.4986666666666 307.02933333333334 350.8906666666666 305.83466666666664 345.59999999999997C304.81066666666663 340.8213333333333 301.0559999999999 337.7493333333333 295.5946666666666 338.0906666666666C290.64533333333327 338.43199999999996 285.8666666666666 339.6266666666666 281.08799999999997 340.47999999999996C201.21600000000004 354.304 124.58666666666667 301.73866666666663 108.54400000000001 222.37866666666667C106.49600000000001 212.13866666666667 105.81333333333335 201.72799999999995 104.44800000000001 191.14666666666665z M314.70933333333335 126.976C314.70933333333335 121.856 314.88 116.56533333333334 314.70933333333335 111.44533333333334C314.5386666666667 103.59466666666668 310.61333333333334 99.49866666666668 304.12800000000004 99.66933333333333C297.98400000000004 99.83999999999997 294.7413333333334 103.93599999999998 294.2293333333334 111.27466666666669C292.6933333333333 132.77866666666665 291.1573333333333 154.45333333333338 289.28000000000003 175.95733333333334C288.4266666666667 184.32000000000005 286.72 192.85333333333335 284.5013333333333 200.87466666666668C280.9173333333333 213.50400000000002 269.824 221.52533333333335 257.024 221.696C243.712 221.86666666666665 231.76533333333333 214.35733333333332 228.18133333333333 201.728C226.47466666666665 196.096 226.64533333333333 189.78133333333335 227.15733333333333 183.9786666666667C228.52266666666668 169.47199999999998 231.08266666666668 155.13599999999997 232.27733333333333 140.79999999999995C237.73866666666666 76.97066666666666 225.79199999999997 16.554666666666606 197.29066666666668 -40.78933333333333C196.43733333333333 -42.49599999999998 195.584 -44.20266666666669 194.38933333333333 -45.73866666666663C191.14666666666665 -49.83466666666658 186.368 -50.68799999999993 181.93066666666667 -48.46933333333334C177.15200000000002 -45.909333333333336 175.27466666666666 -41.13066666666663 176.98133333333334 -36.01066666666662C177.66400000000002 -33.96266666666668 178.688 -31.914666666666676 179.712 -30.037333333333322C204.6293333333333 20.480000000000018 215.89333333333332 73.72800000000007 212.3093333333333 129.87733333333335C211.11466666666664 147.2853333333333 209.57866666666666 164.86400000000003 206.33599999999998 182.10133333333334C201.38666666666663 208.5546666666667 218.62399999999997 240.98133333333334 254.80533333333332 242.34666666666666C279.8933333333333 243.37066666666666 300.544 226.30400000000003 305.664 201.89866666666666C310.61333333333334 177.152 313.51466666666664 152.2346666666666 314.70933333333335 126.976z M472.74666666666667 161.45066666666662C472.57599999999996 154.62399999999997 468.48 149.84533333333326 463.0186666666667 149.50399999999996C457.3866666666667 149.16266666666667 452.7786666666667 153.59999999999997 452.09600000000006 160.42666666666668C450.3893333333334 175.95733333333328 448.85333333333347 191.48799999999994 447.1466666666668 207.01866666666666C442.7093333333334 245.41866666666667 429.90933333333345 280.4053333333334 405.50400000000013 310.61333333333334C374.4426666666668 349.0133333333333 334.5066666666668 372.56533333333334 285.6960000000001 380.5866666666667C252.41600000000008 386.048 219.64800000000008 382.46400000000006 188.07466666666673 370.3466666666667C185.51466666666673 369.3226666666667 182.95466666666672 368.2986666666667 180.39466666666672 367.44533333333334C175.10400000000007 365.90933333333334 170.15466666666674 368.12800000000004 167.93600000000006 372.56533333333334C165.7173333333334 377.5146666666667 167.42400000000006 382.976 172.54400000000007 385.87733333333335C174.93333333333342 387.24266666666665 177.49333333333342 388.096 180.05333333333343 389.12C303.10400000000004 436.3946666666667 438.61333333333346 361.1306666666667 463.8720000000001 231.59466666666668C466.60266666666683 217.94133333333335 468.30933333333354 204.11733333333336 470.0160000000002 190.29333333333335C471.2106666666667 180.56533333333334 471.8933333333334 170.66666666666663 472.74666666666667 161.45066666666662z M132.608 114.51733333333328C132.77866666666668 134.82666666666665 129.19466666666668 154.79466666666661 126.29333333333334 174.93333333333334C117.24800000000002 240.64 159.06133333333335 302.93333333333334 224.08533333333338 318.6346666666667C274.77333333333337 330.92266666666666 318.1226666666667 316.58666666666664 353.79200000000003 279.03999999999996C356.1813333333334 276.48 358.57066666666674 273.57866666666666 360.2773333333334 270.6773333333333C362.66666666666674 266.5813333333333 361.64266666666674 261.80266666666665 358.2293333333334 258.73066666666665C354.8160000000001 255.48799999999997 349.1840000000001 255.14666666666665 345.42933333333343 258.048C343.7226666666667 259.4133333333333 342.3573333333334 261.12 340.8213333333334 262.8266666666666C315.56266666666676 292.0106666666667 283.47733333333343 305.49333333333334 245.2480000000001 302.0799999999999C194.9013333333334 297.472 157.5253333333334 260.26666666666665 147.96800000000007 215.21066666666664C144.8960000000001 200.53333333333333 144.72533333333342 185.856 147.62666666666675 171.17866666666663C152.9173333333334 143.87199999999996 154.4533333333334 116.39466666666664 151.55200000000008 88.57599999999996C151.38133333333343 87.55199999999996 151.38133333333343 86.35733333333326 151.21066666666675 85.33333333333326C150.18666666666675 79.5306666666666 145.7493333333334 75.77599999999995 140.28800000000007 76.2879999999999C134.8266666666667 76.79999999999995 130.90133333333338 80.8959999999999 131.07200000000006 86.8693333333332C131.41333333333336 95.91466666666662 132.09600000000003 105.30133333333328 132.608 114.51733333333328z M354.9866666666667 111.78666666666663C355.1573333333333 59.562666666666644 346.112 8.874666666666599 329.8986666666667 -40.61866666666674C329.216 -42.666666666666686 328.53333333333336 -44.88533333333339 327.3386666666667 -46.59200000000004C324.7786666666667 -50.85866666666669 319.82933333333335 -52.5653333333334 315.2213333333334 -51.0293333333334C311.12533333333334 -49.664000000000044 308.22400000000005 -45.5680000000001 308.5653333333334 -40.789333333333445C308.73600000000005 -38.57066666666674 309.4186666666667 -36.52266666666674 310.1013333333334 -34.47466666666679C321.8773333333334 1.5359999999999445 329.8986666666667 38.399999999999864 332.80000000000007 76.11733333333325C335.0186666666668 105.64266666666663 334.5066666666667 135.1679999999999 330.92266666666677 164.69333333333327C329.3866666666667 177.66399999999993 327.5093333333334 190.8053333333333 324.9493333333334 203.60533333333328C319.14666666666676 232.78933333333327 301.73866666666675 251.90399999999994 272.8960000000001 259.9253333333333C261.2906666666667 263.168 249.6853333333334 262.9973333333333 238.08000000000007 259.7546666666666C235.52000000000007 259.07199999999995 232.78933333333342 258.048 230.22933333333341 257.7066666666666C224.59733333333338 256.8533333333333 219.9893333333334 259.4133333333333 218.4533333333334 264.19199999999995C216.74666666666673 269.4826666666666 218.9653333333334 275.1146666666666 224.59733333333338 276.8213333333333C232.44800000000004 279.2106666666666 240.4693333333334 281.4293333333333 248.49066666666673 282.11199999999997C293.7173333333334 286.0373333333333 337.7493333333334 255.8293333333333 346.2826666666667 203.26399999999992C351.0613333333333 176.2986666666667 354.81600000000003 140.45866666666666 354.9866666666667 111.78666666666663z M434.688 107.17866666666669C434.688 75.6053333333333 432.46933333333334 44.20266666666663 427.1786666666667 13.141333333333307C426.83733333333333 11.605333333333306 426.66666666666663 9.898666666666657 425.98400000000004 8.362666666666712C423.93600000000004 3.2426666666667074 419.1573333333333 0.5120000000000005 414.3786666666667 1.5360000000000014C409.4293333333333 2.560000000000059 405.8453333333333 7.168000000000063 406.18666666666667 12.458666666666716C406.52799999999996 16.725333333333367 407.3813333333333 21.162666666666723 408.06399999999996 25.429333333333375C413.69599999999997 61.26933333333335 415.23199999999997 97.28000000000003 413.52533333333326 133.4613333333334C412.1599999999999 161.2800000000001 409.42933333333326 189.0986666666667 404.4799999999999 216.57600000000005C396.2879999999999 261.63200000000006 372.73599999999993 296.2773333333334 333.99466666666655 320.6826666666667C331.9466666666666 322.04800000000006 329.7279999999999 323.07200000000006 327.67999999999995 324.60800000000006C322.90133333333324 328.02133333333336 321.7066666666666 333.82400000000007 324.43733333333324 338.26133333333337C327.33866666666654 343.04 332.45866666666655 344.4053333333334 338.0906666666666 342.0160000000001C340.13866666666655 341.1626666666667 342.01599999999996 339.9680000000001 343.7226666666666 338.77333333333337C389.4613333333333 310.4426666666667 416.4266666666666 269.65333333333336 425.4719999999999 216.57600000000005C431.61600000000004 180.39466666666664 434.51733333333334 143.872 434.688 107.17866666666669z M507.73333333333335 203.26399999999998C507.73333333333335 201.72799999999995 507.90400000000005 199.16799999999998 507.39200000000005 196.77866666666662C506.368 191.8293333333333 502.27200000000005 188.7573333333333 497.32266666666675 188.7573333333333C492.7146666666668 188.7573333333333 488.96000000000015 191.48799999999994 487.5946666666668 196.096C486.91200000000015 198.656 486.74133333333344 201.5573333333333 486.57066666666674 204.288C481.96266666666673 306.688 407.0400000000001 395.4346666666667 306.68800000000005 417.4506666666667C301.56800000000004 418.6453333333334 296.44800000000004 419.32800000000003 291.4986666666667 420.5226666666667C285.696 421.88800000000003 282.28266666666667 426.6666666666667 283.136 431.7866666666667C283.9893333333334 437.24800000000005 288.25600000000003 441.17333333333335 294.40000000000003 440.14933333333335C306.17600000000004 438.1013333333334 318.29333333333335 436.22400000000005 329.55733333333336 432.4693333333334C425.47200000000004 400.21333333333337 483.49866666666674 334.16533333333336 504.14933333333335 235.008C505.00266666666664 230.912 505.5146666666667 226.9866666666667 506.0266666666667 222.8906666666667C506.70933333333335 216.74666666666664 507.05066666666676 210.43200000000002 507.73333333333335 203.26399999999998z M43.861333333333334 60.586666666666645C44.202666666666666 61.78133333333329 44.714666666666666 64.17066666666665 45.568000000000005 66.3893333333333C52.565333333333335 84.99200000000002 53.760000000000005 104.27733333333327 51.541333333333334 123.904C49.83466666666667 139.94666666666672 46.93333333333334 155.81866666666667 45.397333333333336 172.03199999999998C40.10666666666666 230.912 56.66133333333333 282.9653333333333 94.20800000000001 328.36266666666666C105.30133333333335 341.67466666666667 117.9306666666667 353.28 132.09600000000003 363.52C133.80266666666668 364.7146666666667 135.68 366.08000000000004 137.55733333333336 367.10400000000004C142.16533333333336 369.15200000000004 147.1146666666667 367.7866666666667 150.01600000000002 364.03200000000004C152.91733333333335 360.1066666666667 152.74666666666667 354.9866666666667 149.33333333333334 351.232C148.13866666666667 349.8666666666667 146.43200000000002 348.8426666666667 144.89600000000002 347.648C99.32800000000002 313.856 73.04533333333333 268.79999999999995 66.21866666666666 212.48C63.488 190.63466666666665 66.048 168.78933333333333 69.80266666666667 147.1146666666666C73.55733333333335 124.58666666666664 75.26400000000001 101.88799999999998 70.656 79.35999999999996C69.12 71.33866666666665 66.38933333333334 63.48799999999994 63.488 55.807999999999936C61.61066666666666 50.858666666666636 56.66133333333333 48.46933333333328 52.224 49.49333333333328C47.44533333333334 50.51733333333328 44.032000000000004 54.44266666666664 43.861333333333334 60.586666666666645z M194.38933333333335 254.976C203.4346666666667 254.976 208.21333333333334 246.784 204.11733333333336 239.78666666666666C202.9226666666667 237.73866666666666 201.21600000000004 235.86133333333333 199.68000000000004 233.81333333333333C188.24533333333338 217.77066666666664 183.4666666666667 200.0213333333333 186.70933333333338 180.224C192.6826666666667 144.7253333333333 194.38933333333338 108.88533333333334 190.46400000000006 73.0453333333333C186.53866666666673 37.20533333333333 175.27466666666672 3.754666666666594 158.72000000000006 -28.160000000000025C155.30666666666673 -34.64533333333338 149.8453333333334 -36.52266666666668 144.55466666666672 -33.96266666666668C138.92266666666674 -31.061333333333323 137.3866666666667 -25.429333333333318 140.6293333333334 -18.602666666666664C141.31200000000007 -17.06666666666672 142.16533333333342 -15.701333333333366 142.84800000000007 -14.165333333333308C152.23466666666673 4.778666666666766 159.91466666666673 24.405333333333374 164.69333333333338 44.88533333333339C171.17866666666671 72.19200000000006 173.3973333333334 100.01066666666668 171.52000000000007 128.00000000000006C170.49600000000007 144.38400000000007 168.1066666666667 160.59733333333338 166.22933333333341 176.9813333333334C162.98666666666674 203.43466666666671 168.61866666666674 227.4986666666667 185.34400000000008 248.6613333333334C188.07466666666667 252.24533333333332 190.80533333333335 255.14666666666665 194.38933333333335 254.976z M245.58933333333337 443.392C248.66133333333337 443.392 251.5626666666667 443.73333333333335 254.6346666666667 443.392C259.58400000000006 442.88 262.9973333333334 438.95466666666664 263.3386666666667 434.00533333333334C263.68 428.544 260.4373333333334 424.448 254.97600000000003 423.5946666666667C250.02666666666667 422.912 245.07733333333334 422.74133333333333 240.2986666666667 422.4C189.0986666666667 418.9866666666667 144.21333333333337 400.2133333333333 105.30133333333337 367.104C82.26133333333337 347.4773333333333 64.00000000000003 324.096 50.17600000000004 297.1306666666667C49.15200000000004 295.25333333333333 48.298666666666705 293.20533333333333 46.93333333333337 291.328C43.86133333333337 287.23199999999997 38.74133333333337 286.0373333333333 34.47466666666671 288.0853333333333C29.696000000000037 290.304 27.648000000000035 295.25333333333333 29.184000000000033 300.37333333333333C29.8666666666667 302.76266666666663 31.06133333333337 304.9813333333333 32.256000000000036 307.0293333333333C70.48533333333333 378.02666666666664 128.68266666666668 422.22933333333333 207.36 438.784C212.65066666666667 439.97866666666664 218.11200000000002 441.00266666666664 223.57333333333335 441.68533333333335C230.91200000000003 442.53866666666664 238.25066666666666 443.05066666666664 245.58933333333337 443.73333333333335C245.58933333333337 443.56266666666664 245.58933333333337 443.56266666666664 245.58933333333337 443.392z M395.264 110.59199999999998C395.264 65.70666666666665 388.608 21.674666666666667 377.85600000000005 -21.674666666666667C377.344 -23.552000000000078 376.83200000000005 -25.429333333333318 375.9786666666667 -27.135999999999967C373.76000000000005 -31.57333333333338 368.64000000000004 -33.621333333333325 364.2026666666667 -32.25599999999997C359.42400000000004 -30.720000000000027 356.35200000000003 -26.79466666666667 356.6933333333333 -21.845333333333258C356.86400000000003 -18.94399999999996 357.888 -15.871999999999957 358.5706666666667 -12.97066666666666C372.9066666666667 43.86133333333339 377.68533333333335 101.20533333333339 371.712 159.57333333333338C369.32266666666663 182.10133333333334 366.9333333333333 204.62933333333336 360.78933333333333 226.64533333333333C359.0826666666666 232.96 361.6426666666666 237.90933333333334 367.104 239.7866666666667C372.90666666666664 241.8346666666667 378.5386666666666 239.2746666666667 380.416 232.448C383.3173333333333 221.696 385.70666666666665 210.60266666666666 387.58399999999995 199.68000000000004C389.80266666666665 186.5386666666667 391.5093333333333 173.05600000000004 392.5333333333333 159.74400000000003C393.8986666666667 143.35999999999996 394.41066666666666 126.976 395.264 110.59199999999998z M275.11466666666666 111.95733333333328C274.944 83.11466666666661 271.36 54.61333333333329 264.704 26.623999999999967C264.3626666666667 25.087999999999965 264.0213333333333 23.38133333333326 263.50933333333336 21.845333333333258C261.29066666666665 15.871999999999957 256.34133333333335 13.141333333333307 250.70933333333335 14.677333333333308C245.58933333333337 16.042666666666662 242.51733333333334 21.162666666666667 243.71200000000005 26.965333333333263C245.24800000000005 35.327999999999975 247.46666666666667 43.519999999999925 249.0026666666667 51.88266666666658C254.97600000000003 84.4799999999999 255.6586666666667 117.07733333333323 252.24533333333338 150.01599999999996C250.88000000000002 162.98666666666662 248.32000000000002 175.95733333333328 246.4426666666667 188.92799999999994C245.24800000000005 197.63199999999995 250.70933333333335 203.60533333333328 258.38933333333335 201.89866666666663C263.16800000000006 200.87466666666663 265.72800000000007 197.4613333333333 266.58133333333336 192.68266666666662C268.80000000000007 179.54133333333328 271.36000000000007 166.22933333333327 272.72533333333337 152.91733333333326C273.92 139.26399999999995 274.2613333333333 125.61066666666665 275.11466666666666 111.95733333333328z M34.474666666666664 258.73066666666665C34.13333333333333 257.70666666666665 33.792 255.8293333333333 33.28 253.95199999999997C21.504 209.74933333333334 22.016000000000002 165.88799999999998 35.669333333333334 122.02666666666664C36.181333333333335 120.49066666666664 36.693333333333335 118.95466666666664 36.864 117.24799999999993C37.71733333333333 111.78666666666663 34.986666666666665 107.51999999999998 29.866666666666667 105.81333333333333C25.429333333333336 104.27733333333327 20.650666666666666 105.98399999999998 17.92 110.59199999999998C17.066666666666666 111.95733333333334 16.554666666666666 113.66400000000004 16.04266666666667 115.19999999999999C0.8533333333333334 163.15733333333333 0.34133333333333515 211.456 13.312000000000003 259.92533333333336C13.824000000000003 261.80266666666665 14.506666666666668 263.67999999999995 15.360000000000001 265.216C17.749333333333336 269.312 22.357333333333333 271.01866666666666 26.624000000000002 269.82399999999996C31.573333333333334 268.45866666666666 34.474666666666664 264.5333333333333 34.474666666666664 258.73066666666665z M312.83200000000005 67.4133333333333C309.76000000000005 51.88266666666664 307.20000000000005 36.18133333333327 303.7866666666667 20.65066666666661C298.49600000000004 -2.901333333333355 291.4986666666667 -25.94133333333332 282.79466666666667 -48.46933333333334C281.9413333333333 -50.68799999999999 281.088 -53.077333333333286 279.72266666666667 -55.12533333333329C276.99199999999996 -59.39199999999994 271.872 -60.92799999999994 267.43466666666666 -59.05066666666664C262.99733333333336 -57.343999999999994 260.2666666666667 -52.73599999999999 261.29066666666665 -47.78666666666658C261.8026666666667 -45.39733333333328 262.8266666666667 -43.17866666666663 263.68 -40.78933333333322C276.65066666666667 -5.973333333333244 286.208 29.525333333333435 291.1573333333333 66.38933333333347C291.328 67.75466666666682 291.6693333333334 69.12000000000012 291.84000000000003 70.48533333333347C293.37600000000003 76.80000000000013 297.98400000000004 80.55466666666683 303.4453333333334 79.70133333333348C309.248 78.67733333333331 312.4906666666667 74.23999999999995 312.83200000000005 67.4133333333333z M115.37066666666666 -13.48266666666666C107.34933333333332 -13.48266666666666 102.57066666666667 -7.850666666666655 103.76533333333333 -1.3653333333332967C104.10666666666667 0.5120000000001141 105.13066666666667 2.2186666666667634 105.81333333333335 3.9253333333334126C111.61600000000001 18.261333333333425 117.24800000000002 32.768000000000086 123.05066666666667 47.1040000000001C123.73333333333333 48.6400000000001 124.07466666666666 50.346666666666806 124.75733333333334 51.7120000000001C127.14666666666668 55.808000000000106 131.75466666666665 57.6853333333334 135.85066666666665 56.66133333333346C140.62933333333334 55.46666666666681 143.7013333333333 51.37066666666675 143.7013333333333 46.42133333333345C143.7013333333333 44.88533333333345 143.35999999999999 43.17866666666674 142.84799999999998 41.64266666666674C136.53333333333333 25.770666666666727 130.21866666666665 9.728000000000065 123.73333333333332 -6.143999999999892C121.85600000000002 -10.581333333333362 118.61333333333334 -13.312000000000069 115.37066666666666 -13.48266666666666z M453.97333333333336 93.86666666666662C453.97333333333336 102.05866666666668 453.80266666666665 110.25066666666663 453.97333333333336 118.44266666666664C454.14400000000006 125.952 458.58133333333336 130.048 465.2373333333334 129.536C470.86933333333343 129.02399999999994 474.6240000000001 125.09866666666665 474.6240000000001 118.27199999999999C474.7946666666668 105.13066666666668 474.4533333333334 91.98933333333332 474.112 78.84800000000001C474.112 75.09333333333336 473.9413333333333 71.168 473.42933333333343 67.41333333333336C472.7466666666668 61.6106666666667 468.3093333333334 57.85600000000005 462.8480000000001 58.19733333333335C457.21600000000007 58.53866666666664 453.4613333333334 62.29333333333335 453.2906666666667 68.43733333333336C453.12 76.97066666666666 453.2906666666667 85.33333333333337 453.2906666666667 93.86666666666667C453.46133333333336 93.86666666666662 453.63200000000006 93.86666666666662 453.97333333333336 93.86666666666662z M251.73333333333335 -15.018666666666718C251.5626666666667 -15.701333333333366 251.73333333333335 -16.554666666666662 251.39200000000002 -17.237333333333424C246.61333333333334 -29.184000000000083 242.00533333333337 -41.13066666666674 236.71466666666672 -52.736000000000104C234.32533333333336 -58.02666666666681 228.35200000000003 -59.39200000000005 223.4026666666667 -57.002666666666755C218.7946666666667 -54.61333333333346 216.40533333333337 -49.83466666666675 218.2826666666667 -44.544000000000096C222.72000000000003 -32.768000000000086 227.4986666666667 -21.16266666666678 232.6186666666667 -9.728000000000122C234.66666666666669 -4.9493333333334135 239.7866666666667 -3.0720000000001733 244.22400000000005 -4.437333333333413C249.17333333333335 -5.802666666666653 251.904 -9.728000000000009 251.73333333333335 -15.018666666666718z" />
    <glyph glyph-name="gas"
      unicode="&#xF113;"
      horiz-adv-x="520.5333333333333" d=" M391.7344 46.44400383999999L391.7344 353.30547263658667L175.2 353.30547263658667L175.2 311.361082624L127.2 311.361082624L127.2 148.43809792000002L175.2 126.08420266666667L175.2 46.44400383999999L159.2 46.44400383999999L159.2 22.16119381333334L407.7344 22.16119381333334L407.7344 46.44400383999999L391.7344 46.44400383999999L391.7344 46.44400383999999zM151.7328 164.44395605333335L151.7328 287.0766168746667L175.2 287.0766168746667L175.2 153.4118843733333L151.7328 164.44395605333335L151.7328 164.44395605333335zM199.7328 327.91829649066665L367.2 327.91829649066665L367.2 46.44400383999999L199.7328 46.44400383999999L199.7328 327.91829649066665z M214.4528 185.52460117333334L350.13439999999997 185.52460117333334L350.13439999999997 307.8277730986666L214.4528 307.8277730986666L214.4528 185.52460117333334zM238.4528 282.9919522133333L326.13439999999997 282.9919522133333L326.13439999999997 210.36042154666666L238.4528 210.36042154666666L238.4528 282.9919522133333z" />
    <glyph glyph-name="go-dx"
      unicode="&#xF114;"
      horiz-adv-x="512" d=" M379.73333333333335 192L381.44 190.2933333333333L133.97333333333333 437.76L132.26666666666668 439.46666666666664z M132.26666666666668 -55.4666666666667L133.97333333333333 -57.173333333333346L381.44 190.2933333333333L379.73333333333335 192z" />
    <glyph glyph-name="go_top"
      unicode="&#xF115;"
      horiz-adv-x="512" d=" M435.54133333333334 371.88266666666664C387.584 419.84 323.75466666666665 446.29333333333335 255.6586666666667 446.29333333333335C187.73333333333335 446.29333333333335 123.904 419.84 75.94666666666667 371.88266666666664C27.81866666666667 323.75466666666665 1.3653333333333335 259.92533333333336 1.3653333333333335 192C1.3653333333333335 124.07466666666664 27.81866666666667 60.24533333333335 75.776 12.117333333333306C123.904 -35.84000000000003 187.73333333333335 -62.29333333333335 255.82933333333335 -62.29333333333335C396.1173333333334 -62.29333333333335 510.12266666666665 51.71199999999999 510.12266666666665 192C510.12266666666665 259.92533333333336 483.6693333333333 323.75466666666665 435.54133333333334 371.88266666666664zM255.82933333333335 -31.57333333333338L255.82933333333335 -31.57333333333338C195.24266666666668 -31.57333333333338 138.06933333333336 -9.728000000000009 95.23200000000003 33.27999999999997C52.39466666666669 76.1173333333333 28.672000000000022 132.26666666666665 28.672000000000022 193.02399999999997C28.672000000000022 253.61066666666665 52.224000000000025 310.272 95.23200000000003 353.1093333333333C138.06933333333336 395.94666666666666 195.07200000000003 419.328 255.82933333333335 419.328C316.41600000000005 419.328 373.4186666666667 395.6053333333333 416.4266666666667 352.768S482.9866666666667 254.46399999999997 482.9866666666667 193.8773333333333C482.816 68.60799999999995 380.928 -31.57333333333338 255.82933333333335 -31.57333333333338z M255.31733333333335 250.02666666666664L157.01333333333335 151.72266666666667L173.90933333333336 134.82666666666665L255.31733333333335 216.06399999999996L337.5786666666667 133.9733333333333L354.4746666666667 150.86933333333332L272.21333333333337 233.13066666666666z" />
    <glyph glyph-name="gps-full"
      unicode="&#xF116;"
      horiz-adv-x="512" d=" M42.675200000000004 162.67946666666666L205.81546666666665 242.21013333333335L285.29493333333335 405.3333333333333L469.32480000000004 -21.333333333333314L42.675200000000004 162.67946666666666z" />
    <glyph glyph-name="gps"
      unicode="&#xF117;"
      horiz-adv-x="520.5333333333333" d=" M237.6308855466667 213.01945685333334L241.59491669333332 214.95216213333333L243.52723029333333 218.91638357333335L295.0173636266666 324.55051690666664L271.7580629333333 325.0896631466667L390.9345962666667 48.771796480000035L407.7574024533333 65.59441322666669L131.44806912 184.77094655999997L131.98821888 161.51225685333333L237.6308855466667 213.01945685333334zM95.71055445333333 172.30537728000002L121.30926421333334 161.26425344L397.6185975466667 42.087720106666666L427.19998719999995 29.328804693333325L414.44140373333335 58.91033685333332L295.2648704 335.22820352L284.22243327999996 360.8307498666667L272.0055697066667 335.76734976L220.51543637333333 230.13321642666668L226.41178112 236.0301431466667L120.76911445333333 184.52294314666665L95.71055445333333 172.30537728000002z" />
    <glyph glyph-name="heart"
      unicode="&#xF118;"
      horiz-adv-x="512" d=" M316.4970666666667 332.7189333333333C288.6407509333333 332.7189333333333 262.8794589866667 319.89835861333336 245.94151082666667 298.40058709333334L266.05228629333334 298.39762944C249.12073386666668 319.90029056000003 223.37400149333334 332.7189333333333 195.51146666666668 332.7189333333333C145.89774933333334 332.7189333333333 105.68106666666665 292.4991726933333 105.68106666666665 242.88853333333333C105.68106666666665 225.38658304 108.83262549333334 211.11626496 116.87302826666667 199.61306367999998C126.80724650666666 185.38787669333334 145.89812736 163.00655360000002 171.99563093333333 134.38710954666664C174.23818666666665 131.92784383999998 176.52392704 129.43219285333333 178.85032021333333 126.90257407999997C193.73497088 110.71765247999997 209.67037952 93.80072106666665 225.60417877333333 77.15916373333334C231.17986389333333 71.3358148266667 236.3578530133333 65.96203178666667 241.00609791999997 61.16434176000001C243.79862784 58.282030933333374 245.79674111999998 56.22948181333334 246.8682752 55.13335552000001L255.99533141333333 45.796836693333375L265.14890496 55.10735871999998C266.22027008 56.19709354666668 268.2161629866667 58.23806976000003 271.00608682666666 61.10834346666667C275.64826282666667 65.88421290666668 280.8230493866667 71.24506965333336 286.40008703999996 77.06912853333336C302.33776981333335 93.71273557333336 318.31457536 110.74234367999998 333.29213013333333 127.18936576000004C364.7882504533334 161.77561343999997 387.55015424 189.00406016 398.3028573866667 206.09454165333332C404.54095872 215.99565141333332 406.3189333333333 226.73075968 406.3189333333333 242.88853333333333C406.3189333333333 292.49763413333335 366.10378922666666 332.7189333333333 316.4970666666667 332.7189333333333zM376.6390254933333 219.73412778666668C366.97004458666663 204.36613376 344.8201531733333 177.86979242666666 314.36440149333333 144.42598655999996C299.54619221333337 128.15394304 283.710592 111.27484501333333 267.9102865066667 94.77470122666665C262.37902762666664 88.9984469333333 257.24827050666664 83.68320426666668 252.64903594666666 78.95151274666665C249.89411498666664 76.11724970666666 247.9320610133333 74.11087701333332 246.89376170666668 73.05477461333334L265.17439146666663 73.02877781333336C264.1287534933333 74.0984123733333 262.15716949333336 76.12370944000003 259.3921220266667 78.9776554666667C254.77773909333334 83.74039296000001 249.63451477333334 89.07809792 244.09504597333333 94.8636228266667C228.27126357333333 111.39027626666666 212.44908970666665 128.18699690666665 197.69333162666666 144.2317678933333C195.3910016 146.73522090666665 193.1296273066667 149.20426751999997 190.91181311999998 151.63640063999998C165.55238144 179.44644863999997 146.95529984 201.24886357333335 137.85854293333333 214.27485610666668C133.36869375999999 220.69837226666667 131.28106666666665 230.15118592 131.28106666666665 242.88853333333333C131.28106666666665 278.3611221333333 160.03667797333333 307.1189333333333 195.51146666666668 307.1189333333333C215.43096064 307.1189333333333 233.80420522666665 297.9713629866667 245.93918037333333 282.5602372266667L255.9926912 269.79252309333333L266.04995584 282.5572795733333C278.1910656 297.9668667733333 296.58096384 307.1189333333333 316.4970666666667 307.1189333333333C351.9644228266667 307.1189333333333 380.7189333333333 278.36002133333335 380.7189333333333 242.88853333333333C380.7189333333333 231.22915754666667 379.59113813333335 224.41972138666668 376.6390254933333 219.73412778666668z" />
    <glyph glyph-name="hearth"
      unicode="&#xF119;"
      horiz-adv-x="512" d=" M316.4970666666667 332.7189333333333C288.6407509333333 332.7189333333333 262.8794589866667 319.89835861333336 245.94151082666667 298.40058709333334L266.05228629333334 298.39762944C249.12073386666668 319.90029056000003 223.37400149333334 332.7189333333333 195.51146666666668 332.7189333333333C145.89774933333334 332.7189333333333 105.68106666666665 292.4991726933333 105.68106666666665 242.88853333333333C105.68106666666665 225.38658304 108.83262549333334 211.11626496 116.87302826666667 199.61306367999998C126.80724650666666 185.38787669333334 145.89812736 163.00655360000002 171.99563093333333 134.38710954666664C174.23818666666665 131.92784383999998 176.52392704 129.43219285333333 178.85032021333333 126.90257407999997C193.73497088 110.71765247999997 209.67037952 93.80072106666665 225.60417877333333 77.15916373333334C231.17986389333333 71.3358148266667 236.3578530133333 65.96203178666667 241.00609791999997 61.16434176000001C243.79862784 58.282030933333374 245.79674111999998 56.22948181333334 246.8682752 55.13335552000001L255.99533141333333 45.796836693333375L265.14890496 55.10735871999998C266.22027008 56.19709354666668 268.2161629866667 58.23806976000003 271.00608682666666 61.10834346666667C275.64826282666667 65.88421290666668 280.8230493866667 71.24506965333336 286.40008703999996 77.06912853333336C302.33776981333335 93.71273557333336 318.31457536 110.74234367999998 333.29213013333333 127.18936576000004C364.7882504533334 161.77561343999997 387.55015424 189.00406016 398.3028573866667 206.09454165333332C404.54095872 215.99565141333332 406.3189333333333 226.73075968 406.3189333333333 242.88853333333333C406.3189333333333 292.49763413333335 366.10378922666666 332.7189333333333 316.4970666666667 332.7189333333333zM376.6390254933333 219.73412778666668C366.97004458666663 204.36613376 344.8201531733333 177.86979242666666 314.36440149333333 144.42598655999996C299.54619221333337 128.15394304 283.710592 111.27484501333333 267.9102865066667 94.77470122666665C262.37902762666664 88.9984469333333 257.24827050666664 83.68320426666668 252.64903594666666 78.95151274666665C249.89411498666664 76.11724970666666 247.9320610133333 74.11087701333332 246.89376170666668 73.05477461333334L265.17439146666663 73.02877781333336C264.1287534933333 74.0984123733333 262.15716949333336 76.12370944000003 259.3921220266667 78.9776554666667C254.77773909333334 83.74039296000001 249.63451477333334 89.07809792 244.09504597333333 94.8636228266667C228.27126357333333 111.39027626666666 212.44908970666665 128.18699690666665 197.69333162666666 144.2317678933333C195.3910016 146.73522090666665 193.1296273066667 149.20426751999997 190.91181311999998 151.63640063999998C165.55238144 179.44644863999997 146.95529984 201.24886357333335 137.85854293333333 214.27485610666668C133.36869375999999 220.69837226666667 131.28106666666665 230.15118592 131.28106666666665 242.88853333333333C131.28106666666665 278.3611221333333 160.03667797333333 307.1189333333333 195.51146666666668 307.1189333333333C215.43096064 307.1189333333333 233.80420522666665 297.9713629866667 245.93918037333333 282.5602372266667L255.9926912 269.79252309333333L266.04995584 282.5572795733333C278.1910656 297.9668667733333 296.58096384 307.1189333333333 316.4970666666667 307.1189333333333C351.9644228266667 307.1189333333333 380.7189333333333 278.36002133333335 380.7189333333333 242.88853333333333C380.7189333333333 231.22915754666667 379.59113813333335 224.41972138666668 376.6390254933333 219.73412778666668z" />
    <glyph glyph-name="hype-logo"
      unicode="&#xF11A;"
      horiz-adv-x="512" d=" M333.824 230.39999999999998H310.4426666666667V189.44H333.824C349.184 189.44 358.74133333333333 198.14399999999998 358.74133333333333 209.92L358.74133333333333 209.92C358.74133333333333 223.232 348.5013333333333 230.39999999999998 333.824 230.39999999999998z M415.5733333333334 134.14399999999995V248.832H500.22400000000005V230.57066666666665H435.88266666666675V200.53333333333333H492.8853333333334V182.272H435.8826666666667V151.55200000000002H484.01066666666674C501.76000000000005 174.93333333333334 512 198.9973333333333 512 222.37866666666667C512 369.15200000000004 302.42133333333334 434.176 166.57066666666665 379.392C102.22933333333333 353.79200000000003 54.101333333333315 306.3466666666667 26.282666666666653 248.66133333333335H37.88799999999999V201.21599999999998H92.16000000000001V248.66133333333332H111.95733333333332V134.656H92.16000000000001V182.784H38.05866666666667V134.656H17.57866666666667V228.1813333333333C-5.802666666666664 167.59466666666663 -6.485333333333332 98.98666666666662 19.11466666666667 34.64533333333327C62.976 -74.92266666666671 356.5226666666666 14.847999999999956 468.3093333333333 134.65599999999995H415.74399999999997V134.14399999999995zM211.1146666666667 180.05333333333334V134.82666666666665H190.63466666666667V180.05333333333334L146.09066666666666 248.66133333333332H170.15466666666666L201.55733333333333 198.31466666666662L233.64266666666668 248.6613333333333H256.34133333333335L211.1146666666667 180.05333333333334zM378.368 210.09066666666664C378.368 184.49066666666664 357.888 171.34933333333333 333.1413333333333 171.34933333333333H310.44266666666664V134.82666666666665H290.6453333333333V248.832H335.872C362.3253333333334 248.66133333333332 378.368 233.47199999999998 378.368 210.09066666666664L378.368 210.09066666666664z" />
    <glyph glyph-name="iban"
      unicode="&#xF11B;"
      horiz-adv-x="512" d=" M104.119739008 114.44906666666668L415.23799125333335 114.44906666666668L415.23799125333335 88.99440896000004L104.119739008 88.99440896000004L104.119739008 114.44906666666668z M195.29277696000003 287.187956992L415.2447095466667 287.187956992L415.2447095466667 261.733298944L195.29277696000003 261.733298944L195.29277696000003 287.187956992z M229.7547349333333 218.725298944L214.55922858666665 214.58305373866668L211.42876586666668 226.42842154666667L234.21530794666666 233.55678276266667L244.45984682666668 233.55678276266667L244.45984682666668 149.94553087999998L229.7547349333333 149.94553087999998L229.7547349333333 218.725298944 M270.96801109333336 161.45396992000002L300.02891349333333 185.76571221333336C311.61028095999995 195.4838024533333 315.82229759999996 200.69629243733334 315.82229759999996 208.1681892693333C315.82229759999996 216.35358276266666 309.92413013333334 221.09701503999997 302.19874048 221.09701503999997C294.4867857066667 221.09701503999997 289.17977856 216.95476992000002 282.79121664 208.65046024533333L272.1704849066667 216.83585373866669C280.25863253333335 227.85541504 288.21242538666667 234.144756992 303.28701269333334 234.144756992C319.8059118933333 234.144756992 331.14544128000006 224.17562154666666 331.14544128000006 209.36395699200003L331.14544128000006 209.11951829333333C331.14544128000006 196.07177642666667 324.1455658666667 188.96323413333334 309.19189759999995 176.9857373866667L291.83328256 162.7488341333334L331.98515711999994 162.7488341333334L331.98515711999994 149.94553087999998L270.96801109333336 149.94553087999998L270.96801109333336 161.45396992000002 M353.17959679999996 163.11218944L363.55177301333333 172.5924471466667C369.57757695999993 165.59621546666665 376.32889685333333 161.68519594666668 385.74043647999997 161.68519594666668C394.0569873066667 161.68519594666668 400.32463018666664 166.66646016000004 400.32463018666664 174.25727317333332L400.32463018666664 174.49510570666666C400.32463018666664 182.68049919999999 392.73359445333335 187.3050154666667 380.91038890666664 187.3050154666667L374.0381499733333 187.3050154666667L371.62648490666663 196.43513088L394.4197444266667 220.26460211199998L357.8752904533333 220.26460211199998L357.8752904533333 232.962202112L413.71306666666663 232.962202112L413.71306666666663 222.048344064L390.20101034666664 198.32457642666668C402.9781333333333 196.7852731733333 415.03645952 190.39022762666667 415.03645952 175.08968618666665L415.03645952 174.84524714666668C415.03645952 159.54470570666666 403.09905237333334 148.5251438933334 385.49188096 148.5251438933334C370.78005077333336 148.5251438933334 360.2936738133333 154.56344064 353.17959679999996 163.11218944 M104.119739008 287.187956992L160.34714325333334 287.187956992L160.34714325333334 261.733298944L104.119739008 261.733298944L104.119739008 287.187956992z M130.74210500266665 236.278640896L161.36152055466667 236.278640896L161.36152055466667 210.82398276266667L130.74210500266665 210.82398276266667L130.74210500266665 236.278640896z" />
    <glyph glyph-name="info"
      unicode="&#xF11C;"
      horiz-adv-x="520.5333333333333" d=" M268.416 26.333866666666665C178.54293333333334 26.333866666666665 105.42933333333333 99.44746666666663 105.42933333333333 189.32906666666668C105.42933333333333 279.20213333333334 178.54293333333334 352.31573333333336 268.416 352.31573333333336C358.2890666666666 352.31573333333336 431.41119999999995 279.20213333333334 431.41119999999995 189.32906666666668C431.41119999999995 99.44746666666663 358.2890666666666 26.333866666666665 268.416 26.333866666666665L268.416 26.333866666666665zM268.416 326.71573333333333C192.65706666666665 326.71573333333333 131.02933333333334 265.08799999999997 131.02933333333334 189.32906666666668C131.02933333333334 113.57013333333333 192.65706666666665 51.93386666666663 268.416 51.93386666666663C344.17493333333334 51.93386666666663 405.8112 113.57013333333333 405.8112 189.32906666666668C405.8112 265.08799999999997 344.17493333333334 326.71573333333333 268.416 326.71573333333333L268.416 326.71573333333333z M255.61599999999999 232.7296L281.216 232.7296L281.216 98.13333333333333L255.61599999999999 98.13333333333333L255.61599999999999 232.7296z M281.216 268.26239999999996C281.216 261.18826666666666 275.4816 255.46239999999997 268.416 255.46239999999997C261.3504 255.46239999999997 255.61599999999999 261.18826666666666 255.61599999999999 268.26239999999996C255.61599999999999 275.328 261.3504 281.06239999999997 268.416 281.06239999999997C275.4816 281.06239999999997 281.216 275.328 281.216 268.26239999999996" />
    <glyph glyph-name="key"
      unicode="&#xF11D;"
      horiz-adv-x="512" d=" M356.4202666666667 236.57813333333334C319.24053333333336 236.57813333333334 289.1093333333333 266.7178666666667 289.1093333333333 303.8890666666666C289.1093333333333 341.0688 319.24053333333336 371.2 356.4202666666667 371.2C393.5829333333333 371.2 423.72266666666667 341.0688 423.72266666666667 303.8890666666666C423.72266666666667 266.7178666666667 393.5829333333333 236.57813333333334 356.4202666666667 236.57813333333334L356.4202666666667 236.57813333333334zM303.1637333333333 253.824L85.33333333333333 36.00213333333335L303.1637333333333 253.824zM178.83306666666667 7.978666666666697L120.53333333333333 66.27840000000003L150.25493333333333 96.00853333333333L208.5632 37.7088L178.83306666666667 7.978666666666697L178.83306666666667 7.978666666666697z" />
    <glyph glyph-name="lens"
      unicode="&#xF11E;"
      horiz-adv-x="520.5333333333333" d=" M217.6 136.53333333333336C165.75511125333333 136.53333333333336 123.73333333333333 178.55511125333334 123.73333333333333 230.4C123.73333333333333 282.23946069333334 165.75821653333333 324.26666666666665 217.6 324.26666666666665C269.44178346666666 324.26666666666665 311.46666666666664 282.23946069333334 311.46666666666664 230.4C311.46666666666664 178.55511125333334 269.44488874666666 136.53333333333336 217.6 136.53333333333336zM217.6 349.8666666666667C151.61941077333333 349.8666666666667 98.13333333333333 296.37763413333334 98.13333333333333 230.4C98.13333333333333 164.41662207999997 151.61662208 110.93333333333334 217.6 110.93333333333334C283.58337792000003 110.93333333333334 337.06666666666666 164.41662207999997 337.06666666666666 230.4C337.06666666666666 296.37763413333334 283.58058922666663 349.8666666666667 217.6 349.8666666666667zM364.62324053333333 63.09029290666666L382.7260928 81.19130709333331L298.67275946666666 165.25317376000004L280.5699072 147.1521595733334L364.62324053333333 63.09029290666666zM280.5699072 147.1521595733334L364.62324053333333 63.09029290666666L382.7260928 81.19130709333331L298.67275946666666 165.25317376000004L280.5699072 147.1521595733334z" />
    <glyph glyph-name="list-order"
      unicode="&#xF11F;"
      horiz-adv-x="512" d=" M418.16357034666663 187.10269781333335L398.66416298666667 203.68983552L307.97189632000004 97.07436885333334L327.47130368 80.48723114666672L418.16357034666663 187.10269781333335zM327.47130368 80.48723114666672L418.16357034666663 187.10269781333335L398.66416298666667 203.68983552L307.97189632000004 97.07436885333334L327.47130368 80.48723114666672zM406.784 186.368L393.98400000000004 199.168L393.98400000000004 1.2117333333333704L406.784 14.011733333333382L206.95893333333333 14.011733333333382L219.75893333333332 1.2117333333333704L219.75893333333332 88.08106666666669L194.15893333333332 88.08106666666669L194.15893333333332 1.2117333333333704L194.15893333333332 -11.588266666666641L206.95893333333333 -11.588266666666641L406.784 -11.588266666666641L419.584 -11.588266666666641L419.584 1.2117333333333704L419.584 199.168L419.584 211.968L406.784 211.968L313.6768 211.968L313.6768 186.368L406.784 186.368zM314.32533333333333 361.3184L301.5253333333333 374.1184L301.5253333333333 92.62079999999997L314.32533333333333 105.42079999999999L114.49173333333333 105.42079999999999L127.29173333333333 92.62079999999997L127.29173333333333 374.1184L114.49173333333333 361.3184L314.32533333333333 361.3184zM101.69173333333333 386.9184L101.69173333333333 374.1184L101.69173333333333 92.62079999999997L101.69173333333333 79.82080000000002L114.49173333333333 79.82080000000002L314.32533333333333 79.82080000000002L327.12533333333334 79.82080000000002L327.12533333333334 92.62079999999997L327.12533333333334 374.1184L327.12533333333334 386.9184L314.32533333333333 386.9184L114.49173333333333 386.9184L101.69173333333333 386.9184z M263.44960000000003 305.8432L276.2496 305.8432L276.2496 331.4432L263.44960000000003 331.4432L155.66506666666666 331.4432L142.86506666666668 331.4432L142.86506666666668 305.8432L155.66506666666666 305.8432L263.44960000000003 305.8432zM210.96106666666668 263.5178666666667L223.76106666666666 263.5178666666667L223.76106666666666 289.11786666666666L210.96106666666668 289.11786666666666L155.66506666666666 289.11786666666666L142.86506666666668 289.11786666666666L142.86506666666668 263.5178666666667L155.66506666666666 263.5178666666667L210.96106666666668 263.5178666666667z" />
    <glyph glyph-name="logout"
      unicode="&#xF120;"
      horiz-adv-x="512" d=" M227.49866666666665 30.512616106666655C139.69066666666663 30.512616106666655 68.26666666666667 103.24653397333338 68.26666666666667 192.64594944C68.26666666666667 282.045365248 139.69066666666663 354.77928286890665 227.49866666666665 354.77928286890665C267.3066666666667 354.77928286890665 305.4506666666667 339.66406374400003 334.8906666666667 312.4049933653333L317.61066666666665 293.54326690133337C292.9066666666667 316.5390703786667 260.90666666666664 329.19968128 227.49866666666665 329.19968128C153.77066666666667 329.070491392 93.73866666666666 267.96366506666664 93.73866666666666 192.64594944C93.73866666666666 117.45742336 153.77066666666667 56.22140757333335 227.49866666666665 56.22140757333335C258.60266666666666 56.22140757333335 288.81066666666663 67.33173930666663 312.6186666666667 87.48536490666663L329.00266666666664 67.71930965333337C300.5866666666667 43.689986559999966 264.4906666666667 30.512616106666655 227.49866666666665 30.512616106666655L227.49866666666665 30.512616106666655z M452.13866666666667 192.64594944L452.26666666666665 192.77513984L443.69066666666663 201.56005290666667L376.36266666666666 271.83936256000004L358.0586666666667 254.01115562666666L403.4986666666666 206.46926933333336L230.44266666666667 206.46926933333336L230.44266666666667 180.7604778666667L403.88266666666664 180.7604778666667L356.65066666666667 133.73535232L374.5706666666667 115.39038549333333L443.3066666666667 183.86103552000003L452.26666666666665 192.64594944L452.13866666666667 192.64594944z" />
    <glyph glyph-name="mail-full"
      unicode="&#xF121;"
      horiz-adv-x="512" d=" M464.128 351.96586666666667L67.87413333333333 351.96586666666667L266.00106666666665 177.11786666666666L464.128 351.96586666666667 M266.00106666666665 113.97120000000001L249.10506666666666 128.44373333333334L52.770133333333334 301.68746666666664L52.770133333333334 34.08213333333333L479.43679999999995 34.08213333333333L479.43679999999995 301.8752L282.89706666666666 128.44373333333334L266.00106666666665 113.97120000000001" />
    <glyph glyph-name="mail"
      unicode="&#xF122;"
      horiz-adv-x="512" d=" M107.11893333333335 303.3770666666667L404.12159999999994 303.3770666666667L404.12159999999994 82.10773333333333L107.11893333333335 82.10773333333333L107.11893333333335 303.3770666666667zM81.51893333333334 56.50773333333336L429.72159999999997 56.50773333333336L429.72159999999997 328.97706666666664L81.51893333333334 328.97706666666664L81.51893333333334 56.50773333333336z M247.07879253333334 149.94143744000002L256.6765550933333 141.47249663999997L273.61443669333335 160.66802176L264.01667413333337 169.13696256000003L116.58627413333333 299.22762922666664L106.98851157333333 307.6965700266667L90.05062997333333 288.50104490666666L99.64839253333332 280.0321041066667L247.07879253333334 149.94143744000002zM247.07851690666666 169.13671935999997L237.48099754666666 160.66750293333337L254.41943039999998 141.47246421333335L264.01694976 149.94168064000002L411.4388164266667 280.0323473066667L421.03633578666665 288.50156373333334L404.09790293333333 307.69660245333336L394.50038357333335 299.2273860266667L247.07851690666666 169.13671935999997z" />
    <glyph glyph-name="marker-full"
      unicode="&#xF123;"
      horiz-adv-x="512" d=" M255.99146666666664 405.3333333333333C168.64426666666668 405.3333333333333 97.83466666666666 334.50666666666666 97.83466666666666 247.15946666666665L97.83466666666666 209.64693333333335C97.83466666666666 109.53386666666665 259.72906666666665 -21.333333333333314 259.72906666666665 -21.333333333333314C259.72906666666665 -21.333333333333314 414.1653333333333 102.82666666666665 414.1653333333333 217.94133333333332L414.1653333333333 247.15946666666665C414.1653333333333 334.50666666666666 343.3557333333333 405.3333333333333 255.99146666666664 405.3333333333333L255.99146666666664 405.3333333333333zM256.00853333333333 183.808C224.29866666666666 183.808 198.61333333333332 209.49333333333334 198.61333333333332 241.20319999999998C198.61333333333332 272.896 224.29866666666666 298.59839999999997 256.00853333333333 298.59839999999997C287.70133333333337 298.59839999999997 313.4037333333333 272.896 313.4037333333333 241.20319999999998C313.4037333333333 209.49333333333334 287.70133333333337 183.808 256.00853333333333 183.808L256.00853333333333 183.808z" />
    <glyph glyph-name="marker"
      unicode="&#xF124;"
      horiz-adv-x="512" d=" M256.00426666666664 199.55200000000002C242.78124458666667 199.55200000000002 232.06826666666666 210.26497792 232.06826666666666 223.48800000000003C232.06826666666666 236.71102208 242.78124458666667 247.424 256.00426666666664 247.424C269.22216191999996 247.424 279.9402666666667 236.70761557333333 279.9402666666667 223.48800000000003C279.9402666666667 210.26838442666667 269.22216191999996 199.55200000000002 256.00426666666664 199.55200000000002zM256.00426666666664 273.024C228.64275541333333 273.024 206.46826666666666 250.84951125333333 206.46826666666666 223.48800000000003C206.46826666666666 196.12648874666667 228.64275541333333 173.952 256.00426666666664 173.952C283.35973205333335 173.952 305.5402666666667 196.12897536 305.5402666666667 223.48800000000003C305.5402666666667 250.84702464 283.35973205333335 273.024 256.00426666666664 273.024zM343.3012053333333 195.68286293333335C338.98424575999996 170.11654400000003 322.66304 141.65694890666668 298.0485469866666 112.69709653333331C287.58927872 100.39138474666663 276.35044352 88.8438306133333 265.1145156266667 78.41587285333333C261.1875720533333 74.77131349333337 257.54829141333335 71.53283498666667 254.29407744 68.74362880000001C252.37183658666666 67.09606485333336 251.02706346666668 65.98163541333332 250.35693312 65.44293887999999L266.4236177066667 65.42078293333333C265.69869312000003 66.00682496000002 264.26668544 67.19400789333332 262.2293981866667 68.93098837333332C258.79271765333334 71.86108586666671 254.95262464 75.23952725333334 250.81120597333333 79.01442304C238.97131008 89.8064674133334 227.13144490666667 101.57485056000002 216.11406848 113.88852309333339C198.33952085333334 133.7544081066667 184.50996394666666 153.0494856533333 176.1774216533333 170.75312469333335C170.49149269333333 182.83366826666668 167.57333333333332 193.77705642666666 167.57333333333332 203.29813333333334L167.57333333333332 227.31093333333334C167.57333333333332 276.1392887466667 207.16737792 315.73333333333335 256.00426666666664 315.73333333333335C304.8337749333333 315.73333333333335 344.4266666666666 276.13813589333336 344.4266666666666 227.31093333333334L344.4266666666666 208.60586666666669C344.4266666666666 204.42131285333335 344.04912298666665 200.11225429333334 343.3012053333333 195.68286293333335zM370.02666666666664 227.31093333333334C370.02666666666664 290.2762914133333 318.97259776 341.3333333333333 256.00426666666664 341.3333333333333C193.02888874666667 341.3333333333333 141.97333333333333 290.27777792 141.97333333333333 227.31093333333334L141.97333333333333 203.29813333333334C141.97333333333333 189.59781376 145.84148650666666 175.09185023999999 153.01477802666668 159.85120085333335C162.56624384 139.55779157333336 177.74891946666668 118.37483434666666 197.03579818666668 96.81867690666667C208.6816213333333 83.80261632000003 221.12375637333335 71.43559936000003 233.56586069333335 60.09464320000001C237.92314197333332 56.122989226666675 241.97469866666665 52.55850581333334 245.62026837333332 49.45031167999997C247.83233109333332 47.56431701333332 249.43557375999998 46.235175253333296 250.32944895999998 45.51255040000001L258.35386112 39.025472853333326L266.39613354666665 45.49039445333335C267.2705365333333 46.19329792000002 268.8217634133333 47.47881898666668 270.95392255999997 49.3063048533333C274.45704192 52.30884864000001 278.34736128 55.77071957333334 282.52921770666666 59.65186048000004C294.46128981333334 70.72590336000002 306.39045461333336 82.98274901333332 317.55465301333334 96.11783680000002C344.8860253866667 128.27419733333335 363.30437205333334 160.39061759999998 368.54388138666667 191.42055168000002C369.5244945066667 197.22803541333334 370.02666666666664 202.95952554666667 370.02666666666664 208.60586666666669L370.02666666666664 227.31093333333334z" />
    <glyph glyph-name="menu"
      unicode="&#xF125;"
      horiz-adv-x="512" d=" M103.296 346.24L343.9274666666667 346.24L343.9274666666667 320.64L103.296 320.64L103.296 346.24z M103.296 279.2192L381.4741333333333 279.2192L381.4741333333333 253.6192L103.296 253.6192L103.296 279.2192z M103.296 212.20693333333335L357.58079999999995 212.20693333333335L357.58079999999995 186.6069333333333L103.296 186.6069333333333L103.296 212.20693333333335z M103.296 145.18613333333332L416.4608 145.18613333333332L416.4608 119.5861333333333L103.296 119.5861333333333L103.296 145.18613333333332z M103.296 78.1738666666667L303.82079999999996 78.1738666666667L303.82079999999996 52.573866666666675L103.296 52.573866666666675L103.296 78.1738666666667z" />
    <glyph glyph-name="more"
      unicode="&#xF126;"
      horiz-adv-x="512" d=" M170.66666666666666 194.5600000000001H196.26666666666665V168.9600000000001H170.66666666666666z M243.2 194.5600000000001H268.8V168.9600000000001H243.2z M315.73333333333335 194.5600000000001H341.3333333333333V168.9600000000001H315.73333333333335z" />
    <glyph glyph-name="notify"
      unicode="&#xF127;"
      horiz-adv-x="512" d=" M280.2090666666667 45.499733333333324C280.2090666666667 34.0736 270.94186666666667 24.81493333333333 259.5242666666667 24.81493333333333C248.09813333333335 24.81493333333333 238.83093333333332 34.0736 238.83093333333332 45.499733333333324C238.83093333333332 56.92586666666665 248.09813333333335 66.18453333333332 259.5242666666667 66.18453333333332C270.94186666666667 66.18453333333332 280.2090666666667 56.92586666666665 280.2090666666667 45.499733333333324 M393.99437056 121.63859456000006C392.7228433066667 123.91890005333335 391.69174186666663 126.46516480000003 390.9167726933333 129.02138879999995C390.46221141333336 130.52075264 390.21248512 131.6042990933334 390.13808895999995 132.02712831999997L390.3317333333333 129.8090666666667L390.3317333333333 254.95040000000003C390.3317333333333 321.7956447573333 336.14017792 375.98720000000003 269.29493333333335 375.98720000000003L249.74506666666665 375.98720000000003C182.901137408 375.98720000000003 128.7168 321.796960512 128.7168 254.95040000000003L128.7168 129.8090666666667L128.91108206933333 132.03074986666667C128.83651413333334 131.60765525333335 128.586425088 130.52382890666667 128.13140053333333 129.02415786666666C127.35565184000001 126.46744405333334 126.323819264 123.92067754666664 125.05166745599999 121.63985749333335C122.08161937066667 116.31490645333338 118.7606508288 113.8005333333333 114.4576 113.8005333333333L114.4576 88.20053333333334L404.5909333333333 88.20053333333334L404.5909333333333 113.8005333333333C400.28395946666666 113.8005333333333 396.9631496533333 116.31450453333332 393.99437056 121.63859456000006zM404.5909333333333 113.8005333333333L114.4576 113.8005333333333L114.4576 88.20053333333334C129.388682496 88.20053333333334 140.33651396266666 96.48936021333333 147.409132544 109.1697425066667C151.23921006933332 116.03662592 153.261366528 122.70125397333334 154.12251793066667 127.58738346666661L154.3168 128.68973056000004L154.3168 129.8090666666667L154.3168 254.95040000000003C154.3168 307.65909504 197.04025087999997 350.3872 249.74506666666665 350.3872L269.29493333333335 350.3872C322.0016887466667 350.3872 364.73173333333335 307.6571552426667 364.73173333333335 254.95040000000003L364.73173333333335 129.8090666666667L364.73173333333335 128.69158314666663L364.92537770666667 127.5910050133333C365.78521088 122.7041408 367.80595114666664 116.0387592533333 371.63549610666666 109.17100543999999C378.70671701333333 96.48976213333333 389.6563072 88.20053333333334 404.5909333333333 88.20053333333334L404.5909333333333 113.8005333333333z" />
    <glyph glyph-name="pause"
      unicode="&#xF128;"
      horiz-adv-x="512" d=" M261.57866666666666 -0.7798152533333109C154.55896832 -0.7798152533333109 67.86026666666666 84.91177471999998 67.86026666666666 190.53161045333331C67.86026666666666 296.14900565333335 154.5565090133333 381.83143927466665 261.57866666666666 381.83143927466665C368.60082432 381.83143927466665 455.2970666666667 296.14900565333335 455.2970666666667 190.53161045333331C455.2970666666667 84.91177471999998 368.5983650133333 -0.7798152533333109 261.57866666666666 -0.7798152533333109zM261.57866666666666 407.4314392746667C140.48498688 407.4314392746667 42.260266666666666 310.3553399466667 42.260266666666666 190.53161045333331C42.260266666666666 70.70589696000002 140.48700245333333 -26.379815253333334 261.57866666666666 -26.379815253333334C382.67033088 -26.379815253333334 480.89706666666666 70.70589696000002 480.89706666666666 190.53161045333331C480.89706666666666 310.3553399466667 382.6723464533333 407.4314392746667 261.57866666666666 407.4314392746667z M204.8 128.44737280000004L204.8 115.64737280000003L230.4 115.64737280000003L230.4 128.44737280000004L230.4 255.10678869333333L230.4 267.90678869333334L204.8 267.90678869333334L204.8 255.10678869333333L204.8 128.44737280000004z M290.1333333333333 128.89321130666667L290.1333333333333 116.09321130666666L315.73333333333335 116.09321130666666L315.73333333333335 128.89321130666667L315.73333333333335 255.55262720000002L315.73333333333335 268.35262720000003L290.1333333333333 268.35262720000003L290.1333333333333 255.55262720000002L290.1333333333333 128.89321130666667z" />
    <glyph glyph-name="phone-full"
      unicode="&#xF129;"
      horiz-adv-x="512" d=" M312.2630417066667 -21.333333333333314C289.01824170666663 -21.333333333333314 265.50037504 -10.274133333333339 242.32384170666668 11.520000000000039C215.15370837333333 37.10293333333334 186.84010837333332 79.03573333333333 158.13397486933331 136.17493333333334C117.51530820266666 217.07093333333333 101.76277486933333 277.1114666666667 109.971841536 319.7098666666667C118.76117486933333 365.1754666666667 147.04064153599998 376.6784 207.67850837333333 405.3333333333333L278.04437504 265.28426666666667L231.04277504 241.68106666666665C228.94357503999998 235.75893333333335 231.40117504 213.06026666666668 247.01717504 181.6064C262.95744170666666 149.46986666666663 279.95584170666666 133.42720000000003 286.06570837333334 131.49866666666662C288.8305083733333 132.86400000000003 333.0161083733333 154.89706666666666 333.0161083733333 154.89706666666666L404.13290837333335 14.933333333333337C347.4545083733333 -13.397333333333336 335.52490837333335 -21.333333333333314 312.2630417066667 -21.333333333333314L201.1754257066667 133.8416674133333" />
    <glyph glyph-name="phone"
      unicode="&#xF12A;"
      horiz-adv-x="520.5333333333333" d=" M249.31674282666665 86.39261781333335C231.28722176 103.20037631999998 211.9558912 131.54649258666666 192.19812437333334 170.52081663999996C164.51409749333334 225.13453056000003 153.96947456 264.9330730666667 159.1261482666667 291.44531370666664C162.25679274666666 307.50648746666667 168.92527445333332 315.64359253333333 186.31367850666666 325.40893952C193.68214698666668 329.5470805333333 195.74852522666666 330.5402171733333 221.39597141333334 342.53946794666666L204.55628458666666 348.34304853333333L254.54561792 249.7898752L260.26213802666666 267.04149248L226.87120469333334 250.43846997333333L222.24954879999999 248.14043733333335L220.51477162666666 243.27924394666667C216.97139712 233.34999552 221.6318464 212.63951786666667 232.47351210666665 190.98179157333334C243.50849792 168.94188714666666 257.6214724266667 152.44440149333332 267.82164394666665 149.23295829333335L272.68935424 147.70039808L277.27624192 149.93731839999998C278.13987669333335 150.35849301333337 284.2104994133333 153.35430485333336 293.9663163733333 158.17226752C300.2475716266666 161.2745147733333 300.2475716266666 161.2745147733333 305.47212629333336 163.8553326933333C309.65151402666663 165.91998976000002 309.65151402666663 165.91998976000002 310.69641472 166.4362333866667L293.63764309333334 172.06994517333334L344.15710975999997 73.58333184000003L349.8663893333333 90.89627392C299.75727786666664 66.08493482666665 305.2324650666667 68.63264426666666 297.42518442666665 67.26075904000004C295.23771989333335 66.87638016 292.97340671999996 66.69596415999996 290.27253930666666 66.69596415999996C277.32383999999996 66.69596415999996 263.58292991999997 73.09537962666667 249.31674282666665 86.39261781333335zM301.85570304 42.047062186666665C313.53711871999997 44.09970602666664 305.42542165333333 40.325177173333316 361.22588842666664 67.95457024000001L372.86082730666664 73.71556693333332L366.935168 85.26751231999998L316.41570133333335 183.75412565333335L310.66102442666664 194.97274538666667L299.35693056 189.38783744C298.3125410133333 188.8718455466667 298.3125410133333 188.8718455466667 294.13390336 186.80755968C288.91027370666666 184.22719829333334 288.91027370666666 184.22719829333334 282.6410350933333 181.13088512000002C273.02299989333335 176.38096640000003 266.85564928 173.3374216533333 266.0549700266667 172.94694826666665L271.66560597333336 161.4421333333333L275.50956799999994 173.65130837333334C273.84073472 175.38736128 272.06378154666663 177.17476181333336 270.1370965333333 179.42697728000002C265.22276266666665 185.17163093333335 260.09757952 192.98988458666668 255.36501589333332 202.44211626666666C250.74279936 211.67563349333335 247.63102037333334 220.23505066666667 246.0201344 227.39363328C245.39054677333334 230.19144448 245.03645866666665 232.59565909333332 244.94048682666667 234.40666453333333C244.89785258666666 235.21118122666667 232.57013930666665 238.97713749333334 232.57013930666665 238.97713749333334L238.26907391999998 227.51580501333333L271.66000725333333 244.11882752000002L283.21324032 249.86345813333335L277.37652736 261.3704448L227.38719402666666 359.9236181333333L221.77825792 370.9815458986667L210.54750719999998 365.727198464C184.00726101333333 353.31024725333333 181.9793664 352.3356066133333 173.77823488 347.7298414933333C150.25998762666669 334.52196778666666 138.6886417066667 320.40222293333335 133.99804928 296.33802581333333C127.49086464 262.88234666666665 139.33095082666665 218.19433984 169.36438357333333 158.94583039999998C190.36371370666666 117.52239104 211.27829333333332 86.85470720000001 231.86116095999998 67.66662911999998C250.53480192 50.26128640000002 270.2147072 41.095964159999994 290.27253930666666 41.095964159999994C294.40072447999995 41.095964159999994 298.13748992 41.393702399999995 301.85570304 42.047062186666665z" />
    <glyph glyph-name="pin-full"
      unicode="&#xF12B;"
      horiz-adv-x="512" d=" M282.9397333333333 33.994200746666706L282.9397333333333 146.93546666666668C251.40053333333333 132.94757205333337 229.06026666666665 146.93546666666668 229.06026666666665 146.93546666666668L229.06026666666665 33.994200746666706C208.15120213333333 29.34660778666671 193.72373333333334 19.457179306666717 193.72373333333334 8.012800000000027C193.72373333333334 -7.893333333333317 221.5936 -20.778666666666652 256 -20.778666666666652C290.40639999999996 -20.778666666666652 318.2762666666667 -7.893333333333317 318.2762666666667 8.012800000000027C318.2762666666667 19.457179306666717 303.84879786666664 29.34660778666671 282.9397333333333 33.994200746666706zM378.00960000000003 282.7690666666667C378.00960000000003 215.3728 323.3792 160.74240000000003 256.01706666666666 160.74240000000003C188.6208 160.74240000000003 133.9904 215.3728 133.9904 282.7690666666667C133.9904 350.13120000000004 188.6208 404.77866666666665 256.01706666666666 404.77866666666665C323.3792 404.77866666666665 378.00960000000003 350.13120000000004 378.00960000000003 282.7690666666667z" />
    <glyph glyph-name="play"
      unicode="&#xF12C;"
      horiz-adv-x="512" d=" M223.04639999999998 238.11238314666667L301.28426666666667 190.53161045333331L223.04639999999998 142.95083776L223.04639999999998 238.11238314666667M198.48853333333332 281.5415790933333L198.48853333333332 99.51004416L348.1354666666667 190.53161045333331L198.48853333333332 281.5415790933333 M261.57866666666666 -0.7798152533333109C154.55896832 -0.7798152533333109 67.86026666666666 84.91177471999998 67.86026666666666 190.53161045333331C67.86026666666666 296.14900565333335 154.5565090133333 381.83143927466665 261.57866666666666 381.83143927466665C368.60082432 381.83143927466665 455.2970666666667 296.14900565333335 455.2970666666667 190.53161045333331C455.2970666666667 84.91177471999998 368.5983650133333 -0.7798152533333109 261.57866666666666 -0.7798152533333109zM261.57866666666666 407.4314392746667C140.48498688 407.4314392746667 42.260266666666666 310.3553399466667 42.260266666666666 190.53161045333331C42.260266666666666 70.70589696000002 140.48700245333333 -26.379815253333334 261.57866666666666 -26.379815253333334C382.67033088 -26.379815253333334 480.89706666666666 70.70589696000002 480.89706666666666 190.53161045333331C480.89706666666666 310.3553399466667 382.6723464533333 407.4314392746667 261.57866666666666 407.4314392746667z" />
    <glyph glyph-name="recharge"
      unicode="&#xF12D;"
      horiz-adv-x="503.6065573770492" d=" M349.44401794098366 361.17822950819675L349.44401794098366 13.219672131147547L153.76072519344262 13.219672131147547L153.76072519344262 361.17822950819675L349.44401794098366 361.17822950819675L349.44401794098366 361.17822950819675zM369.5347048918033 389.24590163934425L133.8039766032787 389.24590163934425L125.9016393442623 389.24590163934425L125.9016393442623 -13.639344262295083C125.9016393442623 -13.639344262295083 129.51796333114754 -13.505049180327887 133.8039766032787 -13.505049180327887L369.5347048918033 -13.505049180327887C373.9546565245902 -13.505049180327887 377.4370421508197 -13.639344262295083 377.4370421508197 -13.639344262295083L377.4370421508197 389.24590163934425L369.5347048918033 389.24590163934425L369.5347048918033 389.24590163934425L369.5347048918033 389.24590163934425z M328.41576582295085 93.25954098360654L174.78897815081967 93.25954098360654L174.78897815081967 336.4679344262295L328.2818274622951 336.4679344262295L328.2818274622951 93.25954098360654L328.41576582295085 93.25954098360654zM202.78200236065575 121.32721311475404L300.4227416131148 121.32721311475404L300.4227416131148 308.4002622950819L202.78200236065575 308.4002622950819L202.78200236065575 121.32721311475404L202.78200236065575 121.32721311475404z M251.53540280655739 71.36944262295083C240.55249416393445 71.36944262295083 231.5786533770492 62.37167213114748 231.5786533770492 51.35947540983602C231.5786533770492 40.34727868852457 240.55249416393445 31.349508196721274 251.53540280655739 31.349508196721274C262.5183114491804 31.349508196721274 271.4921522360656 40.34727868852457 271.4921522360656 51.35947540983602C271.4921522360656 62.50596721311473 262.5183114491804 71.36944262295083 251.53540280655739 71.36944262295083L251.53540280655739 71.36944262295083z" />
    <glyph glyph-name="refresh"
      unicode="&#xF12E;"
      horiz-adv-x="520.5333333333333" d=" M258.83402495999997 254.46445568L268.61276928 246.20514816000002L285.1313851733333 265.7626359466667L275.3526417066667 274.02194432L207.80277504 331.0758109866667L198.02403072 339.3351185066667L181.50541482666668 319.77763072L191.28415829333335 311.51832234666665L258.83402495999997 254.46445568zM189.76584618666666 329.5577045333333L181.50520831999998 319.7800840533333L201.06044928 303.25880831999996L209.32108714666668 313.0364288L266.38348714666665 380.57776221866663L274.6441250133333 390.3553826986667L255.08888405333335 406.87665834666666L246.82824618666666 397.0990377813333L189.76584618666666 329.5577045333333z M382.6769390933333 229.11032746666666C410.2956526933333 158.43983104 375.3981866666666 78.75696384000003 304.7246404266666 51.13230250666669C234.04705024 23.513867093333374 154.37149098666666 58.40918869333336 126.74616917333333 129.08442623999997L102.90289749333333 119.76464042666669C135.67515562666668 35.921741653333356 230.1969536 -5.47575381333337 314.04328362666666 27.288584533333335C397.88590165333335 60.06073173333334 439.28558506666667 154.59039061333334 406.5203080533333 238.42986325333334C373.74641663999995 322.26768042666663 279.2146926933333 363.66987758933334 195.37111637333334 330.90661546666666L204.68861696 307.0624512C275.3647112533334 334.68030208 355.05069568 299.78011477333337 382.6769390933333 229.11032746666666z" />
    <glyph glyph-name="reject"
      unicode="&#xF12F;"
      horiz-adv-x="512" d=" M262.76992341333334 203.33653333333334L404.51963903999996 61.59082837333335L386.41796095999996 43.48863829333334L244.66773333333333 185.23485610666665L102.91750570666666 43.48863829333334L84.81582788266665 61.59082837333335L226.56554325333332 203.33653333333334L84.81582788266665 345.0822382933333L102.91750570666666 363.18442820266665L244.66773333333333 221.43821056000002L386.41796095999996 363.18442820266665L404.51963903999996 345.0822382933333L262.76992341333334 203.33653333333334z" />
    <glyph glyph-name="request-money-complete"
      unicode="&#xF130;"
      horiz-adv-x="512" d=" M401.06666666666666 319.6351264366933L372.1557333333333 319.6351264366933L372.1557333333333 82.01121877333327L148.37759999999997 82.01121877333327L148.37759999999997 319.6351264366933L119.46666666666667 319.6351264366933L119.46666666666667 55.831540053333356L401.06666666666666 55.831540053333356L401.06666666666666 319.6351264366933z M244.06186666666665 319.6351264366933H268.65493333333336V136.92468974336003H244.06186666666665z M242.69476974933332 133.35739391999994L317.75183616 211.32727125333332L335.97803178666663 195.08775253333334L260.92096477866664 117.11787519999996L242.69476974933332 133.35739391999994L242.69476974933332 133.35739391999994z M179.8525345186133 189.31307178666668L196.73480533333336 206.84553813333332L277.7677175466667 134.62483712L260.88544708266664 117.09236992000001L179.8525345186133 189.31307178666668L179.8525345186133 189.31307178666668z" />
    <glyph glyph-name="request-money"
      unicode="&#xF131;"
      horiz-adv-x="512" d=" M392.80639999999994 271.9402666666667L365.42293333333333 271.9402666666667L365.42293333333333 40.50773333333336L153.66826666666665 40.50773333333336L153.66826666666665 271.9402666666667L126.29333333333334 271.9402666666667L126.29333333333334 15.010133333333329L392.80639999999994 15.010133333333329L392.80639999999994 271.9402666666667 M247.936 328.96000000000004L271.17226666666664 328.96000000000004L271.17226666666664 308.70186666666666L247.936 308.70186666666666L247.936 328.96000000000004z M247.936 360.6698666666667L271.17226666666664 360.6698666666667L271.17226666666664 340.4202666666667L247.936 340.4202666666667L247.936 360.6698666666667z M261.26506666666666 89.60000000000002L275.3365333333333 104.84053333333333L276.992 106.66666666666669L276.9749333333333 106.66666666666669L331.5114666666667 167.88479999999998L315.4176 184.832L273.06666666666666 139.25546666666668L273.06666666666666 285.8666666666667L247.46666666666667 285.8666666666667L247.46666666666667 138.24853333333334L200.84053333333335 181.66613333333333L185.16479999999999 162.9098666666667L244.096 106.66666666666669L261.26506666666666 89.60000000000002" />
    <glyph glyph-name="save-small"
      unicode="&#xF132;"
      horiz-adv-x="512" d=" M256 21.71306666666669C162.10773333333333 21.71306666666669 85.71733333333333 98.10346666666663 85.71733333333333 191.99573333333336C85.71733333333333 285.8965333333333 162.10773333333333 362.2869333333333 256 362.2869333333333C349.89226666666667 362.2869333333333 426.28266666666667 285.8965333333333 426.28266666666667 191.99573333333336C426.28266666666667 98.10346666666663 349.89226666666667 21.71306666666669 256 21.71306666666669L256 21.71306666666669zM256 336.68693333333334C176.22186666666667 336.68693333333334 111.31733333333334 271.7824 111.31733333333334 191.99573333333336C111.31733333333334 112.2176 176.22186666666667 47.31306666666666 256 47.31306666666666C335.76959999999997 47.31306666666666 400.68266666666665 112.2176 400.68266666666665 191.99573333333336C400.68266666666665 271.7824 335.76959999999997 336.68693333333334 256 336.68693333333334L256 336.68693333333334z M229.85110442666667 145.55638698666667L238.90207146666668 136.50541994666668L247.95303765333335 145.55638698666667L322.73833045333333 220.34167978666667L304.63639722666665 238.44361301333333L229.85110442666667 163.65832021333335L247.95303765333335 163.65832021333335L207.36360277333333 204.24775509333335L189.26166954666667 186.14582186666667L229.85110442666667 145.55638698666667z" />
    <glyph glyph-name="save"
      unicode="&#xF133;"
      horiz-adv-x="512" d=" M244.79146666666665 352.76373333333333L270.39146666666664 352.76373333333333L270.39146666666664 127.09120000000001L244.79146666666665 127.09120000000001L244.79146666666665 352.76373333333333z M296.75093333333336 352.08106666666663C368.7210666666667 333.5466666666667 418.9909333333333 268.6336 418.9909333333333 194.23146666666668C418.9909333333333 104.34986666666663 345.8688 31.236266666666666 255.99573333333333 31.236266666666666C166.12266666666667 31.236266666666666 93.00906666666667 104.34986666666663 93.00906666666667 194.23146666666668C93.00906666666667 269.9904 144.41386666666668 335.18506666666667 218.0053333333333 352.76373333333333L217.44213333333335 326.1397333333333C158.91199999999998 309.14133333333336 118.60906666666666 255.8336 118.60906666666666 194.23146666666668C118.60906666666666 118.47253333333333 180.23680000000002 56.83626666666669 255.99573333333333 56.83626666666669C331.75466666666665 56.83626666666669 393.3909333333333 118.47253333333333 393.3909333333333 194.23146666666668C393.3909333333333 254.73280000000003 353.97546666666665 307.78453333333334 296.74240000000003 325.48266666666666L296.75093333333336 352.08106666666663 M329.7858986666667 175.4675831466667L338.9412488533333 184.41294848L321.05051818666664 202.72364885333334L311.895168 193.77828352L248.64610133333332 131.97988352L239.49075114666667 123.03451818666667L257.3814818133333 104.72381781333331L266.536832 113.66918314666668L329.7858986666667 175.4675831466667zM248.43489536 113.88041728000002L257.37901141333333 104.72384682666666L275.69215317333334 122.61207808L266.74803797333334 131.76864938666665L204.95817130666669 195.02624938666668L196.01405525333334 204.18281983999998L177.70091349333333 186.2945885866667L186.64502869333333 177.13801727999999L248.43489536 113.88041728000002z" />
    <glyph glyph-name="send-money"
      unicode="&#xF134;"
      horiz-adv-x="512" d=" M235.76445525333332 304.7620522666667L235.76445525333332 279.32806485333333L397.74669824 279.32806485333333L397.74669824 104.81312341333336L235.76445525333332 104.81312341333336L235.76445525333332 79.23794773333333L422.56966314666664 79.23794773333333L422.56966314666664 304.7620522666667L235.76445525333332 304.7620522666667 M89.43033685333333 304.7620522666667L211.07852544 304.7620522666667L211.07852544 279.32806485333333L89.43033685333333 279.32806485333333L89.43033685333333 304.7620522666667z M106.98390613333332 238.20877568L211.07852544 238.20877568L211.07852544 212.77478826666666L106.98390613333332 212.77478826666666L106.98390613333332 238.20877568z M140.85772544000002 171.65549909333333L211.07852544 171.65549909333333L211.07852544 146.22151082666664L140.85772544000002 146.22151082666664L140.85772544000002 171.65549909333333z" />
    <glyph glyph-name="share"
      unicode="&#xF135;"
      horiz-adv-x="512" d=" M438.10133333333334 265.89866666666666L282.79466666666667 421.20533333333333L282.79466666666667 421.20533333333333L256 448L73.89866666666667 265.89866666666666L100.864 239.10399999999998L237.2266666666667 375.4666666666667L237.2266666666667 43.51999999999998L274.77333333333337 43.51999999999998L274.77333333333337 375.296L411.136 239.10399999999998z M440.66133333333335 -64L71.33866666666667 -64L71.33866666666667 58.879999999999995L109.22666666666667 58.879999999999995L109.22666666666667 -26.112000000000023L402.77333333333337 -26.112000000000023L402.77333333333337 58.879999999999995L440.66133333333335 58.879999999999995z" />
    </font>
</defs>
</svg>
